<svg width="24" height="24" viewBox="0 0 24 24" fill="none" xmlns="http://www.w3.org/2000/svg">
<path d="M15.1895 3.3125H13.7598C13.4887 2.54862 12.7567 2 11.8984 2C11.0401 2 10.3082 2.54862 10.0357 3.3125H8.60742C8.24409 3.3125 7.94922 3.6065 7.94922 3.96875V6.59375C7.94922 6.956 8.24409 7.25 8.60742 7.25H15.1895C15.5528 7.25 15.8477 6.956 15.8477 6.59375V3.96875C15.8477 3.6065 15.5528 3.3125 15.1895 3.3125Z" fill="#5B270B"/>
<path d="M18.4805 4.625H17.1641V6.59375C17.1641 7.67919 16.2781 8.5625 15.1895 8.5625H8.60742C7.51875 8.5625 6.63281 7.67919 6.63281 6.59375V4.625H5.31641C4.59107 4.625 4 5.21431 4 5.9375V21.6875C4 22.4238 4.5779 23 5.31641 23H18.4805C19.219 23 19.7969 22.4238 19.7969 21.6875V5.9375C19.7969 5.20119 19.219 4.625 18.4805 4.625ZM11.7062 16.2459L9.07343 18.8709C8.94957 18.9936 8.78204 19.0625 8.60742 19.0625C8.4328 19.0625 8.26527 18.9936 8.14141 18.8709L6.82501 17.5584C6.56831 17.3024 6.56831 16.8864 6.82501 16.6304C7.08171 16.3745 7.49901 16.3745 7.75571 16.6304L8.60742 17.4783L10.7742 15.3179C11.0309 15.062 11.4482 15.062 11.7049 15.3179C11.9616 15.5739 11.9629 15.9886 11.7062 16.2459ZM11.7062 10.9959L9.07343 13.6209C8.94957 13.7436 8.78204 13.8125 8.60742 13.8125C8.4328 13.8125 8.26527 13.7436 8.14141 13.6209L6.82501 12.3084C6.56831 12.0524 6.56831 11.6364 6.82501 11.3804C7.08171 11.1245 7.49901 11.1245 7.75571 11.3804L8.60742 12.2283L10.7742 10.0679C11.0309 9.812 11.4482 9.812 11.7049 10.0679C11.9616 10.3239 11.9629 10.7386 11.7062 10.9959ZM16.5059 17.75H13.873C13.5097 17.75 13.2148 17.456 13.2148 17.0938C13.2148 16.7315 13.5097 16.4375 13.873 16.4375H16.5059C16.8692 16.4375 17.1641 16.7315 17.1641 17.0938C17.1641 17.456 16.8692 17.75 16.5059 17.75ZM16.5059 12.5H13.873C13.5097 12.5 13.2148 12.206 13.2148 11.8438C13.2148 11.4815 13.5097 11.1875 13.873 11.1875H16.5059C16.8692 11.1875 17.1641 11.4815 17.1641 11.8438C17.1641 12.206 16.8692 12.5 16.5059 12.5Z" fill="#5B270B"/>
</svg>
