<svg width="24" height="24" viewBox="0 0 24 24" fill="none" xmlns="http://www.w3.org/2000/svg">
<path d="M20.9829 9.27976L10.8072 19.3312C9.12118 20.9968 6.3873 20.9968 4.70125 19.3312C3.0152 17.6656 3.0152 14.9655 4.70125 13.2999L13.8599 4.2537C14.9841 3.14352 16.806 3.14352 17.9303 4.2537C19.0546 5.36385 19.0546 7.16441 17.9303 8.27456L8.77166 17.3208C8.20988 17.8763 7.29859 17.8763 6.73609 17.3208C6.17432 16.7661 6.17432 15.8658 6.73609 15.3104L14.8769 7.26933L13.8591 6.26413L5.71905 14.3058C4.59478 15.416 4.59478 17.2166 5.71905 18.3267C6.84332 19.4369 8.66519 19.4369 9.78946 18.3267L18.9481 9.28048C20.6342 7.61489 20.6342 4.9148 18.9481 3.24919C17.262 1.5836 14.5282 1.5836 12.8421 3.24919L3.17458 12.798L3.20962 12.833C1.4535 15.0633 1.60788 18.2874 3.68348 20.3371C5.75908 22.3868 9.02183 22.5403 11.2804 20.8047L11.3154 20.8397L22 10.2857L20.9829 9.27976Z" fill="#5B270B"/>
</svg>
