<svg width="24" height="24" viewBox="0 0 24 24" fill="none" xmlns="http://www.w3.org/2000/svg">
<path d="M14.9671 5.53051C14.9239 5.39658 14.8392 5.27985 14.7253 5.19713C14.6115 5.11441 14.4743 5.06998 14.3336 5.07025H13.0351L12.6339 3.83533C12.5904 3.70154 12.5057 3.58495 12.3919 3.50227C12.278 3.41959 12.141 3.37506 12.0003 3.37506C11.8596 3.37506 11.7226 3.41959 11.6088 3.50227C11.4949 3.58495 11.4102 3.70154 11.3667 3.83533L10.9655 5.07025H9.66705C9.52638 5.07025 9.38931 5.11479 9.2755 5.19748C9.16169 5.28017 9.07698 5.39677 9.03351 5.53056C8.99003 5.66435 8.99003 5.80847 9.03349 5.94226C9.07695 6.07606 9.16166 6.19266 9.27546 6.27536L10.3259 7.03853L9.92468 8.27345C9.88103 8.40727 9.8809 8.55149 9.92433 8.68538C9.96775 8.81928 10.0525 8.93597 10.1664 9.01871C10.2803 9.10144 10.4174 9.14595 10.5582 9.14586C10.6989 9.14577 10.8361 9.10108 10.9498 9.0182L12.0003 8.25503L13.0508 9.01825C13.1646 9.10094 13.3017 9.14547 13.4423 9.14547C13.583 9.14547 13.7201 9.10093 13.8339 9.01824C13.9477 8.93556 14.0324 8.81896 14.0759 8.68517C14.1194 8.55137 14.1194 8.40725 14.0759 8.27345L13.6747 7.03853L14.7251 6.27531C14.8392 6.19279 14.924 6.0762 14.9675 5.94235C15.011 5.80849 15.0109 5.66428 14.9671 5.53051ZM13.0134 6.5919C12.9493 6.63845 12.9016 6.7041 12.8772 6.77942C12.8527 6.85474 12.8527 6.93588 12.8772 7.0112L13.2829 8.25986L12.2206 7.48815C12.1566 7.44165 12.0794 7.41661 12.0003 7.41661C11.9212 7.41661 11.844 7.44165 11.78 7.48815L10.7178 8.25986L11.1235 7.0112C11.148 6.93588 11.148 6.85474 11.1235 6.77942C11.0991 6.7041 11.0514 6.63845 10.9873 6.5919L9.92519 5.82025H11.238C11.3172 5.82025 11.3944 5.79518 11.4585 5.74863C11.5225 5.70208 11.5702 5.63644 11.5947 5.56112L12.0003 4.31251L12.406 5.56117C12.4305 5.63649 12.4782 5.70213 12.5422 5.74868C12.6063 5.79523 12.6835 5.8203 12.7627 5.82029H14.0755L13.0134 6.5919ZM7.34716 10.8743C7.44274 10.8742 7.53695 10.8515 7.62208 10.808C7.70721 10.7646 7.78087 10.7016 7.83703 10.6243C7.89319 10.5469 7.93027 10.4574 7.94524 10.363C7.96021 10.2686 7.95264 10.172 7.92316 10.0811L7.62279 9.15672L8.40916 8.5854C8.51263 8.51022 8.58965 8.40421 8.62917 8.28257C8.66869 8.16092 8.66869 8.02989 8.62916 7.90825C8.58964 7.78661 8.51262 7.6806 8.40914 7.60542C8.30567 7.53024 8.18105 7.48975 8.05315 7.48975H7.08119L6.78082 6.56537C6.74129 6.44373 6.66427 6.33772 6.56079 6.26255C6.45732 6.18737 6.3327 6.14688 6.2048 6.14688C6.07689 6.14688 5.95227 6.18737 5.8488 6.26255C5.74532 6.33772 5.6683 6.44373 5.62877 6.56537L5.3284 7.48979H4.3564C4.22847 7.48975 4.10382 7.5302 4.00031 7.60536C3.8968 7.68053 3.81974 7.78653 3.78018 7.90818C3.74063 8.02984 3.74061 8.16089 3.78012 8.28256C3.81964 8.40422 3.89666 8.51026 4.00015 8.58545L4.78652 9.15676L4.48624 10.0811C4.44672 10.2028 4.44672 10.3338 4.48624 10.4554C4.52576 10.5771 4.60277 10.6831 4.70624 10.7583C4.8097 10.8335 4.93431 10.874 5.06221 10.874C5.19011 10.874 5.31473 10.8335 5.41821 10.7583L6.20458 10.187L6.99096 10.7583C7.09444 10.8337 7.21915 10.8743 7.34716 10.8743ZM5.98432 9.42006L5.33698 9.89064L5.58429 9.12958C5.60877 9.05424 5.60878 8.97309 5.5843 8.89776C5.55982 8.82243 5.51211 8.75678 5.44802 8.71023L4.80068 8.23993H5.60088C5.68006 8.23993 5.75722 8.21487 5.82128 8.16833C5.88534 8.12179 5.93303 8.05616 5.95751 7.98086L6.20477 7.21979L6.45208 7.98086C6.47656 8.05616 6.52425 8.12179 6.58831 8.16833C6.65238 8.21487 6.72953 8.23993 6.80871 8.23993H7.60887L6.96152 8.71028C6.89745 8.75683 6.84976 8.82247 6.82529 8.89779C6.80082 8.97312 6.80082 9.05426 6.8253 9.12958L7.07257 9.89064L6.42518 9.42025C6.36113 9.37368 6.28399 9.34858 6.2048 9.34854C6.12562 9.34851 6.04845 9.37354 5.98437 9.42006H5.98432ZM5.01921 12.3647H4.04721L3.74683 11.4404C3.70732 11.3187 3.63031 11.2127 3.52683 11.1375C3.42336 11.0623 3.29874 11.0218 3.17083 11.0218C3.04293 11.0218 2.91831 11.0623 2.81484 11.1375C2.71136 11.2127 2.63435 11.3187 2.59483 11.4404L2.29441 12.3648H1.32246C1.19456 12.3648 1.06994 12.4053 0.966463 12.4805C0.862988 12.5556 0.785969 12.6617 0.746443 12.7833C0.706917 12.9049 0.706915 13.036 0.746436 13.1576C0.785956 13.2793 0.862972 13.3853 0.966444 13.4605L1.75282 14.0318L1.45244 14.9562C1.41291 15.0778 1.4129 15.2089 1.45242 15.3305C1.49194 15.4522 1.56896 15.5582 1.67244 15.6334C1.77591 15.7086 1.90054 15.7491 2.02845 15.7491C2.15635 15.7491 2.28098 15.7086 2.38446 15.6334L3.17083 15.062L3.95721 15.6334C4.06069 15.7086 4.18535 15.7492 4.31331 15.7492C4.44126 15.7492 4.56594 15.7087 4.66945 15.6335C4.77297 15.5583 4.85001 15.4523 4.88951 15.3306C4.92902 15.2089 4.92897 15.0778 4.88937 14.9561L4.58904 14.0317L5.37541 13.4604C5.4789 13.3852 5.55592 13.2792 5.59544 13.1575C5.63495 13.0358 5.63493 12.9048 5.59538 12.7831C5.55582 12.6615 5.47876 12.5555 5.37525 12.4803C5.27174 12.4052 5.14713 12.3647 5.01921 12.3647ZM3.92758 13.585C3.86349 13.6316 3.81579 13.6972 3.79131 13.7726C3.76683 13.8479 3.76683 13.9291 3.79132 14.0044L4.03863 14.7656L3.39124 14.2951C3.32719 14.2486 3.25008 14.2235 3.17093 14.2235C3.09178 14.2235 3.01466 14.2486 2.95062 14.2951L2.30304 14.7656L2.5503 14.0044C2.57478 13.9291 2.57479 13.8479 2.55032 13.7726C2.52585 13.6973 2.47816 13.6316 2.41408 13.5851L1.76674 13.1147H2.5669C2.64608 13.1147 2.72323 13.0897 2.78729 13.0431C2.85136 12.9966 2.89904 12.931 2.92352 12.8557L3.17083 12.0946L3.4181 12.8557C3.44258 12.931 3.49026 12.9966 3.55433 13.0431C3.61839 13.0897 3.69554 13.1147 3.77473 13.1147H4.57493L3.92758 13.585ZM22.6442 12.3647H21.6722L21.3718 11.4404C21.3323 11.3187 21.2553 11.2127 21.1518 11.1375C21.0484 11.0623 20.9237 11.0218 20.7958 11.0218C20.6679 11.0218 20.5433 11.0623 20.4398 11.1375C20.3364 11.2127 20.2593 11.3187 20.2198 11.4404L19.9194 12.3648H18.9475C18.8195 12.3647 18.6949 12.4052 18.5914 12.4804C18.4879 12.5555 18.4108 12.6615 18.3712 12.7832C18.3317 12.9048 18.3317 13.0359 18.3712 13.1576C18.4107 13.2792 18.4877 13.3853 18.5912 13.4605L19.3776 14.0318L19.0772 14.9562C19.0377 15.0778 19.0377 15.2089 19.0772 15.3305C19.1167 15.4522 19.1937 15.5582 19.2972 15.6334C19.4007 15.7086 19.5253 15.7491 19.6532 15.7491C19.7811 15.7491 19.9057 15.7086 20.0092 15.6334L20.7956 15.062L21.582 15.6334C21.6855 15.7087 21.8101 15.7494 21.9382 15.7494C22.0662 15.7495 22.1909 15.709 22.2945 15.6338C22.398 15.5586 22.4751 15.4525 22.5146 15.3307C22.5541 15.2089 22.554 15.0778 22.5144 14.9561L22.214 14.0317L23.0004 13.4604C23.1039 13.3852 23.1809 13.2792 23.2204 13.1575C23.26 13.0358 23.2599 12.9048 23.2204 12.7831C23.1808 12.6615 23.1038 12.5555 23.0003 12.4803C22.8967 12.4052 22.7721 12.3647 22.6442 12.3647H22.6442ZM21.5526 13.585C21.4885 13.6316 21.4408 13.6972 21.4163 13.7726C21.3918 13.8479 21.3918 13.9291 21.4163 14.0044L21.6636 14.7656L21.0162 14.2951C20.9522 14.2486 20.8751 14.2235 20.7959 14.2235C20.7168 14.2235 20.6397 14.2486 20.5756 14.2951L19.928 14.7656L20.1753 14.0044C20.1998 13.9291 20.1998 13.8479 20.1753 13.7726C20.1508 13.6973 20.1032 13.6316 20.0391 13.5851L19.3917 13.1147H20.1919C20.2711 13.1147 20.3482 13.0897 20.4123 13.0431C20.4764 12.9966 20.524 12.931 20.5485 12.8557L20.7958 12.0946L21.0431 12.8557C21.0676 12.931 21.1153 12.9966 21.1793 13.0431C21.2434 13.0897 21.3205 13.1147 21.3997 13.1147H22.1999L21.5526 13.585ZM18.9382 10.8743C19.0338 10.8742 19.128 10.8516 19.2132 10.8081C19.2983 10.7647 19.372 10.7017 19.4282 10.6244C19.4844 10.547 19.5215 10.4575 19.5365 10.3631C19.5514 10.2687 19.5439 10.172 19.5144 10.0811L19.214 9.15672L20.0004 8.5854C20.1039 8.51021 20.1809 8.40418 20.2204 8.28251C20.26 8.16084 20.2599 8.02979 20.2204 7.90814C20.1808 7.78648 20.1038 7.68048 20.0003 7.60532C19.8967 7.53016 19.7721 7.4897 19.6442 7.48975H18.6722L18.3718 6.56537C18.3323 6.44372 18.2553 6.33771 18.1518 6.26252C18.0484 6.18734 17.9237 6.14684 17.7958 6.14684C17.6679 6.14684 17.5433 6.18734 17.4398 6.26252C17.3364 6.33771 17.2593 6.44372 17.2198 6.56537L16.9194 7.48979H15.9475C15.8195 7.48975 15.6949 7.5302 15.5914 7.60536C15.4879 7.68053 15.4108 7.78653 15.3712 7.90818C15.3317 8.02984 15.3317 8.16089 15.3712 8.28256C15.4107 8.40422 15.4877 8.51026 15.5912 8.58545L16.3776 9.15676L16.0772 10.0812C16.0377 10.2028 16.0377 10.3339 16.0772 10.4555C16.1167 10.5772 16.1937 10.6832 16.2972 10.7584C16.4007 10.8336 16.5253 10.8741 16.6532 10.8741C16.7811 10.8741 16.9057 10.8336 17.0092 10.7584L17.7956 10.187L18.582 10.7584C18.6855 10.8337 18.8102 10.8743 18.9382 10.8743ZM17.5754 9.42006L16.928 9.89064L17.1753 9.12939C17.1998 9.05407 17.1998 8.97293 17.1753 8.89761C17.1508 8.82228 17.1032 8.75664 17.0391 8.71009L16.3917 8.23975H17.1919C17.2711 8.23975 17.3482 8.21468 17.4123 8.16814C17.4764 8.1216 17.524 8.05597 17.5485 7.98067L17.7958 7.21961L18.0431 7.98067C18.0676 8.05597 18.1153 8.1216 18.1793 8.16814C18.2434 8.21468 18.3205 8.23975 18.3997 8.23975H19.1999L18.5526 8.71004C18.4885 8.75659 18.4408 8.82224 18.4163 8.89757C18.3918 8.97291 18.3918 9.05406 18.4163 9.12939L18.6636 9.89064L18.0162 9.42006C17.9522 9.37352 17.875 9.34845 17.7958 9.34845C17.7166 9.34845 17.6395 9.37352 17.5754 9.42006H17.5754ZM16.5003 14.2828H13.8753V12.4078C13.8748 12.0101 13.7167 11.6289 13.4355 11.3477C13.1543 11.0665 12.773 10.9083 12.3753 10.9078H11.6253C11.535 10.9078 11.4478 10.9404 11.3796 10.9995C11.3114 11.0587 11.2669 11.1404 11.2541 11.2298L11.1162 12.1946C11.0534 12.6327 10.8886 13.05 10.6349 13.4127C10.3813 13.7754 10.046 14.0735 9.65608 14.2828H6.7503C6.65085 14.2828 6.55546 14.3223 6.48514 14.3927C6.41481 14.463 6.3753 14.5584 6.3753 14.6578V19.9078C6.3753 20.0073 6.41481 20.1027 6.48514 20.173C6.55546 20.2433 6.65085 20.2828 6.7503 20.2828H9.63677L9.88226 20.4465C10.4555 20.8294 11.1295 21.0335 11.8188 21.0328H16.1253C16.3425 21.0329 16.5551 20.9701 16.7374 20.852C16.9197 20.7339 17.0639 20.5654 17.1525 20.3671C17.2411 20.1688 17.2704 19.9491 17.2368 19.7345C17.2032 19.5198 17.1081 19.3196 16.9631 19.1578C17.148 18.9518 17.2503 18.6847 17.2503 18.4078C17.2503 18.131 17.148 17.8639 16.9631 17.6578C17.12 17.483 17.2181 17.2633 17.2437 17.0297C17.2692 16.7962 17.2208 16.5605 17.1054 16.3559C17.3104 16.225 17.4675 16.0311 17.553 15.8033C17.6385 15.5755 17.6479 15.3262 17.5797 15.0926C17.5116 14.8591 17.3695 14.6539 17.1749 14.5079C16.9803 14.3619 16.7436 14.2829 16.5003 14.2828ZM7.1253 15.0328H9.3753V19.5328H7.1253V15.0328ZM16.5003 15.7828H16.1253C16.0258 15.7828 15.9305 15.8223 15.8601 15.8927C15.7898 15.963 15.7503 16.0584 15.7503 16.1578C15.7503 16.2573 15.7898 16.3527 15.8601 16.423C15.9305 16.4933 16.0258 16.5328 16.1253 16.5328C16.2248 16.5328 16.3201 16.5723 16.3905 16.6427C16.4608 16.713 16.5003 16.8084 16.5003 16.9078C16.5003 17.0073 16.4608 17.1027 16.3905 17.173C16.3201 17.2433 16.2248 17.2828 16.1253 17.2828C16.0258 17.2828 15.9305 17.3223 15.8601 17.3927C15.7898 17.463 15.7503 17.5584 15.7503 17.6578C15.7503 17.7573 15.7898 17.8527 15.8601 17.923C15.9305 17.9933 16.0258 18.0328 16.1253 18.0328C16.2248 18.0328 16.3201 18.0723 16.3905 18.1427C16.4608 18.213 16.5003 18.3084 16.5003 18.4078C16.5003 18.5073 16.4608 18.6027 16.3905 18.673C16.3201 18.7433 16.2248 18.7828 16.1253 18.7828C16.0258 18.7828 15.9305 18.8223 15.8601 18.8927C15.7898 18.963 15.7503 19.0584 15.7503 19.1578C15.7503 19.2573 15.7898 19.3527 15.8601 19.423C15.9305 19.4933 16.0258 19.5328 16.1253 19.5328C16.2248 19.5328 16.3201 19.5723 16.3905 19.6427C16.4608 19.713 16.5003 19.8084 16.5003 19.9078C16.5003 20.0073 16.4608 20.1027 16.3905 20.173C16.3201 20.2433 16.2248 20.2828 16.1253 20.2828H11.8188C11.2776 20.2833 10.7483 20.1231 10.2983 19.8225L10.1253 19.7072V14.8807C10.5898 14.6087 10.9869 14.2355 11.287 13.7888C11.5871 13.342 11.7825 12.8333 11.8587 12.3005L11.9505 11.6576H12.3753C12.5741 11.6578 12.7648 11.7369 12.9054 11.8775C13.046 12.0181 13.1251 12.2088 13.1253 12.4076V14.6576C13.1253 14.757 13.1648 14.8524 13.2351 14.9228C13.3055 14.9931 13.4008 15.0326 13.5003 15.0326H16.5003C16.5998 15.0326 16.6951 15.0721 16.7655 15.1424C16.8358 15.2128 16.8753 15.3081 16.8753 15.4076C16.8753 15.507 16.8358 15.6024 16.7655 15.6728C16.6951 15.7431 16.5998 15.7826 16.5003 15.7826V15.7828Z" fill="#5B270B"/>
</svg>
