<svg width="24" height="24" viewBox="0 0 24 24" fill="none" xmlns="http://www.w3.org/2000/svg">
<g clip-path="url(#clip0_598_2605)">
<path d="M12 24C18.6274 24 24 18.6274 24 12C24 5.37258 18.6274 0 12 0C5.37258 0 0 5.37258 0 12C0 18.6274 5.37258 24 12 24Z" fill="#F7931A"/>
<path d="M19.4834 14.8156L19.0746 16.4528L17.9834 16.1813L18.3914 14.5433L16.7541 14.1353L17.0264 13.0441L18.6636 13.4521L19.0724 11.8148L20.1636 12.0871L19.7556 13.7243L21.3929 14.1323L21.1206 15.2243L19.4834 14.8156ZM15.4581 10.3201C15.3059 11.3326 14.7539 11.8246 14.0241 12.0001C15.0224 12.5273 15.5279 13.3403 15.0351 14.7578C14.4231 16.5181 12.9906 16.6741 11.0886 16.3178L10.6161 18.2093L9.50161 17.9318L9.96736 16.0643C9.67052 15.9908 9.3745 15.9141 9.07936 15.8341L8.61136 17.7091L7.49836 17.4316L7.97086 15.5356C7.70986 15.4688 7.44586 15.3983 7.17586 15.3308L5.72461 14.9686L6.28561 13.6621C6.28561 13.6621 7.10686 13.8803 7.09561 13.8646C7.41211 13.9418 7.55311 13.7311 7.60936 13.5908L8.35486 10.5998L8.47336 10.6291C8.4355 10.6139 8.39666 10.6014 8.35711 10.5916L8.88961 8.4563C8.90461 8.21405 8.82436 7.90955 8.37211 7.7963C8.39011 7.78505 7.56286 7.5953 7.56286 7.5953L7.86661 6.3773L9.40411 6.7613L9.40261 6.76655C9.63361 6.8243 9.87211 6.87905 10.1151 6.9338L10.5824 5.0603L11.6969 5.3378L11.2386 7.1753C11.5379 7.2428 11.8386 7.3118 12.1311 7.3853L12.5864 5.56055L13.7016 5.83805L13.2344 7.7123C14.6414 8.1998 15.6681 8.93705 15.4581 10.3201ZM12.8879 13.9838C13.2561 12.5063 10.8314 12.1388 10.0754 11.9498L9.45061 14.4601C10.2066 14.6476 12.5369 15.3998 12.8894 13.9831L12.8879 13.9838ZM13.2531 10.3118C13.5876 8.96705 11.5596 8.67905 10.9304 8.5223L10.3626 10.8001C10.9919 10.9576 12.9314 11.6003 13.2531 10.3118Z" fill="white"/>
</g>
<defs>
<clipPath id="clip0_598_2605">
<rect width="24" height="24" fill="white"/>
</clipPath>
</defs>
</svg>
