<svg width="24" height="24" viewBox="0 0 24 24" fill="none" xmlns="http://www.w3.org/2000/svg">
<path d="M10.3111 11.1026C10.5873 11.2188 10.8737 11.3085 11.1667 11.3706V22C10.987 21.9535 10.8122 21.8899 10.6444 21.8102L3.97778 18.829C3.38914 18.5657 2.88906 18.1366 2.53806 17.5937C2.18705 17.0507 2.00016 16.4172 2 15.7697V8.33359C2.00088 8.03537 2.042 7.73864 2.12222 7.45152L10.3111 11.1026ZM15.1333 8.61272L6.07778 4.33639L3.97778 5.27428C3.59905 5.44157 3.2558 5.68036 2.96667 5.9777L10.9778 9.56178C11.2996 9.70532 11.6479 9.77948 12 9.77948C12.3521 9.77948 12.7004 9.70532 13.0222 9.56178L15.1333 8.61272ZM21.0333 5.9777C20.7442 5.68036 20.401 5.44157 20.0222 5.27428L13.3556 2.29312C12.9295 2.09992 12.4674 2 12 2C11.5326 2 11.0705 2.09992 10.6444 2.29312L8.1 3.43199L17.1556 7.70833L21.0333 5.9777ZM21.8778 7.45152L17.9778 9.19332V11.9288C17.9778 12.1509 17.89 12.3639 17.7337 12.521C17.5774 12.678 17.3655 12.7662 17.1444 12.7662C16.9234 12.7662 16.7115 12.678 16.5552 12.521C16.3989 12.3639 16.3111 12.1509 16.3111 11.9288V9.93024L13.6889 11.1026C13.4109 11.2137 13.1249 11.3033 12.8333 11.3706V22C13.013 21.9535 13.1878 21.8899 13.3556 21.8102L20.0222 18.829C20.6109 18.5657 21.1109 18.1366 21.4619 17.5937C21.813 17.0507 21.9998 16.4172 22 15.7697V8.33359C21.9991 8.03537 21.958 7.73864 21.8778 7.45152Z" fill="#5B270B"/>
</svg>
