<svg width="24" height="24" viewBox="0 0 24 24" fill="none" xmlns="http://www.w3.org/2000/svg">
<g clip-path="url(#clip0_60_2440)">
<mask id="mask0_60_2440" style="mask-type:luminance" maskUnits="userSpaceOnUse" x="0" y="0" width="24" height="24">
<path d="M0 0H24V24H0V0Z" fill="white"/>
</mask>
<g mask="url(#mask0_60_2440)">
<path d="M7.30815 15.916C7.21832 15.8756 7.12141 15.8532 7.02295 15.8502C6.92448 15.8472 6.82639 15.8636 6.73427 15.8986C6.64216 15.9335 6.55782 15.9862 6.48608 16.0537C6.41434 16.1212 6.35659 16.2022 6.31615 16.292C6.2757 16.3818 6.25334 16.4787 6.25035 16.5772C6.24735 16.6757 6.26378 16.7738 6.2987 16.8659C6.33361 16.958 6.38633 17.0423 6.45384 17.1141C6.52134 17.1858 6.60232 17.2436 6.69215 17.284L8.69215 18.184C8.78197 18.2244 8.87888 18.2468 8.97735 18.2498C9.07581 18.2528 9.1739 18.2364 9.26602 18.2015C9.35813 18.1665 9.44247 18.1138 9.51421 18.0463C9.58596 17.9788 9.6437 17.8978 9.68415 17.808C9.72459 17.7182 9.74695 17.6213 9.74995 17.5228C9.75294 17.4243 9.73651 17.3262 9.7016 17.2341C9.66668 17.142 9.61397 17.0577 9.54646 16.9859C9.47895 16.9142 9.39797 16.8564 9.30815 16.816L7.30815 15.916Z" fill="#5B270B"/>
<path fill-rule="evenodd" clip-rule="evenodd" d="M13.792 1.65601C13.2307 1.39498 12.6191 1.25974 12 1.25974C11.3809 1.25974 10.7693 1.39498 10.208 1.65601L3.708 4.67901C2.97383 5.0204 2.35246 5.5644 1.91701 6.24698C1.48155 6.92957 1.25014 7.72235 1.25 8.53201V15.547C1.25009 16.3627 1.48491 17.1611 1.92643 17.847C2.36796 18.5329 2.99753 19.0772 3.74 19.415L10.24 22.373C10.7927 22.6245 11.3928 22.7546 12 22.7546C12.6072 22.7546 13.2073 22.6245 13.76 22.373L20.26 19.415C21.0025 19.0772 21.632 18.5329 22.0736 17.847C22.5151 17.1611 22.7499 16.3627 22.75 15.547V8.53201C22.7499 7.72235 22.5184 6.92957 22.083 6.24698C21.6475 5.5644 21.0262 5.0204 20.292 4.67901L13.792 1.65601ZM10.841 3.01601C11.2042 2.84711 11.5999 2.75961 12.0005 2.75961C12.4011 2.75961 12.7968 2.84711 13.16 3.01601L19.66 6.03901C20.127 6.25601 20.514 6.59501 20.788 7.00701L17.808 8.41901L8.742 3.99201L10.841 3.01601ZM6.991 4.80601L4.34 6.04001C3.88145 6.25257 3.49044 6.58753 3.21 7.00801L12 11.17L16.074 9.24001L6.991 4.80601ZM2.75 8.45001L11.25 12.476V21.152C11.1166 21.1142 10.9862 21.0664 10.86 21.009L4.36 18.051C3.87959 17.8324 3.47223 17.4801 3.18657 17.0363C2.90091 16.5925 2.74901 16.0758 2.749 15.548V8.53201L2.75 8.45001ZM12.75 21.151C12.8827 21.1135 13.0124 21.066 13.138 21.009L19.638 18.051C20.1184 17.8324 20.5258 17.4801 20.8114 17.0363C21.0971 16.5925 21.249 16.0758 21.249 15.548V8.53201L21.248 8.44901L12.749 12.474L12.75 21.151Z" fill="#5B270B"/>
</g>
</g>
<defs>
<clipPath id="clip0_60_2440">
<rect width="24" height="24" fill="white"/>
</clipPath>
</defs>
</svg>
