<svg width="20" height="20" viewBox="0 0 20 20" fill="none" xmlns="http://www.w3.org/2000/svg">
<path d="M18.9965 5.43914C18.9861 5.34303 18.951 5.25122 18.8948 5.1726C18.8385 5.09397 18.7629 5.03117 18.6753 4.99027L10.2378 1.05276C10.1634 1.01801 10.0822 1 9.99996 1C9.91777 1 9.83658 1.01801 9.7621 1.05276L1.3246 4.99027C1.237 5.03118 1.16143 5.09398 1.10518 5.1726C1.04892 5.25123 1.01389 5.34303 1.00345 5.43914C1.0021 5.45942 1.00095 5.4797 1 5.5L1 15.0625C0.999996 15.1749 1.03368 15.2848 1.09671 15.3779C1.15974 15.4709 1.24922 15.543 1.3536 15.5848L9.7911 18.9598C9.9252 19.0134 10.0748 19.0134 10.2089 18.9598L18.6464 15.5848C18.7508 15.543 18.8403 15.4709 18.9033 15.3779C18.9663 15.2848 19 15.1749 19 15.0625V5.5C19 5.49704 18.9969 5.44315 18.9965 5.43914ZM10 2.18321L17.0222 5.46027L14.3182 6.54189L7.16384 3.50678L10 2.18321ZM5.79215 4.1469L12.8356 7.13494L10 8.26915L2.97775 5.46027L5.79215 4.1469ZM2.125 6.33081L9.4375 9.25581V17.6067L2.125 14.6817V6.33081ZM10.5625 17.6067V9.25581L17.875 6.33081V14.6817L10.5625 17.6067Z" fill="#5B270B"/>
</svg>
