<svg width="24" height="24" viewBox="0 0 24 24" fill="none" xmlns="http://www.w3.org/2000/svg">
<path d="M21.9961 6.93238C21.9845 6.82559 21.9456 6.72358 21.8831 6.63622C21.8206 6.54885 21.7366 6.47908 21.6393 6.43363L12.2643 2.05862C12.1815 2.02001 12.0913 2 12 2C11.9086 2 11.8184 2.02001 11.7357 2.05862L2.36066 6.43363C2.26334 6.47909 2.17937 6.54886 2.11686 6.63623C2.05436 6.72359 2.01543 6.82559 2.00383 6.93238C2.00233 6.95491 2.00106 6.97745 2 7L2 17.625C2 17.7499 2.03742 17.872 2.10746 17.9754C2.17749 18.0788 2.27691 18.1589 2.39289 18.2053L11.7679 21.9553C11.9169 22.0149 12.0831 22.0149 12.2321 21.9553L21.6071 18.2053C21.7231 18.1589 21.8225 18.0788 21.8925 17.9754C21.9626 17.872 22 17.7499 22 17.625V7C22 6.99672 21.9966 6.93683 21.9961 6.93238ZM12 3.31468L19.8025 6.95586L16.798 8.15766L8.84871 4.78531L12 3.31468ZM7.32461 5.49656L15.1506 8.8166L12 10.0768L4.1975 6.95586L7.32461 5.49656ZM3.25 7.92312L11.375 11.1731V20.4519L3.25 17.2018V7.92312ZM12.625 20.4519V11.1731L20.75 7.92312V17.2018L12.625 20.4519Z" fill="#5B270B"/>
</svg>
