<svg width="24" height="24" viewBox="0 0 24 24" fill="none" xmlns="http://www.w3.org/2000/svg">
<path d="M6.58329 8.66635C6.14133 8.66611 5.71753 8.49049 5.40494 8.17807C5.09234 7.86564 4.9165 7.44194 4.91602 6.99998C4.91602 6.0818 5.6642 5.33362 6.58329 5.33362C7.50147 5.33362 8.24965 6.08089 8.24965 6.99998C8.24965 7.91816 7.50238 8.66635 6.58329 8.66635ZM6.58329 6.16635C6.36893 6.17636 6.16666 6.26856 6.01851 6.4238C5.87035 6.57904 5.78769 6.78539 5.78769 6.99998C5.78769 7.21458 5.87035 7.42092 6.01851 7.57616C6.16666 7.7314 6.36893 7.8236 6.58329 7.83362C6.79765 7.8236 6.99991 7.7314 7.14807 7.57616C7.29623 7.42092 7.37889 7.21458 7.37889 6.99998C7.37889 6.78539 7.29623 6.57904 7.14807 6.4238C6.99991 6.26856 6.79765 6.17636 6.58329 6.16635ZM18.666 6.37453H10.3333C10.2229 6.37453 10.117 6.33066 10.0389 6.25258C9.96079 6.17449 9.91692 6.06859 9.91692 5.95816C9.91692 5.84774 9.96079 5.74183 10.0389 5.66375C10.117 5.58567 10.2229 5.5418 10.3333 5.5418H18.666C18.7764 5.5418 18.8823 5.58567 18.9604 5.66375C19.0385 5.74183 19.0824 5.84774 19.0824 5.95816C19.0824 6.06859 19.0385 6.17449 18.9604 6.25258C18.8823 6.33066 18.7764 6.37453 18.666 6.37453ZM15.3333 8.45816H10.3333C10.2229 8.45816 10.117 8.4143 10.0389 8.33621C9.96079 8.25813 9.91692 8.15223 9.91692 8.0418C9.91692 7.93137 9.96079 7.82547 10.0389 7.74739C10.117 7.6693 10.2229 7.62544 10.3333 7.62544H15.3333C15.4437 7.62544 15.5496 7.6693 15.6277 7.74739C15.7058 7.82547 15.7497 7.93137 15.7497 8.0418C15.7497 8.15223 15.7058 8.25813 15.6277 8.33621C15.5496 8.4143 15.4437 8.45816 15.3333 8.45816ZM6.58329 13.6663C6.14133 13.6661 5.71753 13.4905 5.40494 13.1781C5.09234 12.8656 4.9165 12.4419 4.91602 12C4.91602 11.0818 5.6642 10.3336 6.58329 10.3336C7.50147 10.3336 8.24965 11.0809 8.24965 12C8.24965 12.9182 7.50238 13.6663 6.58329 13.6663ZM6.58329 11.1663C6.36893 11.1764 6.16666 11.2686 6.01851 11.4238C5.87035 11.579 5.78769 11.7854 5.78769 12C5.78769 12.2146 5.87035 12.4209 6.01851 12.5762C6.16666 12.7314 6.36893 12.8236 6.58329 12.8336C6.79765 12.8236 6.99991 12.7314 7.14807 12.5762C7.29623 12.4209 7.37889 12.2146 7.37889 12C7.37889 11.7854 7.29623 11.579 7.14807 11.4238C6.99991 11.2686 6.79765 11.1764 6.58329 11.1663ZM18.666 11.3754H10.3333C10.2227 11.3754 10.1167 11.3315 10.0386 11.2534C9.96038 11.1752 9.91647 11.0692 9.91647 10.9586C9.91647 10.8481 9.96038 10.7421 10.0386 10.6639C10.1167 10.5857 10.2227 10.5418 10.3333 10.5418H18.666C18.7764 10.5418 18.8823 10.5857 18.9604 10.6638C19.0385 10.7418 19.0824 10.8477 19.0824 10.9582C19.0824 11.0686 19.0385 11.1745 18.9604 11.2526C18.8823 11.3307 18.7764 11.3754 18.666 11.3754ZM15.3333 13.4582H10.3333C10.2229 13.4582 10.117 13.4143 10.0389 13.3362C9.96079 13.2581 9.91692 13.1522 9.91692 13.0418C9.91692 12.9314 9.96079 12.8255 10.0389 12.7474C10.117 12.6693 10.2229 12.6254 10.3333 12.6254H15.3333C15.4437 12.6254 15.5496 12.6693 15.6277 12.7474C15.7058 12.8255 15.7497 12.9314 15.7497 13.0418C15.7497 13.1522 15.7058 13.2581 15.6277 13.3362C15.5496 13.4143 15.4437 13.4582 15.3333 13.4582ZM6.58329 18.6663C6.14133 18.6661 5.71753 18.4905 5.40494 18.1781C5.09234 17.8656 4.9165 17.4419 4.91602 17C4.91602 16.0818 5.6642 15.3336 6.58329 15.3336C7.50147 15.3336 8.24965 16.0809 8.24965 17C8.24965 17.9182 7.50238 18.6663 6.58329 18.6663ZM6.58329 16.1663C6.36893 16.1764 6.16666 16.2686 6.01851 16.4238C5.87035 16.579 5.78769 16.7854 5.78769 17C5.78769 17.2146 5.87035 17.4209 6.01851 17.5762C6.16666 17.7314 6.36893 17.8236 6.58329 17.8336C6.79765 17.8236 6.99991 17.7314 7.14807 17.5762C7.29623 17.4209 7.37889 17.2146 7.37889 17C7.37889 16.7854 7.29623 16.579 7.14807 16.4238C6.99991 16.2686 6.79765 16.1764 6.58329 16.1663ZM18.666 16.3754H10.3333C10.2227 16.3754 10.1167 16.3315 10.0386 16.2534C9.96038 16.1752 9.91647 16.0692 9.91647 15.9586C9.91647 15.8481 9.96038 15.7421 10.0386 15.6639C10.1167 15.5857 10.2227 15.5418 10.3333 15.5418H18.666C18.7764 15.5418 18.8823 15.5857 18.9604 15.6638C19.0385 15.7418 19.0824 15.8477 19.0824 15.9582C19.0824 16.0686 19.0385 16.1745 18.9604 16.2526C18.8823 16.3307 18.7764 16.3754 18.666 16.3754ZM15.3333 18.4582H10.3333C10.2229 18.4582 10.117 18.4143 10.0389 18.3362C9.96079 18.2581 9.91692 18.1522 9.91692 18.0418C9.91692 17.9314 9.96079 17.8255 10.0389 17.7474C10.117 17.6693 10.2229 17.6254 10.3333 17.6254H15.3333C15.4437 17.6254 15.5496 17.6693 15.6277 17.7474C15.7058 17.8255 15.7497 17.9314 15.7497 18.0418C15.7497 18.1522 15.7058 18.2581 15.6277 18.3362C15.5496 18.4143 15.4437 18.4582 15.3333 18.4582Z" fill="#5B270B"/>
<path fill-rule="evenodd" clip-rule="evenodd" d="M16.6664 2.83364H7.33364C6.38636 2.83364 5.72545 2.83364 5.21182 2.87636C4.70727 2.91727 4.41818 2.99455 4.19818 3.10545C3.72768 3.34516 3.34516 3.72768 3.10545 4.19818C2.99364 4.41818 2.91727 4.70727 2.87636 5.21182C2.83364 5.72545 2.83364 6.38636 2.83364 7.33364V16.6664C2.83364 17.6136 2.83364 18.2736 2.87636 18.7882C2.91727 19.2927 2.99455 19.5818 3.10545 19.8018C3.34516 20.2723 3.72768 20.6548 4.19818 20.8945C4.41818 21.0064 4.70727 21.0827 5.21182 21.1236C5.72545 21.1664 6.38636 21.1664 7.33364 21.1664H16.6664C17.6136 21.1664 18.2736 21.1664 18.7882 21.1236C19.2927 21.0827 19.5818 21.0055 19.8018 20.8945C20.2723 20.6548 20.6548 20.2723 20.8945 19.8018C21.0064 19.5818 21.0827 19.2927 21.1236 18.7882C21.1664 18.2736 21.1664 17.6136 21.1664 16.6664V7.33364C21.1664 6.38636 21.1664 5.72545 21.1236 5.21182C21.0827 4.70727 21.0055 4.41818 20.8945 4.19818C20.6548 3.72768 20.2723 3.34516 19.8018 3.10545C19.5818 2.99364 19.2927 2.91727 18.7882 2.87636C18.2736 2.83364 17.6136 2.83364 16.6664 2.83364ZM2.36364 3.82C2 4.53273 2 5.46636 2 7.33364V16.6664C2 18.5336 2 19.4664 2.36364 20.18C2.68273 20.8073 3.19273 21.3164 3.82 21.6364C4.53273 22 5.46636 22 7.33364 22H16.6664C18.5336 22 19.4664 22 20.18 21.6364C20.807 21.3168 21.3168 20.807 21.6364 20.18C22 19.4673 22 18.5336 22 16.6664V7.33364C22 5.46636 22 4.53364 21.6364 3.82C21.3168 3.19299 20.807 2.6832 20.18 2.36364C19.4673 2 18.5336 2 16.6664 2H7.33364C5.46636 2 4.53364 2 3.82 2.36364C3.19273 2.68273 2.68364 3.19273 2.36364 3.82Z" fill="#5B270B"/>
</svg>
