<svg width="24" height="24" viewBox="0 0 24 24" fill="none" xmlns="http://www.w3.org/2000/svg">
<path fill-rule="evenodd" clip-rule="evenodd" d="M19 2H5C4.20435 2 3.44129 2.31607 2.87868 2.87868C2.31607 3.44129 2 4.20435 2 5V19C2 19.7956 2.31607 20.5587 2.87868 21.1213C3.44129 21.6839 4.20435 22 5 22H19C19.7956 22 20.5587 21.6839 21.1213 21.1213C21.6839 20.5587 22 19.7956 22 19V5C22 4.20435 21.6839 3.44129 21.1213 2.87868C20.5587 2.31607 19.7956 2 19 2ZM7.92 17.38C7.87241 17.5028 7.80104 17.6149 7.71 17.71C7.6128 17.7983 7.50118 17.8694 7.38 17.92C7.26 17.971 7.13 17.998 7 18C6.73523 17.9963 6.48163 17.8927 6.29 17.71C6.19896 17.6149 6.12759 17.5028 6.08 17.38C6.02709 17.2603 5.99977 17.1309 5.99977 17C5.99977 16.8691 6.02709 16.7397 6.08 16.62C6.12759 16.4972 6.19896 16.3851 6.29 16.29C6.43062 16.1512 6.6092 16.0572 6.80319 16.0199C6.99718 15.9825 7.19789 16.0034 7.38 16.08C7.501 16.13 7.613 16.202 7.71 16.29C7.80104 16.3851 7.87241 16.4972 7.92 16.62C7.97291 16.7397 8.00023 16.8691 8.00023 17C8.00023 17.1309 7.97291 17.2603 7.92 17.38ZM7.94 12.38C7.96883 12.3233 7.98905 12.2626 8 12.2C8.00491 12.1334 8.00491 12.0666 8 12C7.99632 11.7352 7.89273 11.4816 7.71 11.29C7.6128 11.2017 7.50118 11.1306 7.38 11.08C7.19789 11.0034 6.99718 10.9825 6.80319 11.0199C6.6092 11.0572 6.43062 11.1512 6.29 11.29C6.1974 11.3839 6.12581 11.4964 6.08 11.62C6.00342 11.8021 5.9825 12.0028 6.01987 12.1968C6.05725 12.3908 6.15124 12.5694 6.29 12.71C6.482 12.893 6.735 12.996 7 13C7.13741 13.0011 7.27358 12.9739 7.4 12.92C7.52118 12.8694 7.6328 12.7983 7.73 12.71L7.85 12.56C7.88785 12.5043 7.91811 12.4437 7.94 12.38ZM7.71 7.71C7.6128 7.79833 7.50118 7.86936 7.38 7.92C7.26132 7.97598 7.13118 8.00338 7 8C6.73523 7.99632 6.48163 7.89273 6.29 7.71C6.15124 7.56938 6.05725 7.3908 6.01987 7.19681C5.9825 7.00282 6.00342 6.80211 6.08 6.62C6.13064 6.49882 6.20167 6.3872 6.29 6.29C6.43062 6.15124 6.6092 6.05725 6.80319 6.01987C6.99718 5.9825 7.19789 6.00342 7.38 6.08C7.501 6.13 7.613 6.202 7.71 6.29C7.798 6.387 7.87 6.499 7.92 6.62C7.97124 6.74022 7.99842 6.86932 8 7C7.99632 7.26477 7.89273 7.51837 7.71 7.71ZM11 18H17C17.2652 18 17.5196 17.8946 17.7071 17.7071C17.8946 17.5196 18 17.2652 18 17C18 16.7348 17.8946 16.4804 17.7071 16.2929C17.5196 16.1054 17.2652 16 17 16H11C10.7348 16 10.4804 16.1054 10.2929 16.2929C10.1054 16.4804 10 16.7348 10 17C10 17.2652 10.1054 17.5196 10.2929 17.7071C10.4804 17.8946 10.7348 18 11 18ZM17 13H11C10.7348 13 10.4804 12.8946 10.2929 12.7071C10.1054 12.5196 10 12.2652 10 12C10 11.7348 10.1054 11.4804 10.2929 11.2929C10.4804 11.1054 10.7348 11 11 11H17C17.2652 11 17.5196 11.1054 17.7071 11.2929C17.8946 11.4804 18 11.7348 18 12C18 12.2652 17.8946 12.5196 17.7071 12.7071C17.5196 12.8946 17.2652 13 17 13ZM11 8H17C17.2652 8 17.5196 7.89464 17.7071 7.70711C17.8946 7.51957 18 7.26522 18 7C18 6.73478 17.8946 6.48043 17.7071 6.29289C17.5196 6.10536 17.2652 6 17 6H11C10.7348 6 10.4804 6.10536 10.2929 6.29289C10.1054 6.48043 10 6.73478 10 7C10 7.26522 10.1054 7.51957 10.2929 7.70711C10.4804 7.89464 10.7348 8 11 8Z" fill="#5B270B"/>
</svg>
