<svg width="24" height="24" viewBox="0 0 24 24" fill="none" xmlns="http://www.w3.org/2000/svg">
<path d="M21.6228 10.026C21.3669 5.72056 17.7822 2.29688 13.4123 2.29688H10.5877C6.21776 2.29688 2.63306 5.72056 2.37721 10.026C1.83421 10.2599 1.45312 10.8007 1.45312 11.4284V14.6132C1.45312 15.455 2.13826 16.1399 2.98036 16.1399H4.21632V9.90164H3.62553C3.93947 6.33751 6.94203 3.53242 10.5877 3.53242H13.4123C17.058 3.53242 20.0605 6.33751 20.3745 9.90164H19.7837V16.1399H21.0196C21.8617 16.1399 22.5469 15.455 22.5469 14.6132V11.4284C22.5469 10.8007 22.1658 10.2599 21.6228 10.026Z" fill="#5B270B"/>
<path d="M16.856 7.96802H7.14377C6.21103 7.96802 5.45215 8.72664 5.45215 9.65906V17.3557C5.45215 18.2881 6.21103 19.0467 7.14377 19.0467H9.2618L11.3217 21.484C11.4391 21.6228 11.6118 21.7031 11.7939 21.7031C11.976 21.7031 12.1486 21.6228 12.266 21.484L14.3259 19.0467H16.856C17.7887 19.0467 18.5476 18.2881 18.5476 17.3557V9.65906C18.5476 8.72664 17.7887 7.96802 16.856 7.96802ZM14.2584 11.0618C14.5995 11.0618 14.8764 11.3382 14.8764 11.6796C14.8764 12.0206 14.5995 12.2974 14.2584 12.2974C13.9173 12.2974 13.6404 12.0206 13.6404 11.6796C13.6404 11.3382 13.9173 11.0618 14.2584 11.0618ZM9.47974 11.0618C9.82086 11.0618 10.0977 11.3382 10.0977 11.6796C10.0977 12.0206 9.82086 12.2974 9.47974 12.2974C9.13861 12.2974 8.86176 12.0206 8.86176 11.6796C8.86176 11.3382 9.13861 11.0618 9.47974 11.0618ZM15.0803 14.8096C14.1302 15.6519 13.0649 16.0732 11.9999 16.0732C10.9345 16.0732 9.86948 15.6523 8.91943 14.8096C8.664 14.5835 8.64052 14.1931 8.86711 13.9377C9.0937 13.6824 9.48427 13.6589 9.7397 13.8854C10.4578 14.5222 11.2286 14.8405 11.9999 14.8405C12.7711 14.8405 13.5423 14.5222 14.2604 13.8854C14.5155 13.6589 14.906 13.6824 15.1326 13.9377C15.3592 14.1931 15.3357 14.5835 15.0803 14.8096Z" fill="#5B270B"/>
</svg>
