<svg width="24" height="24" viewBox="0 0 24 24" fill="none" xmlns="http://www.w3.org/2000/svg">
<g clip-path="url(#clip0_60_2260)">
<path fill-rule="evenodd" clip-rule="evenodd" d="M4.92898 18.1056C1.18018 14.356 1.18018 8.27759 4.92898 4.52959C8.67858 0.779988 14.7562 0.779988 18.505 4.52959C19.3979 5.41977 20.1061 6.47766 20.5888 7.64245C21.0715 8.80723 21.3193 10.0559 21.3178 11.3168C21.3178 11.529 21.4021 11.7324 21.5521 11.8825C21.7021 12.0325 21.9056 12.1168 22.1178 12.1168C22.33 12.1168 22.5334 12.0325 22.6835 11.8825C22.8335 11.7324 22.9178 11.529 22.9178 11.3168C22.9195 9.84563 22.6306 8.38862 22.0676 7.02946C21.5045 5.6703 20.6785 4.43577 19.637 3.39679C15.2634 -0.976012 8.17138 -0.976012 3.79778 3.39679C-0.575822 7.77119 -0.575822 14.8632 3.79778 19.2368C4.83682 20.2782 6.07138 21.1041 7.43054 21.6669C8.7897 22.2298 10.2467 22.5186 11.7178 22.5168C11.93 22.5168 12.1334 22.4325 12.2835 22.2825C12.4335 22.1324 12.5178 21.929 12.5178 21.7168C12.5178 21.5046 12.4335 21.3011 12.2835 21.1511C12.1334 21.0011 11.93 20.9168 11.7178 20.9168C10.4568 20.9187 9.20781 20.6714 8.04274 20.1889C6.87766 19.7065 5.81946 18.9985 4.92898 18.1056ZM12.5594 11.132C12.416 11.0792 12.2605 11.0685 12.1112 11.1013C11.962 11.1341 11.8252 11.209 11.7172 11.317C11.6091 11.4251 11.5343 11.5618 11.5015 11.711C11.4687 11.8603 11.4794 12.0158 11.5322 12.1592L15.4922 22.9072C15.5524 23.0707 15.6645 23.2101 15.8112 23.3042C15.958 23.3982 16.1314 23.4418 16.3052 23.4282C16.479 23.4146 16.6435 23.3446 16.7739 23.2289C16.9043 23.1132 16.9933 22.9581 17.0274 22.7872L18.0538 17.6536L23.1882 16.6272C23.3591 16.5931 23.5142 16.5041 23.6299 16.3737C23.7456 16.2434 23.8156 16.0788 23.8292 15.905C23.8428 15.7312 23.7992 15.5578 23.7052 15.411C23.6111 15.2643 23.4717 15.1522 23.3082 15.092L12.5594 11.132ZM16.5898 16.8168L16.0138 19.696L13.633 13.232L20.0962 15.6136L17.217 16.1896C17.0622 16.2206 16.9201 16.2967 16.8085 16.4083C16.6969 16.5199 16.6208 16.662 16.5898 16.8168ZM7.19218 6.79199C6.42164 7.56204 5.86041 8.51603 5.56163 9.56362C5.26286 10.6112 5.23643 11.7177 5.48486 12.7784C5.73328 13.839 6.24832 14.8187 6.98123 15.6247C7.71413 16.4307 8.64062 17.0362 9.67298 17.384C9.77529 17.4152 9.87031 17.4666 9.95241 17.5351C10.0345 17.6037 10.102 17.688 10.151 17.7831C10.1999 17.8783 10.2293 17.9822 10.2374 18.0889C10.2454 18.1955 10.232 18.3027 10.198 18.4041C10.1639 18.5055 10.1098 18.599 10.0389 18.6791C9.96809 18.7593 9.88188 18.8244 9.78543 18.8706C9.68897 18.9169 9.58422 18.9433 9.47738 18.9483C9.37053 18.9534 9.26376 18.9369 9.16338 18.9C7.99381 18.5067 6.93152 17.8473 6.06018 16.9736C2.93618 13.8496 2.93618 8.78479 6.06018 5.65999C9.18498 2.53599 14.2498 2.53599 17.3746 5.65999C18.248 6.53141 18.9071 7.59369 19.3002 8.76319C19.3678 8.96433 19.3527 9.18408 19.2582 9.37409C19.1638 9.5641 18.9977 9.70881 18.7966 9.77639C18.5954 9.84397 18.3757 9.82887 18.1857 9.73443C17.9957 9.63999 17.851 9.47393 17.7834 9.27279C17.4355 8.24059 16.83 7.31424 16.0241 6.58146C15.2182 5.84867 14.2386 5.3337 13.1781 5.08529C12.1175 4.83688 11.0112 4.86325 9.96367 5.16191C8.91618 5.46057 7.96224 6.02164 7.19218 6.79199ZM9.45458 13.58C9.13907 13.2634 8.89338 12.8843 8.73332 12.467C8.57327 12.0497 8.50241 11.6035 8.5253 11.1571C8.54819 10.7108 8.66433 10.2742 8.86623 9.87544C9.06814 9.4767 9.35133 9.12468 9.69756 8.84206C10.0438 8.55943 10.4454 8.35247 10.8765 8.23451C11.3076 8.11654 11.7586 8.09019 12.2005 8.15714C12.6424 8.2241 13.0654 8.38288 13.4422 8.62326C13.8189 8.86364 14.1412 9.18028 14.3882 9.55279C14.5059 9.72856 14.6884 9.85056 14.8958 9.89211C15.1032 9.93366 15.3186 9.89138 15.4949 9.7745C15.6712 9.65763 15.7941 9.47569 15.8366 9.26847C15.8791 9.06126 15.8378 8.84564 15.7218 8.66879C15.3288 8.07593 14.809 7.5778 14.2 7.21043C13.591 6.84307 12.9079 6.61564 12.2002 6.54461C11.4925 6.47357 10.7778 6.56069 10.1079 6.79969C9.43804 7.03868 8.82962 7.42356 8.32668 7.92649C7.82375 8.42943 7.43887 9.03785 7.19987 9.70775C6.96088 10.3777 6.87376 11.0923 6.94479 11.8C7.01583 12.5077 7.24326 13.1908 7.61062 13.7998C7.97799 14.4089 8.47612 14.9286 9.06898 15.3216C9.24583 15.4376 9.46145 15.4789 9.66866 15.4364C9.87588 15.3939 10.0578 15.2711 10.1747 15.0947C10.2916 14.9184 10.3339 14.703 10.2923 14.4956C10.2508 14.2882 10.1287 14.1057 9.95298 13.988C9.77363 13.869 9.60666 13.7323 9.45458 13.58Z" fill="#5B270B"/>
</g>
<defs>
<clipPath id="clip0_60_2260">
<rect width="24" height="24" fill="white"/>
</clipPath>
</defs>
</svg>
