<svg width="24" height="24" viewBox="0 0 24 24" fill="none" xmlns="http://www.w3.org/2000/svg">
<path fill-rule="evenodd" clip-rule="evenodd" d="M9.60018 3.47171C11.0352 1.50943 13.9646 1.50943 15.3997 3.47171C15.5612 3.69264 15.7804 3.86491 16.0332 3.96967C16.286 4.07442 16.5628 4.10764 16.8332 4.06568C19.2359 3.69277 21.3071 5.76403 20.9342 8.16665C20.8922 8.43707 20.9254 8.71382 21.0301 8.96665C21.1348 9.21947 21.3071 9.43864 21.528 9.60018C23.4907 11.0352 23.4907 13.9646 21.528 15.3997C21.3071 15.5613 21.1348 15.7804 21.0301 16.0332C20.9254 16.2861 20.8922 16.5628 20.9342 16.8332C21.3071 19.2359 19.2359 21.3071 16.8332 20.9342C16.5628 20.8922 16.2861 20.9254 16.0332 21.0301C15.7804 21.1348 15.5613 21.3071 15.3997 21.528C13.9646 23.4907 11.0352 23.4907 9.60018 21.528C9.43864 21.3071 9.21947 21.1348 8.96665 21.0301C8.71382 20.9254 8.43707 20.8922 8.16665 20.9342C5.76403 21.3071 3.69254 19.2359 4.06568 16.8332C4.10764 16.5628 4.07442 16.286 3.96967 16.0332C3.86491 15.7804 3.69264 15.5612 3.47171 15.3997C1.50943 13.9646 1.50943 11.0352 3.47171 9.60018C3.69263 9.43865 3.86488 9.21949 3.96963 8.96667C4.07439 8.71384 4.10761 8.43709 4.06568 8.16665C3.69277 5.76403 5.76403 3.69254 8.16665 4.06568C8.43709 4.10761 8.71384 4.07439 8.96667 3.96963C9.21949 3.86488 9.43865 3.69263 9.60018 3.47171ZM17.2194 10.314C17.4076 10.1087 17.5065 9.83704 17.4945 9.55881C17.4824 9.28058 17.3603 9.01855 17.155 8.83036C16.9497 8.64217 16.6781 8.54323 16.3998 8.55532C16.1216 8.5674 15.8596 8.68952 15.6714 8.8948L11.736 13.1158L10.5931 12.11C10.3874 11.9253 10.1172 11.8292 9.8411 11.8425C9.56498 11.8559 9.30526 11.9775 9.11829 12.1812C8.93132 12.3848 8.83219 12.6539 8.84241 12.9302C8.85263 13.2064 8.97138 13.4675 9.17288 13.6567L11.0896 15.3734C11.1913 15.4667 11.3103 15.5391 11.4399 15.5864C11.5695 15.6337 11.7072 15.6551 11.845 15.6491C11.9829 15.6432 12.1182 15.6102 12.2433 15.552C12.3684 15.4937 12.4807 15.4114 12.574 15.3097L17.2194 10.314Z" fill="#5B270B"/>
</svg>
