<svg width="24" height="24" viewBox="0 0 24 24" fill="none" xmlns="http://www.w3.org/2000/svg">
<path d="M10.1593 18.25C8.24224 18.25 6.68189 16.6608 6.68189 14.7083V6.16675H5.25009C4.00888 6.16675 3 7.19409 3 8.45831V19.7083C3 20.9725 4.00888 22 5.25009 22H15.4775C16.7187 22 17.7275 20.9725 17.7275 19.7083V18.25H10.1593Z" fill="currentColor"/>
<path d="M21.0003 4.29172C21.0003 3.02586 19.9931 2 18.7503 2H10.1593C8.91641 2 7.90918 3.02586 7.90918 4.29172V14.7083C7.90918 15.9741 8.91641 17 10.1593 17H18.7503C19.9931 17 21.0003 15.9741 21.0003 14.7083V4.29172Z" fill="currentColor"/>
</svg>
