<svg width="24" height="24" viewBox="0 0 24 24" fill="none" xmlns="http://www.w3.org/2000/svg">
<path d="M12 10.0224C13.8739 10.0224 15.3984 8.4473 15.3984 6.51121C15.3984 4.57512 13.8739 3 12 3C10.1261 3 8.60156 4.57512 8.60156 6.51121C8.60156 8.4473 10.1261 10.0224 12 10.0224ZM12 4.21076C13.2277 4.21076 14.2266 5.24274 14.2266 6.51121C14.2266 7.77969 13.2277 8.81166 12 8.81166C10.7723 8.81166 9.77344 7.77969 9.77344 6.51121C9.77344 5.24274 10.7723 4.21076 12 4.21076ZM18.875 10.0224C20.0596 10.0224 21.0234 9.02665 21.0234 7.80269C21.0234 6.57873 20.0596 5.58296 18.875 5.58296C17.6904 5.58296 16.7266 6.57873 16.7266 7.80269C16.7266 9.02665 17.6904 10.0224 18.875 10.0224ZM18.875 6.79372C19.4135 6.79372 19.8516 7.24635 19.8516 7.80269C19.8516 8.35904 19.4135 8.81166 18.875 8.81166C18.3365 8.81166 17.8984 8.35904 17.8984 7.80269C17.8984 7.24635 18.3365 6.79372 18.875 6.79372ZM19.3477 11.3946H18.4414C17.3735 11.3946 16.4516 12.0465 16.0315 12.9828C15.1666 12.0073 13.9243 11.3946 12.5461 11.3946H11.454C10.0757 11.3946 8.8334 12.0073 7.96852 12.9828C7.5484 12.0465 6.62652 11.3946 5.55859 11.3946H4.65234C3.18984 11.3946 2 12.6165 2 14.1184V18.526C2 19.178 2.51539 19.7085 3.14891 19.7085H6.73199C6.79207 20.4309 7.38004 21 8.09461 21H15.9054C16.62 21 17.2079 20.4309 17.268 19.7085H20.8102C21.4663 19.7085 22 19.1592 22 18.484V14.1184C22 12.6165 20.8102 11.3946 19.3477 11.3946ZM3.17188 14.1184C3.17188 13.2841 3.83602 12.6054 4.65234 12.6054H5.55859C6.37492 12.6054 7.03906 13.2841 7.03906 14.1184V14.533C6.64504 15.5929 6.72656 16.2282 6.72656 18.4978H3.17188V14.1184ZM16.1016 19.5866C16.1015 19.6403 16.0808 19.6918 16.0441 19.7298C16.0073 19.7678 15.9574 19.7892 15.9054 19.7892H8.09457C8.04257 19.7892 7.99272 19.7678 7.95595 19.7298C7.91918 19.6918 7.8985 19.6403 7.89844 19.5866V16.2789C7.89844 14.2533 9.49344 12.6054 11.4539 12.6054H12.546C14.5066 12.6054 16.1016 14.2533 16.1016 16.2789V19.5866ZM20.8281 18.484C20.8281 18.5049 21.0466 18.4978 17.2734 18.4978C17.2734 16.2114 17.3543 15.5912 16.9609 14.533V14.1184C16.9609 13.2841 17.6251 12.6054 18.4414 12.6054H19.3477C20.164 12.6054 20.8281 13.2841 20.8281 14.1184V18.484ZM5.125 10.0224C6.30965 10.0224 7.27344 9.02665 7.27344 7.80269C7.27344 6.57873 6.30965 5.58296 5.125 5.58296C3.94035 5.58296 2.97656 6.57873 2.97656 7.80269C2.97656 9.02665 3.94035 10.0224 5.125 10.0224ZM5.125 6.79372C5.66348 6.79372 6.10156 7.24635 6.10156 7.80269C6.10156 8.35904 5.66348 8.81166 5.125 8.81166C4.58652 8.81166 4.14844 8.35904 4.14844 7.80269C4.14844 7.24635 4.58652 6.79372 5.125 6.79372Z" fill="#5B270B"/>
</svg>
