<svg width="24" height="24" viewBox="0 0 24 24" fill="none" xmlns="http://www.w3.org/2000/svg">
<path d="M12 10.0108C13.8769 10.0108 15.3984 8.44139 15.3984 6.50541C15.3984 4.56942 13.8769 3 12 3C10.1231 3 8.60156 4.56942 8.60156 6.50541C8.60156 8.44139 10.1231 10.0108 12 10.0108Z" fill="#5B270B"/>
<path d="M18.875 10.0107C20.0615 10.0107 21.0234 9.01857 21.0234 7.79468C21.0234 6.57078 20.0615 5.57861 18.875 5.57861C17.6885 5.57861 16.7266 6.57078 16.7266 7.79468C16.7266 9.01857 17.6885 10.0107 18.875 10.0107Z" fill="#5B270B"/>
<path d="M5.125 10.0107C6.31155 10.0107 7.27344 9.01857 7.27344 7.79468C7.27344 6.57078 6.31155 5.57861 5.125 5.57861C3.93845 5.57861 2.97656 6.57078 2.97656 7.79468C2.97656 9.01857 3.93845 10.0107 5.125 10.0107Z" fill="#5B270B"/>
<path d="M7.2418 12.0008C6.39609 11.2861 5.6302 11.3807 4.65234 11.3807C3.18984 11.3807 2 12.6008 2 14.1V18.5003C2 19.1515 2.51523 19.6809 3.14883 19.6809C5.88422 19.6809 5.55469 19.7319 5.55469 19.5592C5.55469 16.4412 5.19664 14.1546 7.2418 12.0008Z" fill="#5B270B"/>
<path d="M12.9307 11.3968C11.2227 11.2498 9.73814 11.3985 8.45763 12.4887C6.31478 14.2591 6.72717 16.6429 6.72717 19.5591C6.72717 20.3307 7.33576 20.9702 8.09513 20.9702C16.3405 20.9702 16.6687 21.2445 17.1576 20.1277C17.318 19.75 17.274 19.87 17.274 16.2568C17.274 13.387 14.8649 11.3968 12.9307 11.3968ZM19.3483 11.3807C18.3651 11.3807 17.6034 11.287 16.7588 12.0008C18.7887 14.1385 18.4459 16.2691 18.4459 19.5591C18.4459 19.733 18.1724 19.6808 20.8108 19.6808C21.467 19.6808 22.0006 19.1325 22.0006 18.4584V14.1C22.0006 12.6007 20.8108 11.3807 19.3483 11.3807Z" fill="#5B270B"/>
</svg>
