<svg width="24" height="24" viewBox="0 0 24 24" fill="none" xmlns="http://www.w3.org/2000/svg">
<path d="M9.70828 8.66672H3.45828C2.65414 8.66672 2 8.01258 2 7.20828V3.45828C2 2.65414 2.65414 2 3.45828 2H9.70828C10.5126 2 11.1667 2.65414 11.1667 3.45828V7.20828C11.1667 8.01258 10.5126 8.66672 9.70828 8.66672ZM3.45828 3.25C3.40305 3.25004 3.3501 3.272 3.31105 3.31105C3.272 3.3501 3.25004 3.40305 3.25 3.45828V7.20828C3.25001 7.26353 3.27195 7.31652 3.31101 7.3556C3.35006 7.39468 3.40303 7.41667 3.45828 7.41672H9.70828C9.76356 7.4167 9.81656 7.39473 9.85565 7.35565C9.89473 7.31656 9.9167 7.26356 9.91672 7.20828V3.45828C9.91667 3.40303 9.89468 3.35006 9.8556 3.31101C9.81652 3.27195 9.76353 3.25001 9.70828 3.25H3.45828ZM9.70828 22H3.45828C2.65414 22 2 21.3459 2 20.5417V11.7917C2 10.9874 2.65414 10.3333 3.45828 10.3333H9.70828C10.5126 10.3333 11.1667 10.9874 11.1667 11.7917V20.5417C11.1667 21.3459 10.5126 22 9.70828 22ZM3.45828 11.5833C3.40303 11.5833 3.35006 11.6053 3.31101 11.6444C3.27195 11.6835 3.25001 11.7365 3.25 11.7917V20.5417C3.25004 20.5969 3.272 20.6499 3.31105 20.6889C3.3501 20.728 3.40305 20.75 3.45828 20.75H9.70828C9.76353 20.75 9.81652 20.728 9.8556 20.689C9.89468 20.6499 9.91667 20.597 9.91672 20.5417V11.7917C9.9167 11.7364 9.89473 11.6834 9.85565 11.6444C9.81656 11.6053 9.76356 11.5833 9.70828 11.5833H3.45828ZM20.5417 22H14.2917C13.4874 22 12.8333 21.3459 12.8333 20.5417V16.7917C12.8333 15.9874 13.4874 15.3333 14.2917 15.3333H20.5417C21.3459 15.3333 22 15.9874 22 16.7917V20.5417C22 21.3459 21.3459 22 20.5417 22ZM14.2917 16.5833C14.2364 16.5833 14.1834 16.6053 14.1444 16.6444C14.1053 16.6834 14.0833 16.7364 14.0833 16.7917V20.5417C14.0833 20.597 14.1053 20.6499 14.1444 20.689C14.1835 20.728 14.2365 20.75 14.2917 20.75H20.5417C20.5969 20.75 20.6499 20.728 20.6889 20.6889C20.728 20.6499 20.75 20.5969 20.75 20.5417V16.7917C20.75 16.7365 20.728 16.6835 20.689 16.6444C20.6499 16.6053 20.597 16.5833 20.5417 16.5833H14.2917ZM20.5417 13.6667H14.2917C13.4874 13.6667 12.8333 13.0126 12.8333 12.2083V3.45828C12.8333 2.65414 13.4874 2 14.2917 2H20.5417C21.3459 2 22 2.65414 22 3.45828V12.2083C22 13.0126 21.3459 13.6667 20.5417 13.6667ZM14.2917 3.25C14.2365 3.25001 14.1835 3.27195 14.1444 3.31101C14.1053 3.35006 14.0833 3.40303 14.0833 3.45828V12.2083C14.0833 12.2636 14.1053 12.3166 14.1444 12.3556C14.1834 12.3947 14.2364 12.4167 14.2917 12.4167H20.5417C20.597 12.4167 20.6499 12.3947 20.689 12.3556C20.728 12.3165 20.75 12.2635 20.75 12.2083V3.45828C20.75 3.40305 20.728 3.3501 20.6889 3.31105C20.6499 3.272 20.5969 3.25004 20.5417 3.25H14.2917Z" fill="#5B270B"/>
</svg>
