<svg width="24" height="24" viewBox="0 0 24 24" fill="none" xmlns="http://www.w3.org/2000/svg">
<path d="M4.92546 19.0744C6.87545 21.025 9.43794 22 11.9995 22C14.562 22 17.1235 21.025 19.0742 19.0744C22.9748 15.1735 22.9748 8.82633 19.0742 4.92572C15.1735 1.0248 8.82607 1.0248 4.92546 4.92572C1.02485 8.82633 1.02485 15.1735 4.92546 19.0744ZM18.1101 16.3419L7.65795 5.88978C8.92567 4.98664 10.4433 4.5009 11.9998 4.5001C13.9217 4.5001 15.8429 5.23135 17.306 6.69384C19.9298 9.31789 20.1926 13.4135 18.1101 16.3419ZM5.88952 7.65821L16.3417 18.11C13.4129 20.1922 9.31732 19.9297 6.69389 17.306C4.07015 14.6822 3.80702 10.5866 5.88952 7.65821Z" fill="#5B270B"/>
</svg>
