<svg width="24" height="24" viewBox="0 0 24 24" fill="none" xmlns="http://www.w3.org/2000/svg">
<g clip-path="url(#clip0_60_2339)">
<path d="M8.67809 9.52234C7.29026 9.52234 6.16113 10.7663 6.16113 12.2952C6.16113 13.8242 7.29026 15.0681 8.67809 15.0681C10.066 15.0681 11.1951 13.8242 11.1951 12.2952C11.1951 10.7663 10.066 9.52234 8.67809 9.52234ZM8.67809 13.6619C8.06566 13.6619 7.56738 13.0488 7.56738 12.2952C7.56738 11.5417 8.06566 10.9286 8.67809 10.9286C9.29055 10.9286 9.78888 11.5417 9.78888 12.2952C9.78888 13.0488 9.29055 13.6619 8.67809 13.6619ZM15.3224 9.52234C13.9346 9.52234 12.8054 10.7663 12.8054 12.2952C12.8054 13.8242 13.9346 15.0681 15.3224 15.0681C16.7103 15.0681 17.8394 13.8242 17.8394 12.2952C17.8394 10.7663 16.7103 9.52234 15.3224 9.52234ZM15.3224 13.6619C14.71 13.6619 14.2116 13.0488 14.2116 12.2952C14.2116 11.5417 14.71 10.9286 15.3224 10.9286C15.9349 10.9286 16.4331 11.5417 16.4331 12.2952C16.4331 13.0488 15.9349 13.6619 15.3224 13.6619Z" fill="currentColor"/>
<path d="M23.9989 16.9958C23.9823 16.6985 23.5619 9.66653 20.8915 5.46001C20.8369 5.37399 20.7643 5.30086 20.6786 5.2457C17.3767 3.11949 15.1276 3.12559 15.0335 3.12521C14.7608 3.12882 14.5259 3.28745 14.4124 3.51667L13.2781 5.69045C12.8526 5.66253 12.4264 5.64853 12 5.64845C11.5712 5.64845 11.1445 5.66279 10.722 5.69045L9.58895 3.5192C9.47594 3.28867 9.2403 3.12887 8.9665 3.12526C8.87186 3.1247 6.62303 3.11973 3.32153 5.24574C3.23587 5.30092 3.16321 5.37404 3.10858 5.46006C0.438203 9.66653 0.017687 16.6985 0.00109329 16.9958C-0.00405883 17.0881 0.00903384 17.1805 0.0396224 17.2677C0.0702109 17.3549 0.117695 17.4353 0.179359 17.5041C0.303203 17.6423 3.24503 20.8749 7.3113 20.8749C7.32948 20.8749 7.34819 20.8748 7.36642 20.8747C7.47189 20.8739 7.57585 20.8494 7.67058 20.803C7.76531 20.7567 7.8484 20.6896 7.91369 20.6067L9.7893 18.2265C10.5232 18.31 11.2613 18.3518 12 18.3516C12.7505 18.3516 13.4904 18.3087 14.2107 18.2265L16.0863 20.6067C16.1516 20.6896 16.2347 20.7567 16.3295 20.803C16.4242 20.8494 16.5281 20.8739 16.6336 20.8747C16.6521 20.8748 16.6703 20.8749 16.6887 20.8749C20.7546 20.8749 23.6969 17.6423 23.8207 17.5041C23.8823 17.4353 23.9298 17.3549 23.9604 17.2677C23.991 17.1805 24.0041 17.0881 23.9989 16.9958ZM16.9747 19.462L15.8021 17.9738C17.5871 17.6066 19.1892 16.9817 20.4398 16.1427C20.7623 15.9264 20.8483 15.4896 20.632 15.1671C20.4157 14.8446 19.9787 14.7585 19.6563 14.9749C17.7899 16.2272 14.9992 16.9453 12 16.9453C9.00095 16.9453 6.2103 16.2272 4.34369 14.9751C4.02114 14.7587 3.58441 14.8449 3.36808 15.1673C3.15175 15.4898 3.23781 15.9266 3.56031 16.1429C4.81094 16.9818 6.41303 17.6067 8.19798 17.9739L7.02541 19.4619C4.2723 19.3342 2.08136 17.4089 1.42712 16.77C1.53634 15.4076 2.10306 9.78854 4.21445 6.34412C6.28778 5.03537 7.85242 4.67139 8.55123 4.57023L9.21836 5.84856C7.64987 6.07759 6.18039 6.49848 4.92869 7.08779C4.57736 7.25317 4.42666 7.67209 4.59203 8.02346C4.75745 8.37475 5.17637 8.5254 5.52766 8.36012C7.31575 7.51829 9.61436 7.0547 12 7.0547C14.3858 7.0547 16.6845 7.51839 18.4725 8.36031C18.566 8.4045 18.6681 8.42744 18.7715 8.42748C19.0353 8.42748 19.2883 8.27818 19.4081 8.0237C19.5735 7.67242 19.4228 7.25345 19.0715 7.08803C17.8197 6.49867 16.3503 6.07768 14.7816 5.84865L15.4487 4.57032C16.1475 4.67148 17.7122 5.03546 19.7856 6.34421C21.8946 9.78503 22.4632 15.4099 22.5729 16.7713C21.9203 17.4115 19.7391 19.3352 16.9747 19.462Z" fill="currentColor"/>
</g>
<defs>
<clipPath id="clip0_60_2339">
<rect width="24" height="24" fill="white"/>
</clipPath>
</defs>
</svg>
