<svg width="24" height="24" viewBox="0 0 24 24" fill="none" xmlns="http://www.w3.org/2000/svg">
<path d="M4.92564 7.75701C4.63037 7.58624 4.25298 7.68763 4.08263 7.98311C3.91208 8.27875 4.01334 8.65663 4.30844 8.82719C4.60354 8.99796 4.9811 8.89657 5.15145 8.60109C5.322 8.30545 5.22074 7.92757 4.92564 7.75701ZM20.6641 6.43832H20.0469V5.82034C20.0469 5.4788 19.7709 5.20236 19.4297 5.20236C19.0886 5.20236 18.8125 5.4788 18.8125 5.82034V6.43832H18.1953C17.8542 6.43832 17.5781 6.71476 17.5781 7.0563C17.5781 7.39796 17.8542 7.67428 18.1953 7.67428H18.8125V8.29226C18.8125 8.63376 19.0886 8.91025 19.4297 8.91025C19.7709 8.91025 20.0469 8.63376 20.0469 8.29226V7.67428H20.6641C21.0052 7.67428 21.2812 7.39796 21.2812 7.0563C21.2812 6.71476 21.0052 6.43832 20.6641 6.43832ZM4.00001 4.54318C4.00001 4.88484 4.27598 5.16116 4.6172 5.16116C4.95831 5.16116 5.2344 4.88484 5.2344 4.54318V3.92519H5.85159C6.19269 3.92519 6.46878 3.64887 6.46878 3.30721C6.46878 2.96567 6.19269 2.68923 5.85159 2.68923H5.2344V2.07125C5.2344 1.72971 4.95831 1.45327 4.6172 1.45327C4.27598 1.45327 4.00001 1.72971 4.00001 2.07125V2.68923H3.38282C3.04172 2.68923 2.76562 2.96567 2.76562 3.30721C2.76562 3.64887 3.04172 3.92519 3.38282 3.92519H4.00001V4.54318ZM7.89845 2.60844C8.48589 3.78516 8.81218 5.08424 8.89431 6.39708H15.1527C15.2347 5.0844 15.561 3.78516 16.1484 2.60844L16.2786 2.34773C16.3366 2.23173 16.3566 2.10041 16.3358 1.97239C16.315 1.84436 16.2545 1.72613 16.1629 1.63446C15.9755 1.44618 15.6886 1.39967 15.4505 1.51861L13.3796 2.55534L12.4598 1.63446C12.2186 1.39308 11.8281 1.39308 11.587 1.63446L10.6673 2.55534L8.59633 1.51844C8.35768 1.39967 8.07266 1.44552 7.88401 1.63446C7.79235 1.72612 7.73185 1.84435 7.71108 1.97238C7.6903 2.10041 7.71031 2.23173 7.76826 2.34773L7.89845 2.60844ZM15.8022 7.67428H8.24449L5.83472 10.5946C4.6516 12.0291 4.00001 13.8861 4.00001 15.7492C4.00001 19.8788 7.14934 22.5469 12.0234 22.5469C16.8976 22.5469 20.0469 19.8788 20.0469 15.7492C20.0469 13.8861 19.3953 12.0703 18.2115 10.6358L15.8022 7.67428ZM12.0168 14.0763C13.0379 14.0763 13.8684 14.9079 13.8684 15.9303C13.8684 16.7324 13.354 17.4104 12.6405 17.6682V18.2212C12.6405 18.5627 12.3646 18.8391 12.0234 18.8391C11.6823 18.8391 11.4063 18.5627 11.4063 18.2212V17.6724C10.6859 17.4183 10.1652 16.7372 10.1652 15.9303C10.1652 15.5886 10.4413 15.3123 10.7824 15.3123C11.1236 15.3123 11.3996 15.5886 11.3996 15.9303C11.3996 16.2713 11.6763 16.5483 12.0168 16.5483C12.3573 16.5483 12.634 16.2713 12.634 15.9303C12.634 15.5893 12.3573 15.3123 12.0168 15.3123C10.9958 15.3123 10.1652 14.4806 10.1652 13.4583C10.1652 12.6513 10.6859 11.9704 11.4063 11.7163V10.8053C11.4063 10.4639 11.6823 10.1874 12.0234 10.1874C12.3646 10.1874 12.6405 10.4639 12.6405 10.8053V11.7205C13.354 11.9783 13.8684 12.6563 13.8684 13.4583C13.8684 13.8 13.5924 14.0763 13.2512 14.0763C12.9101 14.0763 12.634 13.8 12.634 13.4583C12.634 13.1175 12.3573 12.8404 12.0168 12.8404C11.6763 12.8404 11.3996 13.1175 11.3996 13.4583C11.3996 13.7994 11.6762 14.0763 12.0168 14.0763Z" fill="#5B270B"/>
</svg>
