<svg width="24" height="24" viewBox="0 0 24 24" fill="none" xmlns="http://www.w3.org/2000/svg">
<path d="M3.29537 16.7812H20.6906C21.3457 16.7812 21.8768 16.1393 21.8768 15.3466C21.8768 14.5539 21.3459 13.9121 20.6906 13.9121H3.29537C2.64022 13.9123 2.10938 14.5541 2.10938 15.3466C2.10938 16.1391 2.64022 16.7812 3.29537 16.7812ZM3.29537 10.0876H20.6906C20.8475 10.0898 21.0033 10.0543 21.1488 9.98326C21.2943 9.91217 21.4267 9.80687 21.5383 9.67346C21.6499 9.54004 21.7385 9.38117 21.799 9.20604C21.8595 9.03091 21.8906 8.84301 21.8906 8.65322C21.8906 8.46343 21.8595 8.27553 21.799 8.1004C21.7385 7.92527 21.6499 7.7664 21.5383 7.63298C21.4267 7.49957 21.2943 7.39427 21.1488 7.32318C21.0033 7.25209 20.8475 7.21663 20.6906 7.21885H3.29537C3.13962 7.21882 2.98538 7.2559 2.84148 7.32797C2.69758 7.40004 2.56683 7.50569 2.4567 7.63888C2.34656 7.77207 2.2592 7.93019 2.19961 8.10422C2.14002 8.27824 2.10935 8.46476 2.10938 8.65312C2.10935 8.84149 2.14001 9.02802 2.19961 9.20205C2.2592 9.37609 2.34656 9.53422 2.45669 9.66743C2.56682 9.80064 2.69757 9.9063 2.84147 9.97839C2.98537 10.0505 3.13961 10.0876 3.29537 10.0876Z" fill="#5B270B"/>
</svg>
