<svg width="18" height="18" viewBox="0 0 18 18" fill="none" xmlns="http://www.w3.org/2000/svg">
<path d="M11.4454 16.6875H6.55535C2.87285 16.6875 1.29785 15.1125 1.29785 11.43V11.3325C1.29785 8.0025 2.61035 6.3975 5.55035 6.12C5.85035 6.0975 6.13535 6.3225 6.16535 6.63C6.19535 6.9375 5.97035 7.215 5.65535 7.245C3.30035 7.4625 2.42285 8.5725 2.42285 11.34V11.4375C2.42285 14.49 3.50285 15.57 6.55535 15.57H11.4454C14.4979 15.57 15.5779 14.49 15.5779 11.4375V11.34C15.5779 8.5575 14.6854 7.4475 12.2854 7.245C11.9779 7.215 11.7454 6.945 11.7754 6.6375C11.8054 6.33 12.0679 6.0975 12.3829 6.1275C15.3679 6.3825 16.7029 7.995 16.7029 11.3475V11.445C16.7029 15.1125 15.1279 16.6875 11.4454 16.6875Z" fill="#5B270B"/>
<path d="M9 11.8125C8.6925 11.8125 8.4375 11.5575 8.4375 11.25V2.715C8.4375 2.4075 8.6925 2.1525 9 2.1525C9.3075 2.1525 9.5625 2.4075 9.5625 2.715V11.25C9.5625 11.5575 9.3075 11.8125 9 11.8125Z" fill="#5B270B"/>
<path d="M11.5124 4.95C11.3699 4.95 11.2274 4.8975 11.1149 4.785L8.99988 2.67L6.88488 4.785C6.66738 5.0025 6.30738 5.0025 6.08988 4.785C5.87238 4.5675 5.87238 4.2075 6.08988 3.99L8.60238 1.4775C8.81988 1.26 9.17988 1.26 9.39738 1.4775L11.9099 3.99C12.1274 4.2075 12.1274 4.5675 11.9099 4.785C11.8049 4.8975 11.6549 4.95 11.5124 4.95Z" fill="#5B270B"/>
</svg>
