<svg width="150" height="150" viewBox="0 0 150 150" fill="none" xmlns="http://www.w3.org/2000/svg">
<g clip-path="url(#clip0_910_2854)">
<path d="M134.14 108.789C132.461 108.462 130.725 108.599 129.119 109.186C127.512 109.772 126.095 110.785 125.021 112.116C123.948 113.448 123.257 115.046 123.024 116.741C122.791 118.435 123.024 120.161 123.699 121.733C127.687 130.707 116.55 138.815 108.648 132.72C107.302 131.663 105.703 130.976 104.009 130.727C102.316 130.478 100.587 130.676 98.9935 131.302C97.4003 131.928 95.9982 132.959 94.9262 134.293C93.8543 135.627 93.1497 137.219 92.8823 138.909C91.6783 148.58 77.8315 150.198 74.0688 141.167C73.3929 139.581 72.315 138.198 70.9414 137.156C69.5679 136.113 67.9462 135.447 66.2365 135.223C64.5269 134.999 62.7883 135.225 61.1925 135.878C59.5966 136.531 58.1987 137.589 57.1367 138.947C51.0599 146.755 38.1727 141.543 39.7154 131.911C39.9276 130.226 39.6904 128.514 39.0279 126.95C38.3654 125.386 37.3012 124.025 35.9431 123.005C34.5849 121.985 32.9812 121.342 31.2946 121.142C29.6079 120.942 27.8983 121.191 26.339 121.864C17.0263 125.627 8.57906 114.979 14.938 107.378H15.0509C16.0903 106.052 16.7544 104.471 16.974 102.801C17.1936 101.131 16.9606 99.4319 16.2992 97.8823C15.6379 96.3328 14.5725 94.9893 13.2145 93.9923C11.8564 92.9952 10.2555 92.3812 8.57906 92.2144C6.4577 92.0455 4.45855 91.1537 2.91565 89.688C1.37276 88.2224 0.379581 86.2716 0.102079 84.1617C-0.175424 82.0518 0.279558 79.9106 1.391 78.0958C2.50244 76.2811 4.20301 74.9027 6.20856 74.191C7.81045 73.6371 9.22861 72.6522 10.3071 71.3446C11.3857 70.037 12.0828 68.4574 12.322 66.7794C12.5612 65.1014 12.3331 63.3899 11.6628 61.8331C10.9925 60.2763 9.90596 58.9344 8.52262 57.955C0.413999 52.104 5.83229 39.7247 15.8599 41.211C17.5415 41.5461 19.2827 41.4152 20.8953 40.8325C22.5079 40.2497 23.9305 39.2373 25.0094 37.9046C26.0884 36.572 26.7825 34.9698 27.0168 33.2712C27.2512 31.5726 27.0168 29.8423 26.339 28.2673C22.3693 19.3121 33.4881 11.1846 41.3898 17.2802C42.7347 18.3371 44.3323 19.0245 46.0245 19.2742C47.7166 19.5239 49.4447 19.3273 51.0375 18.7038C52.6303 18.0804 54.0327 17.0517 55.1058 15.7197C56.1789 14.3876 56.8854 12.7984 57.1555 11.1094C58.3784 1.42043 72.2063 -0.178715 75.969 8.83295C76.6449 10.4192 77.7229 11.8018 79.0964 12.8442C80.47 13.8866 82.0916 14.5528 83.8013 14.7769C85.511 15.0011 87.2495 14.7755 88.8454 14.1224C90.4412 13.4693 91.8391 12.4114 92.9011 11.0529C98.7898 3.26416 111.658 8.49431 110.115 18.108C109.9 19.8012 110.138 21.5214 110.805 23.0925C111.472 24.6635 112.545 26.029 113.914 27.0492C115.282 28.0694 116.897 28.7076 118.593 28.8985C120.29 29.0893 122.006 28.8261 123.567 28.1356C132.88 24.3729 141.327 35.0213 134.987 42.622C133.909 43.9335 133.212 45.5151 132.969 47.1952C132.727 48.8752 132.949 50.5895 133.612 52.1521C134.275 53.7147 135.354 55.0659 136.73 56.059C138.107 57.0521 139.729 57.6493 141.421 57.7857C143.55 57.9486 145.557 58.8393 147.107 60.3081C148.656 61.7769 149.652 63.7343 149.928 65.8512C150.204 67.9681 149.743 70.1154 148.622 71.9323C147.501 73.7491 145.789 75.1247 143.773 75.8278C142.171 76.3785 140.751 77.3609 139.672 78.6668C138.592 79.9727 137.895 81.5513 137.655 83.2286C137.416 84.9059 137.644 86.6167 138.316 88.1724C138.987 89.7281 140.074 91.0682 141.459 92.045C149.567 97.896 144.149 110.275 134.14 108.789Z" fill="#F03727"/>
<path d="M83.2875 74.9247L107.914 49.5453L99.4671 41.3427L74.9155 66.628L66.7316 75.1129L42.0671 100.455L50.5144 108.657L75.0848 83.372L83.2875 74.9247Z" fill="white"/>
<path d="M75.0847 83.372L100.125 108.168L108.422 99.815L83.2874 74.9247L74.9154 66.628L49.8558 41.8318L41.5779 50.185L66.7127 75.0941L75.0847 83.372Z" fill="white"/>
</g>
<defs>
<clipPath id="clip0_910_2854">
<rect width="150" height="150" fill="white"/>
</clipPath>
</defs>
</svg>
