<svg width="50" height="50" viewBox="0 0 50 50" fill="none" xmlns="http://www.w3.org/2000/svg">
<g clip-path="url(#clip0_35_1323)">
<path opacity="0.1" d="M31.785 50C31.3848 50.0002 30.9854 49.9654 30.5912 49.8958L9.58292 46.1896C7.74562 45.849 6.11871 44.7928 5.05968 43.2533C4.00064 41.7138 3.59612 39.8168 3.935 37.9792L6.22667 24.9417C6.26532 24.7214 6.31963 24.5042 6.38917 24.2917C5.42582 23.5816 4.67706 22.6195 4.22532 21.5112C3.77357 20.403 3.63635 19.1916 3.82875 18.0104L4.37458 14.9417C4.68178 13.4076 5.51972 12.0308 6.74121 11.0531C7.9627 10.0755 9.48962 9.55951 11.0538 9.59584C11.4833 9.59553 11.9121 9.63317 12.335 9.70834L12.7079 9.77501C12.7658 8.53693 13.1039 7.32815 13.6969 6.23975C14.2898 5.15134 15.122 4.21172 16.1308 3.49167C17.074 2.78091 18.1648 2.29115 19.3227 2.05856C20.4806 1.82598 21.6759 1.85652 22.8204 2.14792C24.6973 2.67388 26.3872 3.71963 27.6954 5.16459C29.1715 4.40217 30.8031 3.98945 32.4642 3.95834C32.7413 3.95834 33.0183 3.97292 33.2975 4.00001C34.4731 4.12082 35.6068 4.50261 36.616 5.1175C37.6252 5.73239 38.4844 6.56487 39.1308 7.55417C39.8337 8.57364 40.2959 9.73943 40.4825 10.9636C40.669 12.1877 40.5752 13.4383 40.2079 14.6208L40.4829 14.6688C42.2494 14.9305 43.8403 15.8812 44.9077 17.3128C45.9751 18.7445 46.4321 20.5406 46.1787 22.3083L45.6371 25.3792C45.4142 26.5564 44.87 27.649 44.0648 28.5362C43.2596 29.4234 42.2247 30.0706 41.0746 30.4063C41.0682 30.6285 41.0452 30.8499 41.0058 31.0688L38.7142 44.1104C38.4398 45.7519 37.5938 47.2435 36.3257 48.3213C35.0577 49.3991 33.4492 49.9938 31.785 50Z" fill="#111827"/>
<path d="M31.7841 48.0959C31.3839 48.0961 30.9845 48.0612 30.5904 47.9917L9.58203 44.2854C7.74626 43.9429 6.12141 42.886 5.06409 41.3467C4.00677 39.8074 3.60338 37.9114 3.94244 36.075L6.23411 23.0375C6.27277 22.8173 6.32707 22.6001 6.39661 22.3875C5.43175 21.6784 4.68136 20.7168 4.22811 19.6085C3.77487 18.5002 3.63636 17.2883 3.82786 16.1063L4.37369 13.0375C4.68089 11.5034 5.51883 10.1266 6.74032 9.14898C7.96181 8.17133 9.48873 7.65535 11.0529 7.69169C11.4824 7.69236 11.911 7.73 12.3341 7.80419L12.707 7.87085C12.7648 6.63304 13.1029 5.4245 13.6958 4.33641C14.2888 3.24833 15.1211 2.3091 16.1299 1.5896C17.0727 0.878082 18.1635 0.387692 19.3214 0.15473C20.4794 -0.0782315 21.6749 -0.0478004 22.8195 0.243771C24.6964 0.769722 26.3864 1.81548 27.6945 3.26044C29.1702 2.49657 30.8019 2.08242 32.4633 2.05002C32.7404 2.05002 33.0174 2.0646 33.2966 2.09169C34.4722 2.2125 35.606 2.59429 36.6152 3.20918C37.6244 3.82407 38.4835 4.65655 39.1299 5.64585C39.8322 6.66482 40.294 7.82989 40.4806 9.05326C40.6671 10.2766 40.5736 11.5264 40.207 12.7084L40.482 12.7584C42.2486 13.0191 43.8399 13.9692 44.9074 15.4007C45.975 16.8321 46.4318 18.6283 46.1779 20.3959L45.6362 23.4667C45.4133 24.6439 44.8691 25.7365 44.0639 26.6237C43.2587 27.5109 42.2238 28.1581 41.0737 28.4938C41.0673 28.716 41.0443 28.9375 41.0049 29.1563L38.7133 42.1979C38.4407 43.841 37.5955 45.3345 36.3272 46.414C35.059 47.4935 33.4496 48.0893 31.7841 48.0959Z" fill="#FEFEFD"/>
<path d="M37.2461 28.5085L34.9544 41.546C34.8885 41.9665 34.7402 42.37 34.5182 42.7332C34.2962 43.0963 34.0047 43.4122 33.6604 43.6626C33.3162 43.913 32.9259 44.093 32.512 44.1924C32.0981 44.2918 31.6686 44.3086 31.2482 44.2418L10.2336 40.5356C9.39246 40.3689 8.6517 39.8755 8.1737 39.1636C7.69571 38.4517 7.51946 37.5793 7.68361 36.7377L9.97527 23.7002C9.99563 23.5839 10.0388 23.4728 10.1022 23.3732C10.1657 23.2737 10.2481 23.1876 10.3449 23.1201C10.4417 23.0525 10.5509 23.0047 10.6663 22.9795C10.7816 22.9543 10.9008 22.9521 11.0169 22.9731L36.519 27.4689C36.6351 27.4893 36.746 27.5324 36.8454 27.5957C36.9448 27.659 37.0307 27.7413 37.0983 27.8378C37.1658 27.9344 37.2136 28.0434 37.239 28.1584C37.2644 28.2735 37.2668 28.3925 37.2461 28.5085ZM42.4169 19.746L41.8732 22.8148C41.682 23.5652 41.2036 24.2105 40.5411 24.6115C39.8786 25.0125 39.0851 25.1371 38.3315 24.9585L10.1836 20.0002C9.41171 19.9131 8.70525 19.5253 8.21738 18.9208C7.72951 18.3163 7.49955 17.5439 7.57736 16.771L8.12319 13.6981C8.31387 12.9473 8.79218 12.3017 9.45483 11.9006C10.1175 11.4995 10.9113 11.3751 11.6649 11.5543L18.0774 12.6856C17.3932 11.7124 16.8985 10.619 16.619 9.46267C16.3895 8.58096 16.4338 7.65028 16.746 6.79436C17.0583 5.93844 17.6236 5.19783 18.3669 4.671C18.8592 4.28943 19.432 4.02537 20.0419 3.899C20.6517 3.77262 21.2824 3.78728 21.8857 3.94184C23.9929 4.77645 25.7348 6.33302 26.8003 8.3335C28.4829 6.81644 30.6503 5.94728 32.9149 5.88142C33.5344 5.94322 34.1318 6.14553 34.6614 6.47297C35.191 6.80042 35.6389 7.24435 35.9711 7.771C36.4891 8.52125 36.7666 9.41138 36.7666 10.3231C36.7666 11.2348 36.4891 12.1249 35.9711 12.8752C35.3125 13.8651 34.4736 14.7224 33.4982 15.4023L39.8128 16.5168C40.5847 16.6034 41.2913 16.9912 41.779 17.5958C42.2666 18.2005 42.4959 18.9732 42.4169 19.746ZM27.1503 14.2835L28.9169 14.596C30.9162 14.1053 32.6658 12.8976 33.8336 11.2023C34.0096 10.929 34.0975 10.6083 34.0856 10.2834C34.0737 9.95862 33.9625 9.64526 33.7669 9.38559C33.648 9.1819 33.4826 9.00927 33.2842 8.88181C33.0857 8.75435 32.86 8.67568 32.6253 8.65225C30.7595 8.89984 29.0291 9.76102 27.7065 11.1002L27.1503 14.2835ZM22.7065 13.5002L24.4357 13.8043L24.9982 10.6252C24.1649 9.09392 22.6128 6.99809 21.219 6.64392L21.0961 6.61892C20.8842 6.58301 20.6669 6.59347 20.4594 6.64958C20.2519 6.70569 20.059 6.8061 19.894 6.94392C19.6222 7.12095 19.411 7.37691 19.2888 7.67744C19.1667 7.97798 19.1394 8.30869 19.2107 8.62517C19.7287 10.6286 20.9752 12.3668 22.7065 13.5002Z" fill="#D95C19"/>
</g>
<defs>
<clipPath id="clip0_35_1323">
<rect width="50" height="50" fill="white"/>
</clipPath>
</defs>
</svg>
