<svg width="50" height="50" viewBox="0 0 50 50" fill="none" xmlns="http://www.w3.org/2000/svg">
<path d="M6.22368 40.3313H43.7749C44.6227 40.3313 45.4357 39.9947 46.0351 39.3954C46.6345 38.7962 46.9713 37.9834 46.9713 37.1359V12.7657C46.9713 11.9182 46.6345 11.1055 46.0351 10.5062C45.4357 9.90697 44.6227 9.57031 43.7749 9.57031H6.22368C5.80387 9.57031 5.38818 9.65299 5.00034 9.81361C4.61249 9.97424 4.2601 10.2097 3.96329 10.5065C3.66647 10.8033 3.43104 11.1556 3.27045 11.5434C3.10986 11.9311 3.02725 12.3467 3.02734 12.7664V37.1366C3.02734 37.9841 3.3641 38.7969 3.96353 39.3961C4.56296 39.9954 5.37596 40.332 6.22368 40.332V40.3313Z" fill="#D95C19"/>
<path d="M14.0898 9.57373H15.8463V40.3279H14.0898V9.57373Z" fill="#FEFEFD"/>
<path d="M3.02734 21.1458H46.9727V22.9017H3.02734V21.1458Z" fill="#FEFEFD"/>
<path d="M14.9664 22.9052H9.96077C9.00964 22.9043 8.09772 22.5262 7.42511 21.8539C6.7525 21.1816 6.37414 20.27 6.37305 19.3192C6.37305 17.695 7.37967 16.3462 8.93629 15.8821C10.4929 15.4188 12.0736 15.9975 12.9628 17.3566L15.7025 21.5453C15.7891 21.6779 15.8383 21.8314 15.8448 21.9896C15.8514 22.1479 15.815 22.3049 15.7396 22.4442C15.6641 22.5834 15.5525 22.6997 15.4164 22.7807C15.2803 22.8618 15.1248 22.9045 14.9664 22.9045V22.9052ZM9.99098 17.4857C9.79666 17.4857 9.60852 17.5159 9.43823 17.5667C8.80652 17.7548 8.13155 18.3135 8.13155 19.3192C8.13227 19.8038 8.32515 20.2683 8.66791 20.611C9.01067 20.9536 9.47535 21.1465 9.96008 21.1472H13.3418L11.4913 18.3183C11.0896 17.704 10.517 17.4857 9.99098 17.4857Z" fill="#FEFEFD"/>
<path d="M19.9727 22.9052H14.967C14.8086 22.9052 14.6532 22.8625 14.5171 22.7814C14.381 22.7004 14.2693 22.5841 14.1939 22.4449C14.1185 22.3056 14.0821 22.1486 14.0886 21.9903C14.0952 21.8321 14.1443 21.6786 14.231 21.546L16.9707 17.3566C17.8592 15.9975 19.4392 15.4188 20.9965 15.8821C22.5538 16.3462 23.5597 17.6944 23.5597 19.3192C23.5586 20.2699 23.1804 21.1814 22.5079 21.8537C21.8354 22.5259 20.9237 22.9041 19.9727 22.9052ZM16.591 21.1479H19.9727C20.4577 21.1473 20.9226 20.9545 21.2655 20.6117C21.6085 20.2688 21.8014 19.804 21.8019 19.3192C21.8019 18.3135 21.1269 17.7541 20.4945 17.5667C19.8628 17.3786 18.9915 17.4774 18.4415 18.3183L16.591 21.1479Z" fill="#FEFEFD"/>
<path d="M10.047 27.1179C9.86738 27.118 9.69208 27.063 9.54468 26.9604C9.39728 26.8578 9.28486 26.7125 9.22255 26.5441C9.16025 26.3757 9.15104 26.1923 9.19618 26.0185C9.24131 25.8447 9.33862 25.6889 9.47501 25.5721L14.3962 21.3587C14.4836 21.2815 14.5854 21.2224 14.6959 21.185C14.8063 21.1475 14.9231 21.1324 15.0394 21.1406C15.1557 21.1487 15.2693 21.1799 15.3734 21.2323C15.4776 21.2847 15.5702 21.3573 15.646 21.4459C15.7218 21.5345 15.7792 21.6372 15.8149 21.7482C15.8506 21.8592 15.8638 21.9762 15.8539 22.0923C15.8439 22.2084 15.8109 22.3214 15.7568 22.4247C15.7027 22.528 15.6286 22.6194 15.5388 22.6938L10.6183 26.9065C10.4593 27.0431 10.2566 27.1182 10.047 27.1179Z" fill="#FEFEFD"/>
<path d="M19.8863 27.1179C19.6837 27.1179 19.4811 27.0486 19.315 26.9065L14.3945 22.6938C14.3047 22.6194 14.2306 22.528 14.1765 22.4247C14.1224 22.3214 14.0894 22.2084 14.0794 22.0923C14.0694 21.9762 14.0827 21.8592 14.1183 21.7482C14.154 21.6372 14.2114 21.5345 14.2872 21.4459C14.363 21.3573 14.4557 21.2847 14.5599 21.2323C14.664 21.1799 14.7775 21.1487 14.8939 21.1406C15.0102 21.1324 15.127 21.1475 15.2374 21.185C15.3478 21.2224 15.4497 21.2815 15.5371 21.3587L20.4582 25.5714C20.5949 25.6881 20.6924 25.844 20.7377 26.0179C20.783 26.1918 20.7739 26.3754 20.7116 26.544C20.6492 26.7125 20.5367 26.8579 20.3891 26.9606C20.2415 27.0632 20.066 27.1181 19.8863 27.1179Z" fill="#FEFEFD"/>
<path d="M41.739 36.0781H36.1703C35.6532 36.0781 35.2344 35.6594 35.2344 35.1425V32.4503C35.2344 31.9334 35.6532 31.5146 36.1703 31.5146H41.739C42.2553 31.5146 42.6749 31.9334 42.6749 32.4503V35.1425C42.6749 35.6587 42.256 36.0781 41.739 36.0781Z" fill="#FEFEFD"/>
</svg>
