<svg width="18" height="18" viewBox="0 0 18 18" fill="none" xmlns="http://www.w3.org/2000/svg">
<g clip-path="url(#clip0_60_2270)">
<path d="M16.2 2.7H7.99199L7.20001 0H1.80001C0.809999 0 0 0.809999 0 1.80001V13.5C0 14.49 0.809999 15.3 1.80001 15.3H8.09999L8.99998 18H16.2C17.19 18 18 17.19 18 16.2V4.50001C18 3.51 17.19 2.7 16.2 2.7ZM4.64851 11.3265C2.619 11.3265 0.971999 9.67498 0.971999 7.64998C0.971999 5.62498 2.62351 3.97347 4.64851 3.97347C5.58452 3.97347 6.43502 4.30645 7.11002 4.93197L7.16854 4.99048L6.07052 6.05247L6.01652 6.00298C5.76002 5.75998 5.31452 5.47648 4.64851 5.47648C3.4695 5.47648 2.511 6.453 2.511 7.65449C2.511 8.85599 3.4695 9.83251 4.64851 9.83251C5.88152 9.83251 6.41701 9.04499 6.561 8.51849H4.57198V7.12348H8.12699L8.14049 7.18647C8.17648 7.37547 8.18998 7.54198 8.18998 7.73098C8.18551 9.85048 6.73198 11.3265 4.64851 11.3265ZM9.60748 8.16749H13.203C13.203 8.16749 12.897 9.35098 11.799 10.629C11.3175 10.0755 10.9845 9.53551 10.773 9.10351H9.88199L9.60748 8.16749ZM11.151 11.3265L10.6695 11.8035L10.08 9.79652C10.3815 10.3365 10.746 10.854 11.151 11.3265ZM17.1 16.2C17.1 16.695 16.695 17.1 16.2 17.1H9.90001L11.7 15.3L10.9665 12.8114L11.7945 11.9834L14.211 14.3999L14.868 13.7429L12.4335 11.3264C13.2435 10.3949 13.8735 9.30145 14.157 8.17197H15.3V7.23599H12.0285V6.29998H11.0925V7.23599H9.32849L8.25748 3.59998H16.2C16.695 3.59998 17.1 4.00498 17.1 4.49997V16.2Z" fill="#5B270B"/>
</g>
<defs>
<clipPath id="clip0_60_2270">
<rect width="18" height="18" fill="white"/>
</clipPath>
</defs>
</svg>
