<svg width="24" height="24" viewBox="0 0 24 24" fill="none" xmlns="http://www.w3.org/2000/svg">
<path d="M21.4577 13.5C18.3527 16.98 15.1877 18.75 12.0152 18.75C11.0618 18.747 10.115 18.5926 9.21018 18.2925L9.08267 18.24L9.00018 18.18C8.90914 18.1154 8.83368 18.0313 8.77928 17.9339C8.72488 17.8364 8.69292 17.728 8.68574 17.6166C8.67855 17.5052 8.69632 17.3937 8.73774 17.29C8.77916 17.1864 8.8432 17.0933 8.92518 17.0175L10.7552 15.1875C10.7866 15.1536 10.8219 15.1234 10.8602 15.0975L10.9802 15.0225L11.0627 14.985C11.141 14.9517 11.2251 14.9339 11.3102 14.9325H11.4677C11.6421 14.9747 11.8207 14.9973 12.0002 15C12.7958 15 13.5589 14.6839 14.1215 14.1213C14.6841 13.5587 15.0002 12.7957 15.0002 12C15.0013 11.8261 14.9837 11.6526 14.9477 11.4825C14.944 11.4376 14.944 11.3924 14.9477 11.3475C14.9491 11.2624 14.9669 11.1784 15.0002 11.1C15.0081 11.0706 15.0207 11.0428 15.0377 11.0175C15.0582 10.9749 15.0833 10.9346 15.1127 10.8975C15.1386 10.8592 15.1688 10.824 15.2027 10.7925L17.8727 8.12252C17.9653 8.03515 18.0785 7.97279 18.2019 7.9413C18.3252 7.90981 18.4545 7.91023 18.5777 7.94252H18.6527L18.7802 8.01752L18.8852 8.07002C19.8058 8.81047 20.666 9.62303 21.4577 10.5C21.8266 10.9125 22.0306 11.4466 22.0306 12C22.0306 12.5535 21.8266 13.0875 21.4577 13.5ZM9.87768 15.1875L7.89768 17.1675L4.28268 20.7825C4.21295 20.8528 4.13 20.9086 4.03861 20.9467C3.94721 20.9848 3.84918 21.0044 3.75018 21.0044C3.65117 21.0044 3.55314 20.9848 3.46174 20.9467C3.37035 20.9086 3.2874 20.8528 3.21768 20.7825C3.14738 20.7128 3.09158 20.6298 3.05351 20.5384C3.01543 20.4471 2.99583 20.349 2.99583 20.25C2.99583 20.151 3.01543 20.053 3.05351 19.9616C3.09158 19.8702 3.14738 19.7872 3.21768 19.7175L6.17268 16.7625C4.83266 15.829 3.61339 14.7332 2.54268 13.5C2.17371 13.0875 1.96973 12.5535 1.96973 12C1.96973 11.4466 2.17371 10.9125 2.54268 10.5C7.14018 5.34002 11.8352 3.97502 16.5002 6.43502L19.7177 3.21752C19.8589 3.07629 20.0504 2.99695 20.2502 2.99695C20.4499 2.99695 20.6414 3.07629 20.7827 3.21752C20.9239 3.35874 21.0032 3.55029 21.0032 3.75002C21.0032 3.94974 20.9239 4.14129 20.7827 4.28252L17.1677 7.89752L15.1877 9.87752L9.87768 15.1875ZM9.41268 13.5L13.5002 9.41252C12.9294 9.09013 12.2687 8.96358 11.6192 9.05222C10.9697 9.14086 10.3671 9.43981 9.90351 9.90335C9.43997 10.3669 9.14102 10.9695 9.05238 11.619C8.96374 12.2685 9.09029 12.9292 9.41268 13.5Z" fill="currentColor"/>
</svg>
