<svg width="16" height="16" viewBox="0 0 16 16" fill="none" xmlns="http://www.w3.org/2000/svg">
<path d="M14.6875 3.32286V5.98928C14.6875 6.16607 14.6172 6.33563 14.4922 6.46064C14.3672 6.58565 14.1976 6.65588 14.0207 6.65588C13.8439 6.65588 13.6743 6.58565 13.5492 6.46064C13.4242 6.33563 13.3539 6.16607 13.3539 5.98928V5.0027L9.18648 9.76226C9.124 9.83337 9.04708 9.89036 8.96086 9.92944C8.87463 9.96852 8.78107 9.98879 8.68639 9.98891C8.59482 9.99125 8.50374 9.9747 8.41885 9.94029C8.33395 9.90588 8.25706 9.85436 8.19297 9.78893L6.69936 8.2824L2.49858 13.0953C2.44212 13.1654 2.37205 13.2233 2.29259 13.2656C2.21314 13.3079 2.12594 13.3336 2.03626 13.3413C1.94658 13.349 1.85627 13.3385 1.77077 13.3103C1.68527 13.2822 1.60636 13.237 1.53879 13.1776C1.47122 13.1181 1.41638 13.0456 1.37759 12.9644C1.3388 12.8832 1.31686 12.795 1.31309 12.7051C1.30931 12.6152 1.32379 12.5254 1.35563 12.4413C1.38748 12.3571 1.43605 12.2803 1.4984 12.2154L6.16593 6.88253C6.22598 6.81374 6.29954 6.75802 6.38202 6.71883C6.46451 6.67963 6.55417 6.65779 6.64545 6.65467C6.73673 6.65154 6.82767 6.6672 6.91265 6.70066C6.99762 6.73412 7.07482 6.78468 7.13944 6.8492L8.68639 8.34239L12.4671 3.98946H11.3536C11.1767 3.98946 11.0071 3.91923 10.8821 3.79422C10.757 3.6692 10.6868 3.49965 10.6868 3.32286C10.6868 3.14606 10.757 2.97651 10.8821 2.85149C11.0071 2.72648 11.1767 2.65625 11.3536 2.65625H14.0207C14.1976 2.65625 14.3672 2.72648 14.4922 2.85149C14.6172 2.97651 14.6875 3.14606 14.6875 3.32286Z" fill="currentColor"/>
</svg>
