<svg width="24" height="24" viewBox="0 0 24 24" fill="none" xmlns="http://www.w3.org/2000/svg">
<g clip-path="url(#clip0_60_2615)">
<path d="M18 12.75C15.105 12.75 12.75 15.105 12.75 18C12.75 20.895 15.105 23.25 18 23.25C20.895 23.25 23.25 20.895 23.25 18C23.25 15.105 20.895 12.75 18 12.75ZM20.415 19.9725C20.265 20.1525 20.0475 20.25 19.8375 20.25C19.6725 20.25 19.5 20.1975 19.365 20.0775L17.5275 18.5775C17.355 18.435 17.25 18.225 17.25 18V15.4125C17.25 15 17.5875 14.6625 18 14.6625C18.4125 14.6625 18.75 15 18.75 15.4125V17.64L20.31 18.915C20.3865 18.9774 20.4499 19.0543 20.4966 19.1413C20.5433 19.2283 20.5724 19.3237 20.5821 19.4219C20.5919 19.5202 20.5821 19.6194 20.5534 19.7139C20.5248 19.8084 20.4777 19.8962 20.415 19.9725ZM7.59 8.37C7.845 8.4975 8.1525 8.4675 8.3775 8.3025L10.5 6.7125L12.6225 8.3025C12.7575 8.4 12.915 8.4525 13.0725 8.4525C13.185 8.4525 13.305 8.43 13.41 8.37C13.5337 8.30767 13.6377 8.21232 13.7105 8.0945C13.7833 7.97668 13.8221 7.841 13.8225 7.7025V0.75H7.1775V7.695C7.1775 7.98 7.335 8.2425 7.59 8.3625V8.37ZM5.6775 0.75H2.25C1.425 0.75 0.75 1.425 0.75 2.25V4.605H5.6775V0.75ZM20.25 2.25C20.25 1.425 19.575 0.75 18.75 0.75H15.3225V4.605H20.25V2.25Z" fill="currentColor"/>
<path d="M17.9997 11.25C18.3297 11.25 18.6447 11.28 18.9672 11.325V6.10498H15.3222V7.69498C15.3222 8.54998 14.8422 9.32248 14.0772 9.70498C13.7697 9.86248 13.4172 9.94498 13.0722 9.94498C12.5847 9.94498 12.1047 9.78748 11.7222 9.49498L10.4997 8.57998L9.27723 9.49498C8.89473 9.78748 8.41473 9.94498 7.92723 9.94498C7.58223 9.94498 7.22973 9.86248 6.92223 9.70498C6.54797 9.5193 6.23308 9.2327 6.01308 8.87753C5.79309 8.52236 5.67676 8.11276 5.67723 7.69498V6.10498H2.03223V17.46C2.03223 18.585 2.94723 19.4925 4.06473 19.4925H11.4147C11.3022 19.0125 11.2422 18.51 11.2422 17.9925C11.2422 14.2725 14.2722 11.2425 17.9922 11.2425L17.9997 11.25ZM8.60223 16.62H5.66223C5.24973 16.62 4.91223 16.2825 4.91223 15.87C4.91223 15.4575 5.24973 15.12 5.66223 15.12H8.60223C9.01473 15.12 9.35223 15.4575 9.35223 15.87C9.35223 16.2825 9.01473 16.62 8.60223 16.62ZM8.60223 13.62H5.66223C5.24973 13.62 4.91223 13.2825 4.91223 12.87C4.91223 12.4575 5.24973 12.12 5.66223 12.12H8.60223C9.01473 12.12 9.35223 12.4575 9.35223 12.87C9.35223 13.2825 9.01473 13.62 8.60223 13.62Z" fill="currentColor"/>
</g>
<defs>
<clipPath id="clip0_60_2615">
<rect width="24" height="24" fill="white"/>
</clipPath>
</defs>
</svg>
