<svg width="24" height="24" viewBox="0 0 24 24" fill="none" xmlns="http://www.w3.org/2000/svg">
<path fill-rule="evenodd" clip-rule="evenodd" d="M21.2 7.14623C21.2 6.51318 20.7224 6 20.1333 6H19.0667C18.4776 6 18 6.51318 18 7.14623V17.0802C18 17.7132 18.4776 18.2264 19.0667 18.2264H20.1333C20.7224 18.2264 21.2 17.7132 21.2 17.0802V7.14623ZM13.7659 8.44528H14.8326C15.4217 8.44528 15.8992 8.97078 15.8992 9.61902V17.0527C15.8992 17.7009 15.4217 18.2264 14.8326 18.2264H13.7659C13.1768 18.2264 12.6992 17.7009 12.6992 17.0527V9.61902C12.6992 8.97078 13.1768 8.44528 13.7659 8.44528ZM9.43411 11.0943H8.36745C7.77834 11.0943 7.30078 11.6265 7.30078 12.283V17.0377C7.30078 17.6942 7.77834 18.2264 8.36745 18.2264H9.43411C10.0232 18.2264 10.5008 17.6942 10.5008 17.0377V12.283C10.5008 11.6265 10.0232 11.0943 9.43411 11.0943ZM4.13333 13.5396H3.06667C2.47756 13.5396 2 14.0642 2 14.7113V17.0547C2 17.7018 2.47756 18.2264 3.06667 18.2264H4.13333C4.72244 18.2264 5.2 17.7018 5.2 17.0547V14.7113C5.2 14.0642 4.72244 13.5396 4.13333 13.5396Z" fill="#5B270B"/>
</svg>
