<svg width="24" height="24" viewBox="0 0 24 24" fill="none" xmlns="http://www.w3.org/2000/svg">
<path d="M9.86998 21.6108C9.86998 22.1269 10.2899 22.5468 10.8061 22.5468H14.9491C15.4653 22.5468 15.8852 22.1269 15.8852 21.6108V20.4441H9.86998V21.6108ZM17.8487 17.0359C18.0978 16.7172 18.2333 16.3245 18.2339 15.9201V14.4573C18.2339 13.6585 17.6983 12.9445 16.9314 12.721L13.4561 11.7082V7.6473C13.4561 6.82483 12.7869 6.15564 11.9644 6.15564C11.1418 6.15564 10.4726 6.82483 10.4726 7.6473V14.1654L9.40233 12.8813C8.9473 12.3355 8.13775 12.2312 7.5592 12.6439C7.03979 13.0144 6.84649 13.6854 7.08916 14.2755C7.09188 14.2822 7.09485 14.2887 7.09807 14.2952L9.53154 19.2069H16.3671L17.8487 17.0359Z" fill="currentColor"/>
<path d="M11.9647 3.67188C9.79581 3.67188 8.03125 5.43624 8.03125 7.60496C8.03125 7.94659 8.30823 8.22355 8.64989 8.22355C8.99154 8.22355 9.26852 7.94659 9.26852 7.60496C9.26852 6.11842 10.478 4.90905 11.9647 4.90905C13.4514 4.90905 14.6609 6.11842 14.6609 7.60496C14.6609 7.94659 14.9378 8.22355 15.2795 8.22355C15.6211 8.22355 15.8981 7.94659 15.8981 7.60496C15.8981 5.43624 14.1336 3.67188 11.9647 3.67188Z" fill="currentColor"/>
<path d="M11.9648 2.6903C14.6751 2.6903 16.88 4.89501 16.88 7.60499C16.88 7.94662 17.1569 8.22358 17.4986 8.22358C17.8403 8.22358 18.1172 7.94662 18.1172 7.60499C18.1172 4.21284 15.3573 1.45312 11.9648 1.45312C8.57245 1.45312 5.8125 4.21284 5.8125 7.60499C5.8125 7.94662 6.08948 8.22358 6.43114 8.22358C6.77279 8.22358 7.04977 7.94662 7.04977 7.60499C7.04977 4.89501 9.25468 2.6903 11.9648 2.6903Z" fill="currentColor"/>
</svg>
