<svg width="24" height="24" viewBox="0 0 24 24" fill="none" xmlns="http://www.w3.org/2000/svg">
<path d="M20.1033 6.20062C20.1445 5.86631 20.1651 5.52979 20.1652 5.19295C20.1652 2.325 17.8402 0 14.9722 0H6.29368C5.74777 0 5.28169 0.394219 5.19113 0.932531L1.99332 19.9392C1.87857 20.6212 2.40432 21.2427 3.09586 21.2427H6.26982C6.81572 21.2427 7.29057 20.8488 7.38108 20.3104L7.39594 20.2221H7.39599L6.95368 22.8511C6.85261 23.4522 7.31597 24 7.92549 24H10.7022C11.1834 24 11.5942 23.6525 11.674 23.178L12.4628 18.4896C12.5988 17.6814 13.2985 17.0896 14.1181 17.0896H14.8475C18.8099 17.0896 22.0219 13.8775 22.0219 9.91519C22.0219 8.38195 21.2641 7.02666 20.1033 6.20062Z" fill="#5B270B"/>
<path d="M20.1029 6.20062C19.6063 10.2403 16.1634 13.3683 11.9895 13.3683H9.56771C9.0211 13.3683 8.54902 13.7324 8.40095 14.2471L6.95335 22.851C6.85224 23.4521 7.3156 24 7.92512 24H10.7019C11.183 24 11.5938 23.6525 11.6736 23.178L12.4625 18.4896C12.5985 17.6814 13.2982 17.0896 14.1177 17.0896H14.8471C18.8095 17.0896 22.0216 13.8775 22.0216 9.91519C22.0216 8.38195 21.2637 7.02665 20.1029 6.20062Z" fill="#5B270B"/>
<path d="M9.56818 13.3683H11.99C16.1639 13.3683 19.6068 10.2403 20.1034 6.20066C19.3586 5.67069 18.4485 5.35794 17.4648 5.35794H11.1437C10.424 5.35794 9.80954 5.87764 9.6901 6.58733L8.40137 14.2471C8.54945 13.7323 9.02157 13.3683 9.56818 13.3683Z" fill="#5B270B"/>
</svg>
