<svg width="24" height="24" viewBox="0 0 24 24" fill="none" xmlns="http://www.w3.org/2000/svg">
<path fill-rule="evenodd" clip-rule="evenodd" d="M12 1.5C10.2098 1.5 8.4929 2.21116 7.22703 3.47703C5.96116 4.7429 5.25 6.45979 5.25 8.25C5.25 10.0402 5.96116 11.7571 7.22703 13.023C8.4929 14.2888 10.2098 15 12 15C13.7902 15 15.5071 14.2888 16.773 13.023C18.0388 11.7571 18.75 10.0402 18.75 8.25C18.75 6.45979 18.0388 4.7429 16.773 3.47703C15.5071 2.21116 13.7902 1.5 12 1.5ZM12 4.125C12.1989 4.125 12.3897 4.20402 12.5303 4.34467C12.671 4.48532 12.75 4.67609 12.75 4.875V7.89L14.3438 9.165C14.4241 9.22534 14.4915 9.3012 14.5419 9.38809C14.5923 9.47497 14.6248 9.5711 14.6374 9.67077C14.65 9.77044 14.6424 9.87163 14.6151 9.96832C14.5878 10.065 14.5414 10.1552 14.4786 10.2336C14.4157 10.312 14.3378 10.377 14.2494 10.4247C14.161 10.4724 14.0639 10.5019 13.9639 10.5113C13.8638 10.5208 13.763 10.51 13.6672 10.4797C13.5714 10.4495 13.4826 10.4002 13.4062 10.335L11.5312 8.835C11.4435 8.76478 11.3727 8.67576 11.3241 8.5745C11.2754 8.47325 11.2501 8.36235 11.25 8.25V4.875C11.25 4.67609 11.329 4.48532 11.4697 4.34467C11.6103 4.20402 11.8011 4.125 12 4.125ZM4.5 16.5C3.70435 16.5 2.94129 16.8161 2.37868 17.3787C1.81607 17.9413 1.5 18.7044 1.5 19.5C1.5 20.2956 1.81607 21.0587 2.37868 21.6213C2.94129 22.1839 3.70435 22.5 4.5 22.5H19.5C20.2956 22.5 21.0587 22.1839 21.6213 21.6213C22.1839 21.0587 22.5 20.2956 22.5 19.5C22.5 18.7044 22.1839 17.9413 21.6213 17.3787C21.0587 16.8161 20.2956 16.5 19.5 16.5H4.5ZM3.75 19.5C3.75 19.3011 3.82902 19.1103 3.96967 18.9697C4.11032 18.829 4.30109 18.75 4.5 18.75H9C9.19891 18.75 9.38968 18.829 9.53033 18.9697C9.67098 19.1103 9.75 19.3011 9.75 19.5C9.75 19.6989 9.67098 19.8897 9.53033 20.0303C9.38968 20.171 9.19891 20.25 9 20.25H4.5C4.30109 20.25 4.11032 20.171 3.96967 20.0303C3.82902 19.8897 3.75 19.6989 3.75 19.5Z" fill="#5B270B"/>
</svg>
