<svg width="24" height="24" viewBox="0 0 24 24" fill="none" xmlns="http://www.w3.org/2000/svg">
<g clip-path="url(#clip0_60_2538)">
<path d="M17.6735 0.780392C17.0005 0.43801 16.1773 0.706282 15.835 1.37956L5.66562 21.3812C5.32333 22.0544 5.5916 22.8774 6.26478 23.2197C6.45634 23.3174 6.66832 23.3684 6.88337 23.3685C7.38163 23.3685 7.86193 23.0952 8.10331 22.6205L18.2727 2.61892C18.615 1.94573 18.3467 1.12268 17.6735 0.780392ZM10.3715 7.36705C10.3715 4.50758 8.04515 2.18119 5.18568 2.18119C2.32639 2.18119 0 4.50758 0 7.36705C0 10.2264 2.32639 12.5528 5.18577 12.5528C8.04524 12.5528 10.3715 10.2264 10.3715 7.36705ZM5.18577 9.81814C3.83429 9.81814 2.73468 8.71853 2.73468 7.36705C2.73468 6.01548 3.83429 4.91586 5.18577 4.91586C6.53734 4.91586 7.63696 6.01539 7.63696 7.36705C7.63686 8.71853 6.53734 9.81814 5.18577 9.81814ZM18.8142 11.4474C15.9548 11.4474 13.6284 13.7738 13.6284 16.6331C13.6284 19.4925 15.9547 21.8189 18.8142 21.8189C21.6736 21.8189 24 19.4926 24 16.6331C24 13.7737 21.6737 11.4474 18.8142 11.4474ZM18.8142 19.0841C17.4627 19.0841 16.363 17.9845 16.363 16.6331C16.363 15.2816 17.4627 14.182 18.8142 14.182C20.1657 14.182 21.2653 15.2816 21.2653 16.6331C21.2653 17.9845 20.1658 19.0841 18.8142 19.0841Z" fill="#5B270B"/>
</g>
<defs>
<clipPath id="clip0_60_2538">
<rect width="24" height="24" fill="white"/>
</clipPath>
</defs>
</svg>
