<svg xmlns="http://www.w3.org/2000/svg" viewBox="0 0 24 24" width="24" height="24">
  <defs>
    <linearGradient id="SVGID_1_" x1="12" y1="0" x2="12" y2="24" gradientUnits="userSpaceOnUse">
      <stop offset="0" stop-color="#534BB1"/>
      <stop offset="1" stop-color="#551BF9"/>
    </linearGradient>
    <linearGradient id="SVGID_2_" x1="12" y1="6" x2="12" y2="18" gradientUnits="userSpaceOnUse">
      <stop offset="0" stop-color="#FFFFFF"/>
      <stop offset="1" stop-color="#FFFFFF" stop-opacity="0.82"/>
    </linearGradient>
  </defs>

  <!-- Background circle -->
  <circle cx="12" cy="12" r="12" fill="url(#SVGID_1_)" />

  <!-- Face / Eyes Path (scaled down) -->
  <path fill="url(#SVGID_2_)" d="M17,12.2h-1.5c0-3.1-2.5-5.6-5.6-5.6c-3.1,0-5.6,2.5-5.6,5.6c0,3.2,2.9,6,6.1,6h0.4
    c2.8,0,6.6-2.2,7.2-4.8c0.1-0.4-0.2-0.8-0.6-0.9C17.1,12.2,17,12.2,17,12.2z
    M9.2,12.3c0,0.4-0.3,0.7-0.8,0.7S7.6,12.7,7.6,12.3v-1.2c0-0.4,0.3-0.7,0.8-0.7s0.8,0.3,0.8,0.7V12.3z
    M11.9,12.3c0,0.4-0.3,0.7-0.8,0.7s-0.8-0.3-0.8-0.7v-1.2c0-0.4,0.3-0.7,0.8-0.7s0.8,0.3,0.8,0.7V12.3z"/>
</svg>