<svg width="24" height="24" viewBox="0 0 24 24" fill="none" xmlns="http://www.w3.org/2000/svg">
<path d="M22.125 19.6541H21.1661V7.01661C21.1661 6.91715 21.1266 6.82177 21.0563 6.75145C20.986 6.68112 20.8906 6.64161 20.7911 6.64161H18.2902C18.1908 6.64161 18.0954 6.68112 18.0251 6.75145C17.9548 6.82177 17.9152 6.91715 17.9152 7.01661V19.6541H16.1389V10.137C16.1389 10.0375 16.0994 9.94215 16.029 9.87182C15.9587 9.80149 15.8633 9.76198 15.7639 9.76198H13.2638C13.1643 9.76198 13.0689 9.80149 12.9986 9.87182C12.9283 9.94215 12.8888 10.0375 12.8888 10.137V19.6545H11.1112V12.4811C11.1112 12.3817 11.0717 12.2863 11.0014 12.2159C10.9311 12.1456 10.8357 12.1061 10.7362 12.1061H8.23575C8.13629 12.1061 8.04091 12.1456 7.97058 12.2159C7.90026 12.2863 7.86075 12.3817 7.86075 12.4811V19.6537H6.08438V15.0037C6.08438 14.9043 6.04487 14.8089 5.97454 14.7386C5.90421 14.6682 5.80883 14.6287 5.70938 14.6287H3.20888C3.10942 14.6287 3.01404 14.6682 2.94371 14.7386C2.87338 14.8089 2.83388 14.9043 2.83388 15.0037V19.6537H1.875C1.77554 19.6537 1.68016 19.6932 1.60984 19.7636C1.53951 19.8339 1.5 19.9293 1.5 20.0287C1.5 20.1282 1.53951 20.2236 1.60984 20.2939C1.68016 20.3642 1.77554 20.4037 1.875 20.4037C2.69138 20.403 22.125 20.4037 22.125 20.4037C22.2245 20.4037 22.3198 20.3642 22.3902 20.2939C22.4605 20.2236 22.5 20.1282 22.5 20.0287C22.5 19.9293 22.4605 19.8339 22.3902 19.7636C22.3198 19.6932 22.2245 19.6541 22.125 19.6541ZM3.58388 19.6541V15.3791H5.33475V19.6541H3.58388ZM8.61112 19.6541V12.8565H10.3616V19.6541H8.61112ZM13.6384 19.6541V10.512H15.3889V19.6545L13.6384 19.6541ZM18.6652 19.6541V7.39161H20.4161V19.6541H18.6652ZM6.30562 10.6661C10.7775 10.2979 13.8026 7.24273 15.1916 5.45473L15.0922 6.21636C15.0799 6.3147 15.107 6.41394 15.1675 6.49238C15.2281 6.57082 15.3173 6.62208 15.4156 6.63497C15.5138 6.64785 15.6132 6.62131 15.692 6.56114C15.7707 6.50097 15.8225 6.41206 15.8359 6.31386L16.1359 4.01961C16.146 3.93048 16.1238 3.84067 16.0733 3.76654C16.0228 3.69241 15.9473 3.63889 15.8606 3.61573C15.8193 3.60628 15.7773 3.60001 15.735 3.59698L13.428 3.77698C13.3778 3.77931 13.3286 3.79169 13.2833 3.8134C13.238 3.8351 13.1975 3.86569 13.1643 3.90334C13.131 3.941 13.1057 3.98494 13.0897 4.03258C13.0738 4.08022 13.0676 4.13058 13.0715 4.18066C13.0754 4.23074 13.0893 4.27953 13.1124 4.32413C13.1355 4.36873 13.1674 4.40824 13.206 4.4403C13.2447 4.47235 13.2894 4.49631 13.3375 4.51075C13.3857 4.5252 13.4362 4.52982 13.4861 4.52436L15.0278 4.40436C13.9808 5.87886 10.9537 9.50699 6.27375 9.91761C6.17893 9.92784 6.09155 9.97378 6.02937 10.0461C5.96719 10.1184 5.93487 10.2117 5.93898 10.307C5.94308 10.4023 5.9833 10.4924 6.05147 10.5591C6.11964 10.6258 6.21027 10.6641 6.30562 10.6661Z" fill="#5B270B"/>
</svg>
