<svg width="24" height="24" viewBox="0 0 24 24" fill="none" xmlns="http://www.w3.org/2000/svg">
<path d="M20.9163 12.332C20.8494 12.2332 20.8138 12.1179 20.8138 12C20.8138 11.8821 20.8494 11.7668 20.9163 11.668L21.6767 10.5454C22.3694 9.52278 21.9027 8.14896 20.7188 7.71369L19.4166 7.23479C19.302 7.19259 19.2026 7.11938 19.1305 7.02401C19.0584 6.92865 19.0166 6.81524 19.0102 6.69753L18.9384 5.36003C18.8731 4.14192 17.6548 3.29356 16.4305 3.60997L15.084 3.9577C14.9655 3.98824 14.8403 3.9851 14.7236 3.94867C14.6069 3.91225 14.5037 3.84409 14.4266 3.75247L13.5499 2.71087C12.7516 1.76228 11.2471 1.76381 10.4501 2.71087L9.57342 3.7525C9.49624 3.84413 9.39305 3.91229 9.27635 3.94872C9.15965 3.98515 9.03445 3.98828 8.91593 3.95774L7.56936 3.61001C6.34267 3.29313 5.12668 4.1443 5.06145 5.36007L4.98967 6.69757C4.98329 6.81527 4.94151 6.92867 4.86938 7.02402C4.79726 7.11938 4.69789 7.19259 4.58331 7.23479L3.28119 7.71369C2.09485 8.14986 1.63188 9.52482 2.3232 10.5454L3.08366 11.668C3.15053 11.7668 3.18611 11.8821 3.18611 12C3.18611 12.1179 3.15053 12.2332 3.08366 12.332L2.32332 13.4546C1.63057 14.4773 2.09745 15.8511 3.28123 16.2863L4.58344 16.7652C4.69801 16.8074 4.79739 16.8806 4.86952 16.976C4.94164 17.0714 4.98342 17.1848 4.98979 17.3025L5.06157 18.64C5.12697 19.8583 6.3454 20.7063 7.56948 20.39L8.91597 20.0423C9.0345 20.0118 9.15969 20.0149 9.2764 20.0513C9.3931 20.0878 9.4963 20.1559 9.5735 20.2475L10.4501 21.2891C11.2486 22.2379 12.7531 22.236 13.55 21.2891L14.4266 20.2475C14.5038 20.1559 14.607 20.0878 14.7237 20.0514C14.8404 20.015 14.9656 20.0118 15.0841 20.0423L16.4307 20.39C17.657 20.707 18.8733 19.8559 18.9386 18.64L19.0103 17.3025C19.0167 17.1848 19.0585 17.0714 19.1306 16.976C19.2028 16.8807 19.3021 16.8074 19.4167 16.7652L20.7188 16.2863C21.9051 15.8502 22.3681 14.4753 21.6769 13.4546L20.9163 12.332ZM20.2328 15.0671L18.9306 15.546C18.1949 15.8166 17.6934 16.4796 17.6529 17.2352L17.5811 18.5727C17.5603 18.9602 17.1729 19.2298 16.7835 19.1293L15.4369 18.7816C14.6762 18.585 13.8646 18.8384 13.3695 19.4268L12.493 20.4683C12.239 20.7701 11.7606 20.7695 11.5071 20.4683L10.6306 19.4268C10.2467 18.9707 9.67282 18.7159 9.07979 18.7159C8.9078 18.7159 8.73415 18.7373 8.56305 18.7816L7.21648 19.1293C6.82622 19.2299 6.43971 18.9595 6.41889 18.5727L6.34711 17.2352C6.30656 16.4796 5.805 15.8165 5.06938 15.546L3.76718 15.0671C3.3899 14.9283 3.24272 14.4912 3.46257 14.1666L4.22299 13.044C4.65257 12.4098 4.65257 11.5902 4.22299 10.956L3.46257 9.83341C3.24223 9.50818 3.39067 9.07134 3.76722 8.93287L5.06942 8.45396C5.80508 8.18342 6.3066 7.52037 6.34715 6.76479L6.41893 5.4273C6.43971 5.03976 6.82708 4.77023 7.21652 4.8707L8.56309 5.21843C9.3238 5.41496 10.1353 5.1616 10.6305 4.5732L11.5071 3.53161C11.7611 3.22989 12.2396 3.23052 12.493 3.53161L13.3696 4.57324C13.8648 5.16164 14.6762 5.415 15.437 5.21843L16.7836 4.8707C17.1738 4.77004 17.5604 5.04054 17.5812 5.4273L17.6529 6.76479C17.6934 7.52037 18.195 8.18346 18.9306 8.45396L20.2328 8.93291C20.6101 9.07158 20.7573 9.50884 20.5375 9.83341L19.7771 10.956C19.3474 11.5902 19.3474 12.4098 19.777 13.044L20.5375 14.1665C20.7577 14.4919 20.6094 14.9287 20.2328 15.0671Z" fill="#5B270B"/>
<path d="M15.3946 8.67357C15.1293 8.41869 14.6989 8.41869 14.4335 8.67357L8.09063 14.766C7.82527 15.0208 7.82527 15.4342 8.09067 15.6891C8.22338 15.8165 8.39731 15.8803 8.57121 15.8803C8.74511 15.8803 8.91909 15.8165 9.05175 15.6891L15.3947 9.59665C15.6601 9.34181 15.6601 8.92849 15.3946 8.67357ZM9.25078 8.48236C8.5013 8.48236 7.8916 9.06802 7.8916 9.78786C7.8916 10.5077 8.50139 11.0934 9.25078 11.0934C10.0003 11.0934 10.61 10.5077 10.61 9.78786C10.61 9.06802 10.0003 8.48236 9.25078 8.48236ZM14.2345 13.2692C13.485 13.2692 12.8753 13.8549 12.8753 14.5747C12.8753 15.2946 13.4851 15.8802 14.2345 15.8802C14.9839 15.8802 15.5937 15.2946 15.5937 14.5747C15.5937 13.8549 14.984 13.2692 14.2345 13.2692Z" fill="#5B270B"/>
</svg>
