<svg width="24" height="24" viewBox="0 0 24 24" fill="none" xmlns="http://www.w3.org/2000/svg">
<path d="M9.31 9.25H1.25V9C1.25 6.93001 2.93 5.25001 5 5.25001H8.95V6.58C8.95 7.5 9.07 8.4 9.31 9.25ZM22.75 11.89V19C22.75 21.07 21.07 22.75 19 22.75H5C2.93 22.75 1.25 21.07 1.25 19V10.75H9.84C10.9153 13.1584 12.8943 15.0476 15.35 16.01C15.75 16.17 16.17 16.25 16.6 16.25C17.03 16.25 17.45 16.17 17.85 16.01C19.95 15.18 21.64 13.72 22.75 11.89ZM5.25 15C5.25 15.41 5.59 15.75 6 15.75H8C8.41 15.75 8.75 15.41 8.75 15C8.75 14.59 8.41 14.25 8 14.25H6C5.59 14.25 5.25 14.59 5.25 15ZM12.75 18C12.75 17.59 12.41 17.25 12 17.25H6C5.59 17.25 5.25 17.59 5.25 18C5.25 18.41 5.59 18.75 6 18.75H12C12.41 18.75 12.75 18.41 12.75 18ZM22.75 4.13001V6.58C22.75 10.15 20.61 13.3 17.3 14.62C17.08 14.71 16.84 14.75 16.6 14.75C16.36 14.75 16.12 14.71 15.9 14.62C14.2878 13.9842 12.9051 12.8766 11.9327 11.4421C10.9603 10.0076 10.4435 8.31301 10.45 6.58V4.13001C10.45 3.21001 11.08 2.43 11.98 2.23L16.18 1.3C16.46 1.24 16.75 1.24 17.03 1.3L21.23 2.23C22.13 2.43 22.76 3.21001 22.76 4.13001H22.75ZM19.12 5.93C19.0507 5.85986 18.9682 5.80417 18.8772 5.76616C18.7862 5.72815 18.6886 5.70857 18.59 5.70857C18.4914 5.70857 18.3938 5.72815 18.3028 5.76616C18.2118 5.80417 18.1293 5.85986 18.06 5.93L16.36 7.6L15.7 6.95C15.4 6.66 14.93 6.66 14.64 6.95C14.35 7.24 14.35 7.72001 14.64 8.01L15.83 9.18001C15.98 9.32001 16.17 9.4 16.36 9.4C16.55 9.4 16.74 9.33 16.89 9.18001L19.11 6.99C19.41 6.7 19.41 6.23 19.11 5.93H19.12Z" fill="currentColor"/>
</svg>
