<svg width="24" height="24" viewBox="0 0 24 24" fill="none" xmlns="http://www.w3.org/2000/svg">
<path d="M21.6392 3.88772C20.4335 3.47353 19.4676 2.50209 19.0553 1.28925C18.793 0.517969 18.0711 0 17.2584 0H6.78844C5.976 0 5.25384 0.517969 4.99162 1.28925C4.57927 2.50214 3.61341 3.47353 2.40764 3.88767C1.64044 4.15144 1.125 4.87561 1.125 5.68983V8.33845C1.125 11.7947 2.16066 15.1227 4.12008 17.9626C5.91286 20.5611 8.38331 22.5945 11.2647 23.8433C11.5042 23.9468 11.7625 24.0002 12.0234 24C12.2822 24 12.5409 23.9478 12.7821 23.8433C15.6634 22.5947 18.1338 20.5611 19.9267 17.9626C21.886 15.1227 22.9219 11.7945 22.9219 8.33845V5.68983C22.9219 4.87556 22.4064 4.15139 21.6392 3.88772ZM21.5156 8.33845C21.5156 11.508 20.5658 14.5598 18.769 17.1641C17.1261 19.5456 14.8623 21.4091 12.2228 22.5529C12.1599 22.5801 12.092 22.5941 12.0233 22.5941C11.9547 22.5941 11.8868 22.5801 11.8238 22.5529C9.18422 21.4091 6.92067 19.5456 5.27766 17.1641C3.48103 14.56 2.53125 11.5082 2.53125 8.33845V5.68983C2.53125 5.47594 2.66531 5.28623 2.86467 5.2178C4.47877 4.66313 5.77172 3.3638 6.32302 1.74187C6.39131 1.5412 6.57825 1.40625 6.78848 1.40625H17.2584C17.4684 1.40625 17.6556 1.5412 17.7239 1.74187C18.2752 3.36384 19.5681 4.66313 21.1822 5.21775C21.3816 5.28623 21.5156 5.47594 21.5156 5.68978V8.33845Z" fill="#5B270B"/>
<path d="M15.0114 9.11642H14.9636V7.11401C14.9636 5.49298 13.6447 4.17401 12.0237 4.17401C10.4026 4.17401 9.08371 5.49298 9.08371 7.11401V9.11642H9.0359C8.10229 9.11642 7.34277 9.87612 7.34277 10.8098V14.8564C7.34277 16.5952 8.75746 18.0101 10.4961 18.0101H13.5513C15.2901 18.0101 16.7046 16.5952 16.7046 14.8564V10.8098C16.7046 9.87617 15.945 9.11646 15.0114 9.11646V9.11642ZM10.49 7.11401C10.49 6.26839 11.1781 5.58026 12.0237 5.58026C12.8692 5.58026 13.5574 6.26839 13.5574 7.11401V9.11661H10.4899L10.49 7.11401ZM15.2984 14.8564C15.2984 15.8199 14.5147 16.6036 13.5513 16.6036H10.496C9.53273 16.6036 8.74898 15.8199 8.74898 14.8564V10.8098C8.74908 10.7338 8.77934 10.6608 8.83314 10.607C8.88694 10.5533 8.95987 10.523 9.03594 10.5229H15.0114C15.0874 10.523 15.1604 10.5533 15.2142 10.6071C15.2679 10.6608 15.2982 10.7338 15.2983 10.8098L15.2984 14.8564Z" fill="#5B270B"/>
<path d="M12.0234 12.1959C11.6351 12.1959 11.3203 12.5107 11.3203 12.899V14.2275C11.3203 14.6158 11.6351 14.9306 12.0234 14.9306C12.4118 14.9306 12.7266 14.6158 12.7266 14.2275V12.899C12.7266 12.5107 12.4118 12.1959 12.0234 12.1959Z" fill="#5B270B"/>
</svg>
