<svg width="24" height="24" viewBox="0 0 24 24" fill="none" xmlns="http://www.w3.org/2000/svg">
<g clip-path="url(#clip0_60_2334)">
<path d="M6.5 19H4.5C4.36739 19 4.24021 18.9473 4.14645 18.8536C4.05268 18.7598 4 18.6326 4 18.5C4 18.3674 4.05268 18.2402 4.14645 18.1464C4.24021 18.0527 4.36739 18 4.5 18H6.5C6.63261 18 6.75979 18.0527 6.85355 18.1464C6.94732 18.2402 7 18.3674 7 18.5C7 18.6326 6.94732 18.7598 6.85355 18.8536C6.75979 18.9473 6.63261 19 6.5 19ZM22.75 19H21.5C21.3674 19 21.2402 18.9473 21.1464 18.8536C21.0527 18.7598 21 18.6326 21 18.5C21 18.3674 21.0527 18.2402 21.1464 18.1464C21.2402 18.0527 21.3674 18 21.5 18H22.335L23.009 14.408C23 12.57 21.43 11 19.5 11H16.217L14.626 18H17.5C17.6326 18 17.7598 18.0527 17.8536 18.1464C17.9473 18.2402 18 18.3674 18 18.5C18 18.6326 17.9473 18.7598 17.8536 18.8536C17.7598 18.9473 17.6326 19 17.5 19H14C13.925 19 13.8509 18.9832 13.7833 18.9507C13.7156 18.9182 13.6562 18.8709 13.6093 18.8123C13.5624 18.7538 13.5294 18.6854 13.5125 18.6123C13.4957 18.5392 13.4955 18.4632 13.512 18.39L15.33 10.39C15.355 10.2792 15.4169 10.1803 15.5056 10.1094C15.5943 10.0385 15.7045 9.99994 15.818 10H19.5C21.981 10 24 12.019 24 14.5L23.241 18.592C23.2197 18.7067 23.159 18.8103 23.0693 18.8848C22.9796 18.9593 22.8666 19.0001 22.75 19Z" fill="#5B270B"/>
<path d="M19.5 21C18.122 21 17 19.879 17 18.5C17 17.121 18.122 16 19.5 16C20.878 16 22 17.121 22 18.5C22 19.879 20.878 21 19.5 21ZM19.5 17C18.673 17 18 17.673 18 18.5C18 19.327 18.673 20 19.5 20C20.327 20 21 19.327 21 18.5C21 17.673 20.327 17 19.5 17ZM8.5 21C7.122 21 6 19.879 6 18.5C6 17.121 7.122 16 8.5 16C9.878 16 11 17.121 11 18.5C11 19.879 9.878 21 8.5 21ZM8.5 17C7.673 17 7 17.673 7 18.5C7 19.327 7.673 20 8.5 20C9.327 20 10 19.327 10 18.5C10 17.673 9.327 17 8.5 17ZM6.5 10H2.5C2.36739 10 2.24021 9.94732 2.14645 9.85355C2.05268 9.75979 2 9.63261 2 9.5C2 9.36739 2.05268 9.24021 2.14645 9.14645C2.24021 9.05268 2.36739 9 2.5 9H6.5C6.63261 9 6.75979 9.05268 6.85355 9.14645C6.94732 9.24021 7 9.36739 7 9.5C7 9.63261 6.94732 9.75979 6.85355 9.85355C6.75979 9.94732 6.63261 10 6.5 10ZM6.5 13H1.5C1.36739 13 1.24021 12.9473 1.14645 12.8536C1.05268 12.7598 1 12.6326 1 12.5C1 12.3674 1.05268 12.2402 1.14645 12.1464C1.24021 12.0527 1.36739 12 1.5 12H6.5C6.63261 12 6.75979 12.0527 6.85355 12.1464C6.94732 12.2402 7 12.3674 7 12.5C7 12.6326 6.94732 12.7598 6.85355 12.8536C6.75979 12.9473 6.63261 13 6.5 13ZM6.5 16H0.5C0.367392 16 0.240215 15.9473 0.146447 15.8536C0.0526784 15.7598 0 15.6326 0 15.5C0 15.3674 0.0526784 15.2402 0.146447 15.1464C0.240215 15.0527 0.367392 15 0.5 15H6.5C6.63261 15 6.75979 15.0527 6.85355 15.1464C6.94732 15.2402 7 15.3674 7 15.5C7 15.6326 6.94732 15.7598 6.85355 15.8536C6.75979 15.9473 6.63261 16 6.5 16Z" fill="#5B270B"/>
<path d="M14 19H10.5C10.3674 19 10.2402 18.9473 10.1464 18.8536C10.0527 18.7598 10 18.6326 10 18.5C10 18.3674 10.0527 18.2402 10.1464 18.1464C10.2402 18.0527 10.3674 18 10.5 18H13.601L15.873 8H4.5C4.36739 8 4.24021 7.94732 4.14645 7.85355C4.05268 7.75979 4 7.63261 4 7.5C4 7.36739 4.05268 7.24021 4.14645 7.14645C4.24021 7.05268 4.36739 7 4.5 7H16.5C16.575 6.99996 16.6491 7.01681 16.7167 7.04929C16.7844 7.08178 16.8438 7.12907 16.8907 7.18765C16.9376 7.24624 16.9706 7.31462 16.9875 7.38773C17.0043 7.46085 17.0045 7.53681 16.988 7.61L14.488 18.61C14.463 18.7208 14.4011 18.8197 14.3124 18.8906C14.2237 18.9615 14.1135 19.0001 14 19Z" fill="#5B270B"/>
</g>
<defs>
<clipPath id="clip0_60_2334">
<rect width="24" height="24" fill="white"/>
</clipPath>
</defs>
</svg>
