<svg width="24" height="24" viewBox="0 0 24 24" fill="none" xmlns="http://www.w3.org/2000/svg">
<g clip-path="url(#clip0_60_2360)">
<path d="M12.0072 19.4813C12.0073 19.6883 11.9484 19.8909 11.8374 20.0656C11.7264 20.2403 11.568 20.3797 11.3806 20.4675C11.1934 20.5556 10.985 20.5885 10.7797 20.5624C10.5745 20.5364 10.3809 20.4523 10.2216 20.3202L4.26329 15.3829H1.08988C0.946755 15.383 0.805022 15.3548 0.672779 15.3001C0.540535 15.2454 0.420372 15.1651 0.319158 15.0639C0.217943 14.9627 0.137661 14.8426 0.082898 14.7104C0.0281354 14.5781 -3.38766e-05 14.4364 3.05739e-08 14.2933V9.95105C2.24806e-08 9.66197 0.114818 9.38473 0.319202 9.1803C0.523586 8.97586 0.8008 8.86098 1.08988 8.86091H4.26355L10.2219 3.92357C10.3811 3.79135 10.5747 3.7073 10.78 3.6813C10.9853 3.6553 11.1938 3.68843 11.3809 3.7768C11.5682 3.86472 11.7266 4.00416 11.8375 4.1788C11.9485 4.35344 12.0075 4.55606 12.0075 4.76297L12.0072 19.4813ZM16.1957 17.7783C16.0398 17.7896 15.8833 17.7673 15.7368 17.7127C15.5903 17.6581 15.4573 17.5726 15.3468 17.462L15.201 17.3158C15.016 17.1311 14.9036 16.8861 14.8843 16.6255C14.865 16.3648 14.94 16.1059 15.0958 15.896C15.9083 14.806 16.3459 13.4821 16.3427 12.1225C16.3427 10.6506 15.8537 9.27004 14.9281 8.12986C14.758 7.92071 14.6715 7.65591 14.6854 7.38669C14.6993 7.11747 14.8125 6.86296 15.0032 6.67239L15.1486 6.52664C15.3664 6.30892 15.6581 6.19026 15.9739 6.20909C16.126 6.21673 16.2749 6.25613 16.4109 6.32477C16.5469 6.39341 16.667 6.48977 16.7635 6.60764C18.0473 8.17861 18.7255 10.086 18.7255 12.1228C18.7255 14.0198 18.1258 15.8256 16.9907 17.3439C16.8971 17.469 16.7776 17.5726 16.6405 17.6476C16.5033 17.7225 16.3516 17.7671 16.1957 17.7783ZM20.7017 21.1465C20.6043 21.2616 20.4841 21.3553 20.3486 21.4216C20.2131 21.488 20.0654 21.5255 19.9147 21.5319C19.764 21.5382 19.6136 21.5132 19.473 21.4585C19.3325 21.4038 19.2048 21.3206 19.098 21.2141L18.9548 21.0709C18.762 20.8779 18.6485 20.6197 18.6367 20.3472C18.625 20.0746 18.7158 19.8075 18.8914 19.5987C20.6506 17.5046 21.6158 14.8576 21.6175 12.1225C21.6187 9.2856 20.5804 6.54653 18.6989 4.42324C18.5152 4.21563 18.4174 3.94581 18.4256 3.66867C18.4337 3.39154 18.5472 3.12792 18.7428 2.93146L18.8857 2.7883C18.9896 2.68145 19.1149 2.59769 19.2533 2.54249C19.3918 2.48729 19.5403 2.46188 19.6892 2.46791C19.8378 2.47222 19.9839 2.50687 20.1186 2.56973C20.2533 2.63259 20.3737 2.72233 20.4724 2.83344C22.7466 5.39309 24.0018 8.69858 24 12.1225C23.9991 15.4254 22.8309 18.6216 20.7017 21.1465Z" fill="#5B270B"/>
</g>
<defs>
<clipPath id="clip0_60_2360">
<rect width="24" height="24" fill="white"/>
</clipPath>
</defs>
</svg>
