<svg width="24" height="24" viewBox="0 0 24 24" fill="none" xmlns="http://www.w3.org/2000/svg">
<g clip-path="url(#clip0_60_2363)">
<path d="M23.6484 2.04836L21.9516 0.351562L0.351562 21.9516L2.04836 23.6484L7.73756 17.9592L13.2 21.6V12.4968L15.3324 10.3644C15.663 11.2287 15.7367 12.1702 15.5447 13.0754C15.3527 13.9807 14.903 14.8111 14.25 15.4668L15.9468 17.1636C18.2712 14.8392 18.6408 11.3196 17.1156 8.58116L18.864 6.83276C21.2856 10.5336 20.8752 15.5592 17.6268 18.8088L19.3236 20.5044C23.5104 16.3188 23.9196 9.77876 20.5812 5.11556L23.6484 2.04836ZM13.2 6.39236V2.39996L5.99996 7.19996H2.39996C2.0817 7.19996 1.77648 7.32639 1.55143 7.55143C1.32639 7.77648 1.19996 8.0817 1.19996 8.39996V16.8H2.79236L13.2 6.39236Z" fill="#5B270B"/>
</g>
<defs>
<clipPath id="clip0_60_2363">
<rect width="24" height="24" fill="white"/>
</clipPath>
</defs>
</svg>
