<svg width="24" height="24" viewBox="0 0 24 24" fill="none" xmlns="http://www.w3.org/2000/svg">
<g clip-path="url(#clip0_60_2312)">
<path d="M23.9373 8.73663C23.8603 8.49921 23.7154 8.28962 23.5203 8.13389C23.3253 7.97815 23.0888 7.88313 22.8403 7.86062L15.9122 7.23164L13.1742 0.821366C12.972 0.350405 12.512 0.0465088 12.0001 0.0465088C11.4881 0.0465088 11.028 0.350405 10.8271 0.821366L8.08907 7.23164L1.15989 7.86062C0.651896 7.90749 0.221763 8.25156 0.0628544 8.73663C-0.0145781 8.97426 -0.0206013 9.22938 0.0455309 9.47039C0.111663 9.71141 0.247045 9.92773 0.434908 10.0926L5.67201 14.6847L4.12788 21.4858C4.01491 21.9858 4.20897 22.503 4.62392 22.8029C4.84125 22.961 5.10315 23.0461 5.37192 23.0459C5.6023 23.0459 5.82836 22.9834 6.02597 22.865L12.0001 19.2929L17.9731 22.865C18.1873 22.9932 18.4345 23.0556 18.684 23.0446C18.9334 23.0336 19.1741 22.9495 19.3763 22.8029C19.7912 22.503 19.9853 21.9858 19.8723 21.4858L18.3281 14.6847L23.5652 10.0926C23.7531 9.92779 23.8885 9.71147 23.9546 9.47045C24.0208 9.22943 24.0147 8.9743 23.9373 8.73668V8.73663Z" fill="#5B270B"/>
</g>
<defs>
<clipPath id="clip0_60_2312">
<rect width="24" height="24" fill="white"/>
</clipPath>
</defs>
</svg>
