<svg width="172" height="172" viewBox="0 0 172 172" fill="none" xmlns="http://www.w3.org/2000/svg">
<g filter="url(#filter0_d_79_4560)">
<path d="M83.4557 5.65142C84.8437 4.20541 87.1563 4.20542 88.5443 5.65142L101.683 19.3388C102.547 20.2391 103.823 20.6157 105.038 20.3289L123.41 15.992C125.353 15.5334 127.289 16.7771 127.679 18.7346L131.421 37.4922C131.663 38.7055 132.523 39.7032 133.688 40.1215L151.524 46.5297C153.389 47.1994 154.336 49.2728 153.621 51.1205L146.713 68.9917C146.27 70.1373 146.455 71.4307 147.201 72.4062L158.812 87.5852C160.013 89.1552 159.689 91.4054 158.095 92.5734L142.739 103.82C141.746 104.547 141.204 105.74 141.309 106.967L142.953 126.063C143.123 128.044 141.623 129.774 139.638 129.887L120.774 130.956C119.533 131.027 118.42 131.746 117.846 132.848L109.042 149.748C108.117 151.523 105.901 152.174 104.163 151.18L87.751 141.793C86.6661 141.173 85.3339 141.173 84.249 141.793L67.8369 151.18C66.099 152.174 63.8831 151.523 62.958 149.748L54.1543 132.848C53.5799 131.746 52.4674 131.027 51.2261 130.956L32.3615 129.887C30.3765 129.774 28.8768 128.044 29.0473 126.063L30.6908 106.967C30.7964 105.74 30.2543 104.547 29.2608 103.82L13.9053 92.5734C12.3107 91.4054 11.987 89.1552 13.188 87.5852L24.7988 72.4062C25.545 71.4307 25.73 70.1373 25.2871 68.9917L18.3786 51.1205C17.6643 49.2728 18.6115 47.1994 20.4757 46.5297L38.3125 40.1215C39.4767 39.7032 40.3367 38.7055 40.5787 37.4922L44.3205 18.7346C44.711 16.7771 46.6468 15.5334 48.5895 15.992L66.9622 20.3289C68.1768 20.6157 69.4526 20.2391 70.3168 19.3388L83.4557 5.65142Z" fill="#00B656"/>
<path d="M83.4557 5.65142C84.8437 4.20541 87.1563 4.20542 88.5443 5.65142L101.683 19.3388C102.547 20.2391 103.823 20.6157 105.038 20.3289L123.41 15.992C125.353 15.5334 127.289 16.7771 127.679 18.7346L131.421 37.4922C131.663 38.7055 132.523 39.7032 133.688 40.1215L151.524 46.5297C153.389 47.1994 154.336 49.2728 153.621 51.1205L146.713 68.9917C146.27 70.1373 146.455 71.4307 147.201 72.4062L158.812 87.5852C160.013 89.1552 159.689 91.4054 158.095 92.5734L142.739 103.82C141.746 104.547 141.204 105.74 141.309 106.967L142.953 126.063C143.123 128.044 141.623 129.774 139.638 129.887L120.774 130.956C119.533 131.027 118.42 131.746 117.846 132.848L109.042 149.748C108.117 151.523 105.901 152.174 104.163 151.18L87.751 141.793C86.6661 141.173 85.3339 141.173 84.249 141.793L67.8369 151.18C66.099 152.174 63.8831 151.523 62.958 149.748L54.1543 132.848C53.5799 131.746 52.4674 131.027 51.2261 130.956L32.3615 129.887C30.3765 129.774 28.8768 128.044 29.0473 126.063L30.6908 106.967C30.7964 105.74 30.2543 104.547 29.2608 103.82L13.9053 92.5734C12.3107 91.4054 11.987 89.1552 13.188 87.5852L24.7988 72.4062C25.545 71.4307 25.73 70.1373 25.2871 68.9917L18.3786 51.1205C17.6643 49.2728 18.6115 47.1994 20.4757 46.5297L38.3125 40.1215C39.4767 39.7032 40.3367 38.7055 40.5787 37.4922L44.3205 18.7346C44.711 16.7771 46.6468 15.5334 48.5895 15.992L66.9622 20.3289C68.1768 20.6157 69.4526 20.2391 70.3168 19.3388L83.4557 5.65142Z" fill="#00B656"/>
<path d="M86 28.3324C113.991 28.3324 136.683 51.0245 136.683 79.016V80.0853C136.683 108.077 113.991 130.768 86 130.768C58.0085 130.768 35.3164 108.077 35.3164 80.0853V79.016C35.3164 51.0245 58.0085 28.3324 86 28.3324Z" fill="#00B656" stroke="#FEFEFD" stroke-width="2.63371"/>
<path d="M77.4299 89.0438L67.4454 78.9566C66.9078 78.4122 66.1779 78.1063 65.4168 78.1063C64.6557 78.1063 63.9259 78.4122 63.3883 78.9566C62.2661 80.0903 62.2661 81.9217 63.3883 83.0554L75.4157 95.2066C76.5379 96.3403 78.3507 96.3403 79.4729 95.2066L109.916 64.4507C111.038 63.317 111.038 61.4856 109.916 60.3519C109.378 59.8076 108.648 59.5016 107.887 59.5016C107.126 59.5016 106.396 59.8076 105.859 60.3519L77.4299 89.0438Z" fill="#FEFEFD" stroke="#FEFEFD" stroke-width="0.526742"/>
<path d="M85.9999 32.7494C85.9999 29.7532 88.4353 27.2954 91.4156 27.6032C100.825 28.5752 109.836 32.067 117.477 37.7565C126.573 44.5301 133.242 54.0573 136.492 64.923C139.742 75.7886 139.401 87.4129 135.518 98.069C131.636 108.725 124.419 117.844 114.941 124.072C105.463 130.3 94.228 133.305 82.9062 132.639C71.5844 131.973 60.7794 127.673 52.0963 120.377C43.4132 113.081 37.3153 103.179 34.7084 92.1411C32.5187 82.87 32.8902 73.2134 35.7327 64.1909C36.633 61.3332 39.8555 60.0734 42.6056 61.2626C45.3557 62.4518 46.5838 65.6402 45.7601 68.5209C43.7999 75.3761 43.6155 82.6498 45.2681 89.6471C47.3383 98.4124 52.1808 106.276 59.0762 112.07C65.9717 117.864 74.5522 121.279 83.5431 121.807C92.5341 122.336 101.456 119.95 108.983 115.005C116.51 110.059 122.24 102.817 125.324 94.3546C128.407 85.8923 128.678 76.6612 126.097 68.0325C123.516 59.4039 118.22 51.838 110.996 46.4589C105.23 42.1649 98.4801 39.4473 91.4101 38.5256C88.439 38.1383 85.9999 35.7456 85.9999 32.7494Z" fill="#FEFEFD"/>
</g>
<defs>
<filter id="filter0_d_79_4560" x="-1" y="-1" width="174" height="174" filterUnits="userSpaceOnUse" color-interpolation-filters="sRGB">
<feFlood flood-opacity="0" result="BackgroundImageFix"/>
<feColorMatrix in="SourceAlpha" type="matrix" values="0 0 0 0 0 0 0 0 0 0 0 0 0 0 0 0 0 0 127 0" result="hardAlpha"/>
<feOffset dy="8"/>
<feGaussianBlur stdDeviation="6"/>
<feComposite in2="hardAlpha" operator="out"/>
<feColorMatrix type="matrix" values="0 0 0 0 0 0 0 0 0 0.572549 0 0 0 0 0.270588 0 0 0 0.2 0"/>
<feBlend mode="normal" in2="BackgroundImageFix" result="effect1_dropShadow_79_4560"/>
<feBlend mode="normal" in="SourceGraphic" in2="effect1_dropShadow_79_4560" result="shape"/>
</filter>
</defs>
</svg>
