<svg width="26" height="30" viewBox="0 0 26 30" fill="none" xmlns="http://www.w3.org/2000/svg">
<g id="Group">
<path id="Vector" d="M3.56751 9.34268C3.17383 9.11499 2.67064 9.25018 2.44351 9.64415C2.21611 10.0383 2.35112 10.5422 2.74459 10.7696C3.13806 10.9973 3.64147 10.8621 3.86859 10.4681C4.096 10.0739 3.96098 9.5701 3.56751 9.34268ZM24.5521 7.58443H23.7292V6.76045C23.7292 6.30507 23.3612 5.93647 22.9062 5.93647C22.4515 5.93647 22.0833 6.30507 22.0833 6.76045V7.58443H21.2604C20.8056 7.58443 20.4375 7.95302 20.4375 8.4084C20.4375 8.86395 20.8056 9.23238 21.2604 9.23238H22.0833V10.0564C22.0833 10.5117 22.4515 10.8803 22.9062 10.8803C23.3612 10.8803 23.7292 10.5117 23.7292 10.0564V9.23238H24.5521C25.0069 9.23238 25.375 8.86395 25.375 8.4084C25.375 7.95302 25.0069 7.58443 24.5521 7.58443ZM2.33335 5.05757C2.33335 5.51312 2.7013 5.88154 3.15627 5.88154C3.61107 5.88154 3.9792 5.51312 3.9792 5.05757V4.23359H4.80212C5.25692 4.23359 5.62504 3.86517 5.62504 3.40962C5.62504 2.95423 5.25692 2.58564 4.80212 2.58564H3.9792V1.76167C3.9792 1.30628 3.61107 0.93769 3.15627 0.93769C2.7013 0.93769 2.33335 1.30628 2.33335 1.76167V2.58564H1.51042C1.05562 2.58564 0.6875 2.95423 0.6875 3.40962C0.6875 3.86517 1.05562 4.23359 1.51042 4.23359H2.33335V5.05757ZM7.53126 2.47792C8.31452 4.04688 8.74958 5.77899 8.85908 7.52944H17.2036C17.3129 5.77921 17.748 4.04688 18.5312 2.47792L18.7048 2.13031C18.7821 1.97565 18.8088 1.80055 18.7811 1.62985C18.7534 1.45915 18.6727 1.30151 18.5505 1.17928C18.3007 0.928242 17.9181 0.866224 17.6007 1.02481L14.8394 2.40711L13.613 1.17928C13.2915 0.857435 12.7708 0.857435 12.4493 1.17928L11.2231 2.40711L8.46177 1.02459C8.14358 0.866224 7.76355 0.927363 7.51201 1.17928C7.38981 1.3015 7.30913 1.45914 7.28143 1.62984C7.25373 1.80054 7.28041 1.97564 7.35768 2.13031L7.53126 2.47792ZM18.0696 9.23238H7.99265L4.77963 13.1261C3.20214 15.0388 2.33335 17.5148 2.33335 19.999C2.33335 25.505 6.53245 29.0625 13.0311 29.0625C19.5301 29.0625 23.7292 25.505 23.7292 19.999C23.7292 17.5148 22.8604 15.0938 21.282 13.181L18.0696 9.23238ZM13.0224 17.7684C14.3838 17.7684 15.4911 18.8772 15.4911 20.2404C15.4911 21.3099 14.8054 22.2138 13.8541 22.5576V23.2949C13.8541 23.7502 13.4861 24.1189 13.0311 24.1189C12.5764 24.1189 12.2084 23.7502 12.2084 23.2949V22.5632C11.2479 22.2244 10.5536 21.3163 10.5536 20.2404C10.5536 19.7848 10.9217 19.4164 11.3765 19.4164C11.8315 19.4164 12.1994 19.7848 12.1994 20.2404C12.1994 20.6951 12.5684 21.0643 13.0224 21.0643C13.4765 21.0643 13.8453 20.6951 13.8453 20.2404C13.8453 19.7857 13.4765 19.4164 13.0224 19.4164C11.6611 19.4164 10.5536 18.3075 10.5536 16.9445C10.5536 15.8683 11.2479 14.9605 12.2084 14.6217V13.4071C12.2084 12.9519 12.5764 12.5832 13.0311 12.5832C13.4861 12.5832 13.8541 12.9519 13.8541 13.4071V14.6273C14.8054 14.971 15.4911 15.875 15.4911 16.9445C15.4911 17.4 15.1232 17.7684 14.6682 17.7684C14.2134 17.7684 13.8453 17.4 13.8453 16.9445C13.8453 16.49 13.4765 16.1205 13.0224 16.1205C12.5684 16.1205 12.1994 16.49 12.1994 16.9445C12.1994 17.3992 12.5683 17.7684 13.0224 17.7684Z" fill="#E17D47"/>
</g>
</svg>
