<svg width="22" height="29" viewBox="0 0 22 29" fill="none" xmlns="http://www.w3.org/2000/svg">
<g id="Group">
<path id="Vector" d="M15.7526 2.41667H13.8464C13.4849 1.39817 12.509 0.666672 11.3646 0.666672C10.2202 0.666672 9.24427 1.39817 8.88094 2.41667H6.97654C6.4921 2.41667 6.09894 2.80867 6.09894 3.29167V6.79167C6.09894 7.27467 6.4921 7.66667 6.97654 7.66667H15.7526C16.237 7.66667 16.6302 7.27467 16.6302 6.79167V3.29167C16.6302 2.80867 16.237 2.41667 15.7526 2.41667Z" fill="#E17D47"/>
<path id="Vector_2" d="M20.1406 4.16667H18.3854V6.79167C18.3854 8.23892 17.2041 9.41667 15.7526 9.41667H6.97654C5.52498 9.41667 4.34373 8.23892 4.34373 6.79167V4.16667H2.58852C1.6214 4.16667 0.833313 4.95242 0.833313 5.91667V26.9167C0.833313 27.8984 1.60385 28.6667 2.58852 28.6667H20.1406C21.1253 28.6667 21.8958 27.8984 21.8958 26.9167V5.91667C21.8958 4.93492 21.1253 4.16667 20.1406 4.16667ZM11.1083 19.6612L7.59789 23.1612C7.43274 23.3248 7.20937 23.4167 6.97654 23.4167C6.74371 23.4167 6.52034 23.3248 6.3552 23.1612L4.59999 21.4112C4.25772 21.0699 4.25772 20.5152 4.59999 20.1739C4.94226 19.8327 5.49866 19.8327 5.84092 20.1739L6.97654 21.3044L9.86561 18.4239C10.2079 18.0827 10.7643 18.0827 11.1065 18.4239C11.4488 18.7652 11.4506 19.3182 11.1083 19.6612ZM11.1083 12.6612L7.59789 16.1612C7.43274 16.3248 7.20937 16.4167 6.97654 16.4167C6.74371 16.4167 6.52034 16.3248 6.3552 16.1612L4.59999 14.4112C4.25772 14.0699 4.25772 13.5152 4.59999 13.1739C4.94226 12.8327 5.49866 12.8327 5.84092 13.1739L6.97654 14.3044L9.86561 11.4239C10.2079 11.0827 10.7643 11.0827 11.1065 11.4239C11.4488 11.7652 11.4506 12.3182 11.1083 12.6612ZM17.5078 21.6667H13.9974C13.5129 21.6667 13.1198 21.2747 13.1198 20.7917C13.1198 20.3087 13.5129 19.9167 13.9974 19.9167H17.5078C17.9922 19.9167 18.3854 20.3087 18.3854 20.7917C18.3854 21.2747 17.9922 21.6667 17.5078 21.6667ZM17.5078 14.6667H13.9974C13.5129 14.6667 13.1198 14.2747 13.1198 13.7917C13.1198 13.3087 13.5129 12.9167 13.9974 12.9167H17.5078C17.9922 12.9167 18.3854 13.3087 18.3854 13.7917C18.3854 14.2747 17.9922 14.6667 17.5078 14.6667Z" fill="#E17D47"/>
</g>
</svg>
