<svg width="20" height="21" viewBox="0 0 20 21" fill="none" xmlns="http://www.w3.org/2000/svg">
<path d="M18.6549 6.7475C17.7725 5.93279 16.5519 4.68867 15.5578 3.80632L15.499 3.76515C15.4011 3.68655 15.2908 3.62491 15.1725 3.58279C12.7755 3.13573 1.61958 1.05044 1.40193 1.07691C1.34094 1.08545 1.28265 1.10756 1.23134 1.14162L1.17546 1.18573C1.10665 1.25562 1.05439 1.34004 1.02252 1.43279L1.00781 1.47103V1.67985V1.7122C2.2637 5.20926 7.22252 16.6651 8.19899 19.3534C8.25781 19.5357 8.36958 19.8828 8.5784 19.9004H8.62546C8.73723 19.9004 9.2137 19.271 9.2137 19.271C9.2137 19.271 17.7313 8.94162 18.5931 7.84162C18.7047 7.70612 18.8031 7.56037 18.8872 7.40632C18.9087 7.28579 18.8986 7.16175 18.8579 7.0463C18.8171 6.93084 18.7472 6.8279 18.6549 6.7475ZM11.399 7.95044L15.0343 4.93573L17.1666 6.90044L11.399 7.95044ZM9.98723 7.75338L3.7284 2.62397L13.8549 4.49162L9.98723 7.75338ZM10.5519 9.0975L16.9578 8.06514L9.63428 16.8887L10.5519 9.0975ZM2.8784 3.13573L9.4637 8.72397L8.51075 16.8946L2.8784 3.13573Z" fill="#FF060A"/>
</svg>
