<svg width="24" height="24" viewBox="0 0 24 24" fill="none" xmlns="http://www.w3.org/2000/svg">
<path d="M13.2443 21.1341V22.7925H10.8861V21.0563C8.62894 20.8014 6.51289 19.8297 4.84863 18.2837L6.71426 15.9775C7.8774 17.0845 9.31934 17.8548 10.8861 18.2063V13.1531C7.69863 12.3238 5.5482 11.1844 5.5482 8.12608C5.5482 5.32764 7.69882 3.17608 10.8861 2.78814V1.20752H13.2443V2.81421C15.267 3.02337 17.1717 3.86684 18.6859 5.22396L16.9234 7.60783C15.8777 6.66422 14.6132 5.99632 13.2443 5.66458V10.536C16.7943 11.3393 19.1523 12.5571 19.1523 15.7183C19.1523 18.6985 17.0014 20.875 13.2443 21.1341ZM10.8861 9.91408V5.61264C9.61657 5.92352 8.81295 6.83046 8.81295 7.84108C8.81295 8.87758 9.48682 9.42171 10.8861 9.91408ZM15.9132 16.0292C15.9132 14.8373 15.0839 14.2931 13.2443 13.749V18.3615C15.0063 18.1541 15.9132 17.1696 15.9132 16.0292Z" fill="#5B270B"/>
</svg>
