<svg width="24" height="24" viewBox="0 0 24 24" fill="none" xmlns="http://www.w3.org/2000/svg">
<path fill-rule="evenodd" clip-rule="evenodd" d="M21.1013 8.00353C21.0446 7.99996 20.9829 7.99998 20.919 8L20.903 8.00001H18.3945C16.3268 8.00001 14.5576 9.62757 14.5576 11.75C14.5576 13.8724 16.3268 15.5 18.3945 15.5H20.903H20.919C20.9829 15.5 21.0446 15.5001 21.1013 15.4965C21.9412 15.4434 22.6839 14.7862 22.7464 13.8682C22.7505 13.808 22.7504 13.7431 22.7504 13.683V13.6667V9.83334V9.81702C22.7504 9.75688 22.7505 9.69199 22.7464 9.6318C22.6839 8.71381 21.9412 8.05657 21.1013 8.00353ZM18.1721 12.75C18.7044 12.75 19.1359 12.3023 19.1359 11.75C19.1359 11.1977 18.7044 10.75 18.1721 10.75C17.6398 10.75 17.2082 11.1977 17.2082 11.75C17.2082 12.3023 17.6398 12.75 18.1721 12.75Z" fill="#5B270B"/>
<path fill-rule="evenodd" clip-rule="evenodd" d="M20.9179 17C21.067 16.9961 21.1799 17.1342 21.1394 17.2778C20.9387 17.9902 20.62 18.5975 20.1088 19.1088C19.3604 19.8571 18.4114 20.1892 17.239 20.3469C16.0998 20.5 14.6442 20.5 12.8064 20.5H10.6936C8.85583 20.5 7.40019 20.5 6.26098 20.3469C5.08856 20.1892 4.13961 19.8571 3.39124 19.1088C2.64288 18.3604 2.31076 17.4114 2.15314 16.239C1.99997 15.0998 1.99998 13.6442 2 11.8064V11.6936C1.99998 9.85583 1.99997 8.40019 2.15314 7.26098C2.31076 6.08856 2.64288 5.13961 3.39124 4.39124C4.13961 3.64288 5.08856 3.31076 6.26098 3.15314C7.40019 2.99997 8.85582 2.99998 10.6936 3H12.8064C14.6442 2.99998 16.0998 2.99997 17.239 3.15314C18.4114 3.31076 19.3604 3.64288 20.1088 4.39124C20.62 4.90252 20.9386 5.50974 21.1394 6.22218C21.1799 6.36575 21.067 6.50387 20.9179 6.5L18.394 6.50001C15.5574 6.50001 13.0571 8.74091 13.0571 11.75C13.0571 14.7591 15.5574 17 18.394 17H20.9179ZM7 15.5C6.58579 15.5 6.25 15.1642 6.25 14.75V8.75C6.25 8.33579 6.58579 8 7 8C7.41421 8 7.75 8.33579 7.75 8.75V14.75C7.75 15.1642 7.41421 15.5 7 15.5Z" fill="#5B270B"/>
</svg>
