<svg width="24" height="24" viewBox="0 0 24 24" fill="none" xmlns="http://www.w3.org/2000/svg">
<path fill-rule="evenodd" clip-rule="evenodd" d="M11.5713 8.46628C14.0584 8.46639 16.4504 9.38847 18.2529 11.0419C18.3887 11.1696 18.6056 11.168 18.7393 11.0383L20.0368 9.77487C20.1045 9.70911 20.1422 9.62004 20.1417 9.52735C20.1411 9.43467 20.1023 9.34603 20.0338 9.28104C15.3028 4.90632 7.83907 4.90632 3.10806 9.28104C3.03952 9.34598 3.00064 9.4346 3.00001 9.52728C2.99938 9.61996 3.03705 9.70906 3.10469 9.77487L4.40255 11.0383C4.53615 11.1682 4.75327 11.1698 4.88893 11.0419C6.69167 9.38836 9.08395 8.46628 11.5713 8.46628ZM11.5679 12.6866C12.9253 12.6865 14.2341 13.1982 15.2403 14.1223C15.3763 14.2535 15.5907 14.2507 15.7234 14.1159L17.0106 12.7966C17.0784 12.7274 17.1161 12.6335 17.1151 12.536C17.1141 12.4384 17.0746 12.3454 17.0054 12.2776C13.9416 9.38672 9.19688 9.38672 6.13305 12.2776C6.06384 12.3454 6.02435 12.4385 6.02345 12.5361C6.02254 12.6337 6.06028 12.7275 6.12822 12.7966L7.41513 14.1159C7.54778 14.2507 7.76215 14.2535 7.89823 14.1223C8.90368 13.1988 10.2115 12.6871 11.5679 12.6866ZM14.0924 15.4801C14.0943 15.5855 14.0572 15.687 13.9899 15.7608L11.8133 18.2156C11.7495 18.2877 11.6625 18.3283 11.5717 18.3283C11.4809 18.3283 11.3939 18.2877 11.3301 18.2156L9.1531 15.7608C9.08585 15.687 9.04886 15.5854 9.05085 15.48C9.05284 15.3747 9.09365 15.2749 9.16364 15.2043C10.5537 13.8904 12.5897 13.8904 13.9798 15.2043C14.0497 15.275 14.0904 15.3748 14.0924 15.4801Z" fill="#5B270B"/>
</svg>
