<svg width="160" height="66" viewBox="0 0 160 66" fill="none" xmlns="http://www.w3.org/2000/svg">
<path d="M49.5652 18.9595H42.5435C45.6174 15.9597 46.0956 12.0143 43.7391 8.87326C43.1594 8.0942 42.4305 7.43818 41.5949 6.94335C40.7593 6.44851 39.8336 6.12474 38.8717 5.99086C37.9107 5.84962 36.9312 5.90104 35.9903 6.14213C35.0494 6.38322 34.1659 6.80915 33.3913 7.39511C31.913 8.50155 30.8304 9.91231 30.0282 11.347C29.2261 9.91231 28.1435 8.50372 26.6652 7.39511C25.8906 6.80915 25.0071 6.38322 24.0661 6.14213C23.1252 5.90104 22.1457 5.84962 21.1848 5.99086C20.223 6.12521 19.2975 6.44918 18.462 6.94398C17.6264 7.43877 16.8975 8.09455 16.3174 8.87326C13.9717 11.9969 14.4391 15.914 17.5217 18.9595H10.4348C6.83911 18.9595 3.91302 21.8853 3.91302 25.4807V58.087H56.0869V25.4807C56.0869 21.8853 53.1609 18.9595 49.5652 18.9595ZM36 10.8731C36.65 10.384 37.4565 10.1884 38.2565 10.2927C39.0609 10.4079 39.7739 10.8296 40.2608 11.4796C41.6543 13.336 40.3543 15.0532 39.5152 15.8553C36.0674 18.9138 32.4065 18.9595 32.2022 18.9595L32.2195 18.3117C32.4022 17.0618 33.1891 12.9816 36 10.8731ZM19.7956 11.4796C20.2848 10.8296 20.9956 10.4079 21.8 10.2927C22.6108 10.1884 23.4065 10.3862 24.0565 10.8731C26.8261 12.9512 27.6304 16.94 27.8261 18.2465V18.9595C27.5195 18.9595 23.9369 18.8682 20.6 15.9097C19.7 15.0511 18.4022 13.3381 19.7956 11.4796ZM10.4348 23.307H27.3304C25.2239 27.5697 17.0478 27.6545 16.9522 27.6545V32.002C20.6913 32.002 26.7739 30.8434 29.9978 27.1067C33.2239 30.8434 39.3065 32.002 43.0413 32.002V27.6545C42.95 27.6545 34.7739 27.5697 32.6674 23.307H49.563C50.7609 23.307 51.7369 24.2808 51.7369 25.4807V42.8707H8.26085V25.4807C8.26085 24.2808 9.23694 23.307 10.4348 23.307ZM8.26085 53.7395V47.2182H51.7391V53.7395H8.26085Z" fill="#D95C19"/>
<path d="M72.032 26.912C71.824 26.848 71.592 26.744 71.336 26.6C71.08 26.472 70.952 26.28 70.952 26.024C70.952 25.928 70.976 25.832 71.024 25.736L71.072 25.64C70.832 25.384 70.632 25.104 70.472 24.8C70.312 24.512 70.232 24.24 70.232 23.984C70.232 23.872 70.24 23.792 70.256 23.744C70.688 23.104 71.304 22.44 72.104 21.752C72.904 21.064 73.832 20.408 74.888 19.784C75.96 19.16 77.088 18.632 78.272 18.2C78.528 17.864 78.76 17.536 78.968 17.216C79.176 16.896 79.384 16.584 79.592 16.28C79.576 16.28 79.608 16.224 79.688 16.112C79.768 15.984 79.848 15.856 79.928 15.728C80.008 15.6 80.04 15.544 80.024 15.56C80.008 15.56 79.944 15.64 79.832 15.8C79.736 15.944 79.632 16.088 79.52 16.232C79.424 16.376 79.368 16.456 79.352 16.472C78.52 17.144 77.616 17.768 76.64 18.344C75.68 18.904 74.76 19.304 73.88 19.544C73.432 19.656 72.984 19.736 72.536 19.784C72.088 19.832 71.68 19.856 71.312 19.856C71.008 19.856 70.76 19.848 70.568 19.832C70.376 19.8 70.28 19.776 70.28 19.76C70.28 19.696 70.632 19.664 71.336 19.664C70.28 19.44 69.528 19.056 69.08 18.512C68.648 17.952 68.432 17.304 68.432 16.568C68.432 15.96 68.552 15.32 68.792 14.648C69.048 13.96 69.376 13.296 69.776 12.656C70.624 11.296 71.536 10.208 72.512 9.392C73.504 8.576 74.6 7.832 75.8 7.16C75.496 7.304 75.184 7.456 74.864 7.616C74.56 7.76 74.272 7.912 74 8.072C73.888 8.136 73.792 8.168 73.712 8.168C73.648 8.168 73.672 8.136 73.784 8.072C74.312 7.768 74.936 7.448 75.656 7.112C76.376 6.76 77.008 6.456 77.552 6.2C78.928 5.544 80.32 5.032 81.728 4.664C83.136 4.296 84.368 4.112 85.424 4.112C86.048 4.112 86.576 4.184 87.008 4.328C87.2 4.632 87.336 4.912 87.416 5.168C87.496 5.408 87.536 5.624 87.536 5.816C87.536 5.976 87.512 6.112 87.464 6.224C87.432 6.336 87.4 6.432 87.368 6.512C87.448 6.464 87.52 6.384 87.584 6.272C87.664 6.16 87.728 6.048 87.776 5.936C87.824 5.824 87.848 5.728 87.848 5.648C87.864 5.568 87.888 5.488 87.92 5.408C87.952 5.36 88.04 5.392 88.184 5.504C88.328 5.616 88.464 5.76 88.592 5.936C88.736 6.112 88.8 6.272 88.784 6.416C88.768 6.688 88.632 7.016 88.376 7.4C88.136 7.784 87.832 8.16 87.464 8.528C87.112 8.88 86.752 9.176 86.384 9.416C86.016 9.64 85.696 9.736 85.424 9.704C85.024 9.816 84.664 9.912 84.344 9.992C84.04 10.056 83.816 10.088 83.672 10.088C83.544 10.088 83.48 10.056 83.48 9.992C83.48 9.896 83.704 9.688 84.152 9.368C84.824 8.92 85.4 8.464 85.88 8C86.472 7.424 86.768 6.976 86.768 6.656C86.768 6.448 86.672 6.296 86.48 6.2C86.304 6.104 86.056 6.056 85.736 6.056C85.672 6.056 85.592 6.064 85.496 6.08C85.416 6.08 85.328 6.088 85.232 6.104C84.304 6.232 83.304 6.44 82.232 6.728C81.176 7.016 80.096 7.4 78.992 7.88C77.888 8.344 76.824 8.912 75.8 9.584C74.792 10.24 73.872 11.008 73.04 11.888C72.208 12.752 71.528 13.744 71 14.864C70.792 15.296 70.632 15.712 70.52 16.112C70.408 16.512 70.352 16.872 70.352 17.192C70.352 17.64 70.472 18 70.712 18.272C70.968 18.528 71.376 18.656 71.936 18.656C72.368 18.656 72.896 18.576 73.52 18.416C74.16 18.24 74.912 17.952 75.776 17.552C76.416 17.264 77.064 16.872 77.72 16.376C78.376 15.88 78.992 15.36 79.568 14.816C80.144 14.272 80.64 13.776 81.056 13.328C81.488 12.864 81.784 12.528 81.944 12.32C82.12 12.272 82.352 12.304 82.64 12.416C82.944 12.528 83.208 12.664 83.432 12.824C83.672 12.984 83.768 13.112 83.72 13.208C83.72 13.208 83.592 13.424 83.336 13.856C83.096 14.288 82.744 14.872 82.28 15.608C81.832 16.328 81.296 17.12 80.672 17.984L81.296 17.936H81.368C81.592 17.936 81.704 18.008 81.704 18.152C81.704 18.28 81.6 18.368 81.392 18.416C81.2 18.48 80.984 18.56 80.744 18.656C80.504 18.736 80.264 18.816 80.024 18.896L79.76 19.208L79.88 19.04L79.904 18.992L78.248 20.888C78.008 21.16 77.704 21.488 77.336 21.872C76.968 22.256 76.576 22.648 76.16 23.048C75.76 23.448 75.384 23.816 75.032 24.152C74.68 24.488 74.4 24.76 74.192 24.968C73.984 25.176 73.896 25.272 73.928 25.256C74.776 24.616 75.592 23.896 76.376 23.096C77.16 22.312 77.936 21.44 78.704 20.48C78.816 20.32 78.952 20.152 79.112 19.976C79.272 19.8 79.424 19.624 79.568 19.448C79.392 19.704 79.168 20.016 78.896 20.384C78.624 20.752 78.304 21.16 77.936 21.608C77.712 21.88 77.408 22.2 77.024 22.568C76.64 22.936 76.232 23.304 75.8 23.672C75.384 24.056 75 24.392 74.648 24.68C74.312 24.968 74.072 25.16 73.928 25.256C74.04 25.256 74.128 25.28 74.192 25.328C74.256 25.36 74.2 25.464 74.024 25.64C73.848 25.816 73.616 26.008 73.328 26.216C73.056 26.424 72.792 26.6 72.536 26.744C72.296 26.888 72.128 26.944 72.032 26.912ZM76.064 7.112C77.104 6.632 78.208 6.2 79.376 5.816C80.56 5.432 81.696 5.136 82.784 4.928C83.872 4.704 84.792 4.592 85.544 4.592C85.768 4.592 85.88 4.576 85.88 4.544C85.88 4.512 85.824 4.488 85.712 4.472C85.616 4.44 85.512 4.432 85.4 4.448C84.936 4.48 84.304 4.552 83.504 4.664C82.72 4.76 81.856 4.92 80.912 5.144C79.968 5.368 79.024 5.688 78.08 6.104C77.776 6.248 77.44 6.408 77.072 6.584C76.704 6.76 76.368 6.936 76.064 7.112ZM72.056 25.856C72.488 25.424 72.992 24.888 73.568 24.248C74.144 23.624 74.728 22.976 75.32 22.304C75.912 21.632 76.44 21.032 76.904 20.504C77.112 20.28 77.32 20.048 77.528 19.808C77.752 19.568 77.944 19.32 78.104 19.064C77.816 19.416 77.624 19.632 77.528 19.712C77.432 19.776 77.376 19.808 77.36 19.808C77.088 19.92 76.72 20.128 76.256 20.432C75.808 20.736 75.328 21.096 74.816 21.512C74.304 21.944 73.824 22.392 73.376 22.856C72.928 23.336 72.56 23.792 72.272 24.224C71.984 24.656 71.84 25.032 71.84 25.352C71.84 25.544 71.912 25.712 72.056 25.856ZM88.7834 10.16C88.5754 10.064 88.3594 9.88 88.1354 9.608C87.9114 9.336 87.7994 9.104 87.7994 8.912C87.7994 8.752 87.8714 8.672 88.0154 8.672C88.0954 8.672 88.1914 8.688 88.3034 8.72C88.4154 8.736 88.5274 8.744 88.6394 8.744C88.7834 8.744 88.9434 8.696 89.1194 8.6C89.2954 8.488 89.4714 8.432 89.6474 8.432C89.8714 8.432 90.0474 8.584 90.1754 8.888C90.2234 8.968 90.1834 9.08 90.0554 9.224C89.9274 9.368 89.7754 9.504 89.5994 9.632C89.4394 9.76 89.3034 9.856 89.1914 9.92C89.2714 9.92 89.3994 9.864 89.5754 9.752C89.7514 9.624 89.8954 9.504 90.0074 9.392C89.7994 9.648 89.5594 9.848 89.2874 9.992C89.0154 10.12 88.8474 10.176 88.7834 10.16ZM83.5754 19.928C83.2874 19.672 83.0874 19.464 82.9754 19.304C82.8794 19.128 82.8314 18.968 82.8314 18.824C82.8314 18.712 82.8474 18.6 82.8794 18.488C82.9274 18.376 82.9674 18.256 82.9994 18.128C83.1754 17.536 83.4634 16.896 83.8634 16.208C84.2634 15.52 84.6954 14.848 85.1594 14.192C85.6394 13.52 86.0634 12.928 86.4314 12.416C86.3994 12.384 86.3834 12.288 86.3834 12.128C86.3834 11.904 86.4234 11.656 86.5034 11.384C86.5994 11.096 86.7274 10.984 86.8874 11.048C87.0794 11.096 87.3034 11.192 87.5594 11.336C87.8314 11.48 88.0714 11.648 88.2794 11.84C88.4874 12.032 88.5914 12.24 88.5914 12.464C88.5914 12.512 88.5754 12.584 88.5434 12.68H88.5194C88.1034 13.128 87.6954 13.624 87.2954 14.168C86.8954 14.712 86.5434 15.224 86.2394 15.704C85.9514 16.168 85.7514 16.52 85.6394 16.76C85.7354 16.712 85.8394 16.648 85.9514 16.568C86.0634 16.488 86.1834 16.392 86.3114 16.28C86.2314 16.328 86.1594 16.36 86.0954 16.376C86.0474 16.392 86.0394 16.392 86.0714 16.376C86.4874 16.04 86.9674 15.696 87.5114 15.344C88.0714 14.992 88.6394 14.672 89.2154 14.384C89.7914 14.08 90.3354 13.832 90.8474 13.64H90.8954C90.9274 13.64 90.9034 13.664 90.8234 13.712C90.7594 13.744 90.6714 13.784 90.5594 13.832C90.4474 13.88 90.2954 13.96 90.1034 14.072C89.9114 14.168 89.6954 14.288 89.4554 14.432C89.6794 14.336 89.9114 14.224 90.1514 14.096C90.3914 13.968 90.6394 13.864 90.8954 13.784C90.9754 13.752 91.0474 13.728 91.1114 13.712C91.1914 13.696 91.2474 13.688 91.2794 13.688C91.3914 13.688 91.4474 13.728 91.4474 13.808C91.4474 13.92 91.3354 14.08 91.1114 14.288C90.8874 14.496 90.5994 14.696 90.2474 14.888C90.0394 15 89.7114 15.208 89.2634 15.512C88.8314 15.816 88.3354 16.176 87.7754 16.592C87.2154 16.992 86.6474 17.408 86.0714 17.84C85.5114 18.272 85.0074 18.672 84.5594 19.04C84.1114 19.408 83.7834 19.704 83.5754 19.928ZM86.3114 16.28C86.3914 16.248 86.4714 16.208 86.5514 16.16C86.6474 16.096 86.7114 16.056 86.7434 16.04C87.0474 15.832 87.4474 15.592 87.9434 15.32C88.4554 15.032 88.9594 14.736 89.4554 14.432C88.6554 14.816 88.0234 15.152 87.5594 15.44C87.0954 15.728 86.6794 16.008 86.3114 16.28ZM86.9444 27.08C86.2564 27.08 85.7044 26.856 85.2884 26.408C84.8564 25.96 84.6404 25.44 84.6404 24.848C84.6404 24.208 84.8484 23.488 85.2644 22.688C85.6644 21.888 86.1844 21.056 86.8244 20.192C87.4484 19.344 88.1044 18.52 88.7924 17.72C89.4964 16.92 90.1444 16.2 90.7364 15.56C91.3444 14.904 91.8084 14.376 92.1284 13.976C91.9684 14.024 91.7524 14.088 91.4804 14.168C91.2084 14.232 90.9444 14.296 90.6884 14.36C90.4484 14.408 90.2884 14.432 90.2084 14.432C90.0964 14.432 90.0004 14.392 89.9204 14.312C89.8564 14.232 89.8084 14.144 89.7764 14.048C89.6644 13.984 89.6084 13.936 89.6084 13.904C89.5924 13.84 89.5764 13.784 89.5604 13.736C89.5604 13.688 89.5604 13.648 89.5604 13.616C89.5604 13.36 89.6964 13.24 89.9684 13.256C90.2404 13.256 90.5124 13.232 90.7844 13.184C91.0564 13.136 91.3364 13.056 91.6244 12.944C91.9124 12.832 92.0724 12.728 92.1044 12.632C92.1684 12.52 92.2084 12.464 92.2244 12.464C92.2724 12.464 92.3284 12.536 92.3924 12.68C92.4244 12.728 92.4404 12.808 92.4404 12.92C92.4404 13.048 92.4084 13.168 92.3444 13.28L92.8004 13.208C93.3764 12.472 93.9764 11.712 94.6004 10.928C95.2404 10.144 95.8484 9.392 96.4244 8.672C97.0004 7.936 97.5124 7.288 97.9604 6.728C98.4244 6.168 98.7604 5.76 98.9684 5.504C98.9684 5.504 98.9684 5.496 98.9684 5.48C98.9684 5.464 98.9524 5.456 98.9204 5.456C98.8564 5.456 98.7284 5.56 98.5364 5.768C98.0724 6.28 97.6004 6.8 97.1204 7.328C96.6564 7.856 96.2644 8.288 95.9444 8.624C95.6244 8.96 95.4644 9.12 95.4644 9.104C95.4644 9.088 95.5764 8.936 95.8004 8.648C96.0244 8.344 96.3044 7.984 96.6404 7.568C96.9764 7.152 97.3124 6.736 97.6484 6.32C98.0004 5.904 98.2964 5.552 98.5364 5.264C98.7764 4.976 98.9044 4.832 98.9204 4.832C98.9684 4.816 99.0484 4.856 99.1604 4.952C99.2884 5.032 99.3844 5.088 99.4484 5.12C99.5924 5.168 99.7764 5.312 100 5.552C100.24 5.776 100.44 6.024 100.6 6.296C100.776 6.552 100.832 6.76 100.768 6.92C100.544 7.112 100.24 7.4 99.8564 7.784C99.4724 8.152 99.0404 8.568 98.5604 9.032C98.0964 9.48 97.6324 9.944 97.1684 10.424C96.7044 10.904 96.2724 11.352 95.8724 11.768C95.4724 12.184 95.1604 12.528 94.9364 12.8C95.2564 12.72 95.6244 12.64 96.0404 12.56C96.4564 12.48 96.8724 12.4 97.2884 12.32C97.7204 12.24 98.0964 12.176 98.4164 12.128C98.7524 12.064 98.9764 12.024 99.0884 12.008C99.1524 11.992 99.2324 11.984 99.3284 11.984C99.4724 11.984 99.5444 12.016 99.5444 12.08C99.5444 12.144 99.4884 12.216 99.3764 12.296C99.2644 12.376 99.1364 12.432 98.9924 12.464C98.9764 12.464 98.8324 12.496 98.5604 12.56C98.3044 12.624 98.0004 12.704 97.6484 12.8C97.3124 12.88 97.0084 12.96 96.7364 13.04C96.5124 13.088 96.2164 13.152 95.8484 13.232C95.4804 13.312 95.1524 13.384 94.8644 13.448C94.5764 13.512 94.4324 13.552 94.4324 13.568C94.5764 13.568 94.8244 13.536 95.1764 13.472C95.5444 13.408 95.9284 13.336 96.3284 13.256C96.7284 13.176 97.0564 13.12 97.3124 13.088C97.0884 13.168 96.7844 13.248 96.4004 13.328C96.0324 13.392 95.6484 13.472 95.2484 13.568C94.8644 13.648 94.5364 13.752 94.2644 13.88C94.1044 14.04 93.9204 14.24 93.7124 14.48C93.5044 14.704 93.2644 14.96 92.9924 15.248C93.0404 15.248 93.0804 15.256 93.1124 15.272C93.5284 15.432 93.9364 15.616 94.3364 15.824C94.7364 16.032 95.0644 16.272 95.3204 16.544C95.5764 16.8 95.6884 17.112 95.6564 17.48C95.5924 18.264 95.3124 19.16 94.8164 20.168C95.0404 19.832 95.2324 19.488 95.3924 19.136C95.5684 18.784 95.7044 18.44 95.8004 18.104C95.7044 18.792 95.4404 19.488 95.0084 20.192C94.5764 20.896 94.0884 21.584 93.5444 22.256C93.8164 21.904 94.0564 21.552 94.2644 21.2C94.4724 20.848 94.6564 20.504 94.8164 20.168C94.3844 20.856 93.9364 21.464 93.4724 21.992C93.0084 22.52 92.6964 22.872 92.5364 23.048C92.2484 23.352 91.9284 23.672 91.5764 24.008C91.2404 24.344 90.9124 24.656 90.5924 24.944C90.2724 25.232 90.0164 25.464 89.8244 25.64C89.6324 25.816 89.5524 25.896 89.5844 25.88C89.8404 25.752 90.1684 25.512 90.5684 25.16C90.9844 24.808 91.3844 24.448 91.7684 24.08C91.9924 23.856 92.2324 23.616 92.4884 23.36C92.7444 23.12 92.9924 22.872 93.2324 22.616C92.9764 22.92 92.7204 23.224 92.4644 23.528C92.2084 23.848 91.9284 24.16 91.6244 24.464C90.5364 25.536 89.6004 26.24 88.8164 26.576C88.0484 26.912 87.4244 27.08 86.9444 27.08ZM86.2244 26.504C86.6564 26.504 87.1444 26.32 87.6884 25.952C88.2484 25.584 88.8164 25.088 89.3924 24.464C89.9684 23.856 90.5284 23.184 91.0724 22.448C91.6164 21.728 92.1044 21 92.5364 20.264C92.9844 19.544 93.3364 18.88 93.5924 18.272C93.8484 17.648 93.9764 17.16 93.9764 16.808C93.9764 16.472 93.8884 16.24 93.7124 16.112C93.5524 15.984 93.3844 15.888 93.2084 15.824C93.1284 15.792 93.0484 15.736 92.9684 15.656C92.9044 15.56 92.8644 15.48 92.8484 15.416C92.3364 15.992 91.7684 16.648 91.1444 17.384C90.5204 18.104 89.9124 18.84 89.3204 19.592C88.7444 20.344 88.2324 21.048 87.7844 21.704C87.7204 21.784 87.5844 21.984 87.3764 22.304C87.1524 22.64 86.9124 23.024 86.6564 23.456C86.3844 23.904 86.1524 24.344 85.9604 24.776C85.7684 25.224 85.6724 25.6 85.6724 25.904C85.6724 26.064 85.7204 26.2 85.8164 26.312C85.9124 26.44 86.0484 26.504 86.2244 26.504ZM93.2324 22.616L93.5444 22.256L93.5684 22.232C93.5684 22.232 93.5204 22.28 93.4244 22.376C93.3444 22.488 93.2804 22.568 93.2324 22.616ZM98.1277 21.44C97.7757 21.136 97.5277 20.848 97.3837 20.576C97.2557 20.32 97.1917 20.072 97.1917 19.832C97.1917 19.736 97.2077 19.648 97.2397 19.568C97.2557 19.472 97.2717 19.376 97.2877 19.28C97.3677 19.04 97.5517 18.632 97.8397 18.056C98.1437 17.48 98.5037 16.824 98.9197 16.088C99.3517 15.352 99.8077 14.608 100.288 13.856C100.768 13.088 101.224 12.4 101.656 11.792C101.512 11.824 101.36 11.848 101.2 11.864C101.056 11.88 100.912 11.888 100.768 11.888C100.368 11.888 100.008 11.864 99.6877 11.816C99.3837 11.752 99.2077 11.712 99.1597 11.696C98.9997 11.664 98.8957 11.56 98.8477 11.384C98.8157 11.192 98.8077 11 98.8237 10.808C98.7757 10.792 98.7437 10.768 98.7277 10.736C98.7117 10.704 98.6957 10.68 98.6797 10.664C98.6797 10.632 98.6717 10.6 98.6557 10.568C98.6557 10.536 98.6557 10.504 98.6557 10.472C98.6557 10.312 98.6957 10.208 98.7757 10.16C98.8717 10.112 98.9757 10.088 99.0877 10.088C99.2157 10.088 99.3517 10.104 99.4957 10.136C99.6557 10.152 99.8157 10.16 99.9757 10.16C100.248 10.16 100.536 10.136 100.84 10.088C101.144 10.024 101.32 9.944 101.368 9.848C101.416 9.752 101.464 9.704 101.512 9.704C101.544 9.704 101.592 9.792 101.656 9.968C101.656 9.984 101.656 10 101.656 10.016C101.672 10.032 101.68 10.056 101.68 10.088C101.68 10.232 101.616 10.384 101.488 10.544H102.52C102.792 10.192 103.088 9.8 103.408 9.368C103.744 8.92 104.072 8.48 104.392 8.048C104.728 7.6 105.024 7.2 105.28 6.848C105.552 6.496 105.752 6.224 105.88 6.032C105.816 5.968 105.784 5.888 105.784 5.792C105.784 5.664 105.816 5.536 105.88 5.408C105.96 5.28 106 5.184 106 5.12C106 5.072 105.984 5.016 105.952 4.952C105.936 4.888 105.928 4.832 105.928 4.784C105.928 4.656 106 4.592 106.144 4.592C106.176 4.592 106.256 4.608 106.384 4.64C106.592 4.704 106.856 4.832 107.176 5.024C107.512 5.216 107.8 5.432 108.04 5.672C108.28 5.912 108.352 6.16 108.256 6.416C108.144 6.544 107.944 6.768 107.656 7.088C107.384 7.408 107.072 7.776 106.72 8.192C106.368 8.592 106.016 9.008 105.664 9.44C105.328 9.856 105.024 10.24 104.752 10.592C105.184 10.56 105.624 10.536 106.072 10.52C106.536 10.504 106.944 10.488 107.296 10.472C107.664 10.456 107.904 10.448 108.016 10.448C108.304 10.448 108.448 10.488 108.448 10.568C108.448 10.632 108.384 10.696 108.256 10.76C108.128 10.824 107.992 10.872 107.848 10.904C107.832 10.888 107.608 10.904 107.176 10.952C106.76 11 106.344 11.048 105.928 11.096C105.736 11.112 105.488 11.136 105.184 11.168C104.896 11.184 104.616 11.2 104.344 11.216L104.248 11.312C104.6 11.296 104.992 11.28 105.424 11.264C105.872 11.232 106.224 11.216 106.48 11.216C106.208 11.264 105.848 11.304 105.4 11.336C104.952 11.352 104.52 11.392 104.104 11.456C103.784 11.808 103.424 12.248 103.024 12.776C102.64 13.288 102.232 13.84 101.8 14.432C101.384 15.008 100.984 15.576 100.6 16.136C100.216 16.68 99.8717 17.168 99.5677 17.6C99.2637 18.032 99.0317 18.352 98.8717 18.56C99.0957 18.48 99.3597 18.368 99.6637 18.224C99.9677 18.064 100.272 17.896 100.576 17.72C101.28 17.256 102.032 16.752 102.832 16.208C103.648 15.664 104.36 15.192 104.968 14.792C105.352 14.552 105.728 14.296 106.096 14.024C106.48 13.736 106.848 13.44 107.2 13.136C107.232 13.104 107.248 13.104 107.248 13.136C107.264 13.168 107.256 13.2 107.224 13.232L106.312 14.048C106.328 14.112 106.336 14.176 106.336 14.24C106.336 14.288 106.336 14.344 106.336 14.408C106.336 14.552 106.312 14.688 106.264 14.816C106.232 14.944 106.16 15.048 106.048 15.128C105.776 15.304 105.36 15.592 104.8 15.992C104.256 16.392 103.64 16.856 102.952 17.384C102.264 17.896 101.584 18.416 100.912 18.944C100.256 19.472 99.6717 19.96 99.1597 20.408C98.6477 20.856 98.3037 21.2 98.1277 21.44ZM98.5357 19.04L99.6877 18.32L98.7037 18.776L98.5357 19.04ZM115.597 20.696C115.213 20.696 114.861 20.64 114.541 20.528C114.237 20.432 114.085 20.288 114.085 20.096C114.085 19.968 114.149 19.864 114.277 19.784C114.405 19.704 114.549 19.664 114.709 19.664C113.653 19.44 112.901 19.056 112.453 18.512C112.021 17.952 111.805 17.304 111.805 16.568C111.805 15.96 111.925 15.32 112.165 14.648C112.421 13.96 112.749 13.296 113.149 12.656C113.997 11.296 114.909 10.208 115.885 9.392C116.877 8.576 117.973 7.832 119.173 7.16C118.869 7.304 118.557 7.456 118.237 7.616C117.933 7.76 117.645 7.912 117.373 8.072C117.261 8.136 117.165 8.168 117.085 8.168C117.021 8.168 117.045 8.136 117.157 8.072C117.685 7.768 118.309 7.448 119.029 7.112C119.749 6.76 120.381 6.456 120.925 6.2C122.301 5.544 123.693 5.032 125.101 4.664C126.509 4.296 127.741 4.112 128.797 4.112C129.421 4.112 129.949 4.184 130.381 4.328C130.573 4.632 130.709 4.912 130.789 5.168C130.869 5.408 130.909 5.624 130.909 5.816C130.909 5.976 130.885 6.112 130.837 6.224C130.805 6.336 130.773 6.432 130.741 6.512C130.821 6.464 130.893 6.384 130.957 6.272C131.037 6.16 131.101 6.048 131.149 5.936C131.197 5.824 131.221 5.728 131.221 5.648C131.237 5.568 131.261 5.488 131.293 5.408C131.325 5.36 131.413 5.392 131.557 5.504C131.701 5.616 131.837 5.76 131.965 5.936C132.109 6.112 132.173 6.272 132.157 6.416C132.141 6.688 132.005 7.016 131.749 7.4C131.509 7.784 131.205 8.16 130.837 8.528C130.485 8.88 130.125 9.176 129.757 9.416C129.389 9.64 129.069 9.736 128.797 9.704C128.541 9.976 128.165 10.304 127.669 10.688C127.173 11.072 126.621 11.448 126.013 11.816C125.421 12.184 124.845 12.496 124.285 12.752C123.725 13.008 123.261 13.144 122.893 13.16C122.813 13.112 122.669 12.984 122.461 12.776C122.253 12.568 122.061 12.336 121.885 12.08C121.709 11.808 121.621 11.56 121.621 11.336C121.621 11.288 121.637 11.216 121.669 11.12C121.733 11.008 121.869 10.8 122.077 10.496C122.285 10.192 122.557 9.872 122.893 9.536C123.245 9.184 123.669 8.912 124.165 8.72C124.261 8.672 124.333 8.648 124.381 8.648C124.461 8.648 124.469 8.712 124.405 8.84C124.357 8.968 124.165 9.216 123.829 9.584C123.765 9.648 123.637 9.784 123.445 9.992C123.269 10.2 123.101 10.416 122.941 10.64C122.797 10.864 122.725 11.056 122.725 11.216C122.725 11.408 122.885 11.48 123.205 11.432C123.637 11.368 124.125 11.216 124.669 10.976C125.229 10.736 125.789 10.448 126.349 10.112C126.909 9.776 127.445 9.424 127.957 9.056C128.469 8.688 128.901 8.336 129.253 8C129.845 7.424 130.141 6.976 130.141 6.656C130.141 6.448 130.045 6.296 129.853 6.2C129.677 6.104 129.429 6.056 129.109 6.056C129.045 6.056 128.965 6.064 128.869 6.08C128.789 6.08 128.701 6.088 128.605 6.104C127.677 6.232 126.677 6.44 125.605 6.728C124.549 7.016 123.469 7.4 122.365 7.88C121.261 8.344 120.197 8.912 119.173 9.584C118.165 10.24 117.245 11.008 116.413 11.888C115.581 12.752 114.901 13.744 114.373 14.864C114.005 15.632 113.821 16.296 113.821 16.856C113.821 17.352 113.973 17.752 114.277 18.056C114.597 18.344 115.117 18.488 115.837 18.488C116.445 18.488 117.221 18.36 118.165 18.104C119.125 17.848 120.269 17.424 121.597 16.832C121.293 16.976 121.021 17.104 120.781 17.216C120.541 17.312 120.333 17.4 120.157 17.48C120.013 17.544 119.789 17.632 119.485 17.744C119.197 17.84 118.941 17.928 118.717 18.008C118.493 18.072 118.397 18.104 118.429 18.104C118.701 18.104 119.061 18.032 119.509 17.888C119.973 17.744 120.437 17.568 120.901 17.36C121.381 17.152 121.757 16.968 122.029 16.808C122.397 16.616 122.781 16.408 123.181 16.184C123.581 15.944 123.981 15.712 124.381 15.488C123.885 15.744 123.397 15.984 122.917 16.208C122.453 16.432 122.013 16.64 121.597 16.832L122.125 16.568C122.237 16.504 122.453 16.384 122.773 16.208C123.109 16.016 123.493 15.8 123.925 15.56C124.357 15.304 124.797 15.056 125.245 14.816C125.693 14.56 126.085 14.336 126.421 14.144C126.773 13.936 127.029 13.792 127.189 13.712C127.061 13.84 126.725 14.072 126.181 14.408C125.653 14.744 125.053 15.104 124.381 15.488C125.437 14.944 126.605 14.312 127.885 13.592C128.109 13.464 128.269 13.4 128.365 13.4C128.493 13.4 128.517 13.48 128.437 13.64C128.373 13.784 128.213 13.992 127.957 14.264C127.461 14.76 126.805 15.304 125.989 15.896C125.173 16.472 124.277 17.048 123.301 17.624C122.325 18.184 121.333 18.696 120.325 19.16C119.317 19.608 118.373 19.952 117.493 20.192V20.216C117.493 20.28 117.437 20.352 117.325 20.432C117.149 20.528 116.893 20.592 116.557 20.624C116.221 20.672 115.901 20.696 115.597 20.696ZM119.437 7.112C120.477 6.632 121.581 6.2 122.749 5.816C123.933 5.432 125.069 5.136 126.157 4.928C127.245 4.704 128.165 4.592 128.917 4.592C129.141 4.592 129.253 4.576 129.253 4.544C129.253 4.512 129.197 4.488 129.085 4.472C128.989 4.44 128.885 4.432 128.773 4.448C128.309 4.48 127.677 4.552 126.877 4.664C126.093 4.76 125.229 4.92 124.285 5.144C123.341 5.368 122.397 5.688 121.453 6.104C121.149 6.248 120.813 6.408 120.445 6.584C120.077 6.76 119.741 6.936 119.437 7.112ZM127.693 20.408C127.597 20.408 127.445 20.296 127.237 20.072C127.045 19.864 126.845 19.632 126.637 19.376C126.445 19.104 126.301 18.904 126.205 18.776C126.349 18.152 126.597 17.504 126.949 16.832C127.317 16.144 127.741 15.472 128.221 14.816C128.701 14.16 129.181 13.552 129.661 12.992C130.157 12.432 130.589 11.96 130.957 11.576C130.685 11.784 130.397 12.056 130.093 12.392C129.789 12.712 129.581 12.928 129.469 13.04C129.277 13.232 129.085 13.424 128.893 13.616C128.701 13.792 128.525 13.968 128.365 14.144C128.845 13.552 129.317 13.008 129.781 12.512C130.261 12.016 130.605 11.688 130.813 11.528C130.861 11.48 130.925 11.424 131.005 11.36C131.101 11.296 131.205 11.256 131.317 11.24L131.509 11.024C131.941 11.04 132.405 11.176 132.901 11.432C133.397 11.672 133.821 11.992 134.173 12.392C134.541 12.776 134.733 13.216 134.749 13.712C134.749 13.776 134.717 13.84 134.653 13.904C134.589 13.952 134.541 13.92 134.509 13.808C134.397 13.568 134.269 13.352 134.125 13.16C133.981 12.968 133.821 12.816 133.645 12.704C133.485 12.608 133.317 12.56 133.141 12.56C132.949 12.56 132.773 12.624 132.613 12.752C132.293 12.992 131.909 13.352 131.461 13.832C131.029 14.296 130.589 14.8 130.141 15.344C129.709 15.888 129.317 16.416 128.965 16.928C128.629 17.44 128.397 17.864 128.269 18.2C128.365 18.088 128.533 17.928 128.773 17.72C129.013 17.512 129.269 17.304 129.541 17.096C129.813 16.872 130.045 16.688 130.237 16.544C130.301 16.496 130.437 16.4 130.645 16.256C130.853 16.112 131.069 15.96 131.293 15.8C131.533 15.64 131.725 15.52 131.869 15.44C131.869 15.472 131.773 15.56 131.581 15.704C131.405 15.848 131.189 16.008 130.933 16.184C130.677 16.36 130.437 16.52 130.213 16.664C130.005 16.808 129.877 16.904 129.829 16.952C129.653 17.112 129.445 17.296 129.205 17.504C128.981 17.712 128.773 17.904 128.581 18.08C128.389 18.256 128.261 18.384 128.197 18.464C128.165 18.528 128.157 18.568 128.173 18.584C128.189 18.6 128.221 18.576 128.269 18.512C128.413 18.304 128.629 18.08 128.917 17.84C129.205 17.6 129.517 17.36 129.853 17.12C130.205 16.864 130.517 16.632 130.789 16.424C131.109 16.184 131.397 15.976 131.653 15.8C131.925 15.608 132.165 15.432 132.373 15.272C132.389 14.936 132.509 14.704 132.733 14.576C132.973 14.448 133.157 14.408 133.285 14.456C133.381 14.488 133.525 14.552 133.717 14.648C133.925 14.728 134.109 14.832 134.269 14.96C134.429 15.072 134.477 15.2 134.413 15.344C134.301 15.6 134.213 16 134.149 16.544C134.101 17.072 134.077 17.56 134.077 18.008C134.077 18.648 134.277 18.968 134.677 18.968C134.885 18.968 135.165 18.856 135.517 18.632C135.645 18.552 135.741 18.512 135.805 18.512C135.853 18.512 135.877 18.536 135.877 18.584C135.877 18.648 135.837 18.744 135.757 18.872C135.677 18.984 135.621 19.056 135.589 19.088C135.397 19.296 135.165 19.488 134.893 19.664C134.637 19.824 134.373 19.904 134.101 19.904C133.989 19.904 133.877 19.888 133.765 19.856C133.653 19.824 133.541 19.768 133.429 19.688C133.029 19.416 132.741 19 132.565 18.44C132.405 17.88 132.325 17.4 132.325 17C132.325 16.904 132.325 16.816 132.325 16.736C132.341 16.656 132.357 16.584 132.373 16.52C132.197 16.664 131.901 16.912 131.485 17.264C131.085 17.6 130.637 17.984 130.141 18.416C129.645 18.832 129.173 19.224 128.725 19.592C128.277 19.96 127.933 20.232 127.693 20.408ZM136.098 20C135.826 19.968 135.61 19.816 135.45 19.544C135.29 19.256 135.21 18.984 135.21 18.728C135.21 18.52 135.322 18.192 135.546 17.744C135.786 17.296 136.082 16.792 136.434 16.232C136.802 15.656 137.178 15.096 137.562 14.552C137.962 13.992 138.314 13.496 138.618 13.064C138.938 12.632 139.162 12.328 139.29 12.152C139.082 12.344 138.89 12.536 138.714 12.728C138.538 12.92 138.434 13.016 138.402 13.016C138.386 13.016 138.466 12.872 138.642 12.584C138.834 12.28 139.202 11.736 139.746 10.952C139.906 10.952 140.098 11.04 140.322 11.216C140.546 11.392 140.746 11.592 140.922 11.816C141.098 12.04 141.186 12.232 141.186 12.392C141.01 12.68 140.73 13.048 140.346 13.496C139.978 13.928 139.586 14.376 139.17 14.84C138.77 15.304 138.41 15.728 138.09 16.112C138.138 16.064 138.33 15.896 138.666 15.608C139.018 15.32 139.45 14.96 139.962 14.528C140.474 14.096 141.018 13.64 141.594 13.16C142.186 12.68 142.746 12.232 143.274 11.816C143.802 11.384 144.25 11.04 144.618 10.784C145.002 10.512 145.242 10.376 145.338 10.376C145.434 10.376 145.57 10.472 145.746 10.664C145.938 10.84 146.114 11.04 146.274 11.264C146.434 11.488 146.514 11.672 146.514 11.816C146.514 11.832 146.394 11.968 146.154 12.224C145.93 12.48 145.642 12.808 145.29 13.208C144.954 13.592 144.618 14 144.282 14.432C143.946 14.848 143.658 15.24 143.418 15.608C143.194 15.976 143.09 16.248 143.106 16.424C142.946 16.392 142.81 16.248 142.698 15.992C142.586 15.72 142.53 15.416 142.53 15.08C142.53 14.888 142.586 14.656 142.698 14.384C142.826 14.112 142.962 13.848 143.106 13.592C143.266 13.336 143.402 13.112 143.514 12.92C143.642 12.728 143.706 12.624 143.706 12.608C143.61 12.72 143.474 12.904 143.298 13.16C143.138 13.416 142.978 13.672 142.818 13.928C142.674 14.168 142.578 14.344 142.53 14.456C142.578 14.264 142.714 13.952 142.938 13.52C143.162 13.088 143.458 12.656 143.826 12.224C143.65 12.384 143.346 12.656 142.914 13.04C142.498 13.408 142.018 13.848 141.474 14.36C140.93 14.872 140.362 15.408 139.77 15.968C139.194 16.512 138.642 17.048 138.114 17.576C137.586 18.104 137.138 18.584 136.77 19.016C136.418 19.432 136.194 19.76 136.098 20ZM144.444 20.72C144.348 20.72 144.204 20.672 144.012 20.576C143.82 20.496 143.644 20.384 143.484 20.24C143.34 20.096 143.268 19.96 143.268 19.832C143.268 19.752 143.308 19.648 143.388 19.52L143.412 19.472C143.188 19.168 143.06 18.936 143.028 18.776C143.22 18.072 143.532 17.36 143.964 16.64C144.396 15.904 144.86 15.2 145.356 14.528C145.1 14.784 144.86 15.048 144.636 15.32C144.428 15.576 144.244 15.784 144.084 15.944C144.356 15.528 144.708 15.088 145.14 14.624C145.572 14.16 145.964 13.728 146.316 13.328C146.156 13.52 145.996 13.712 145.836 13.904C145.676 14.096 145.516 14.304 145.356 14.528C145.452 14.432 145.54 14.336 145.62 14.24C145.716 14.144 145.812 14.056 145.908 13.976C146.004 13.88 146.156 13.72 146.364 13.496C146.588 13.272 146.828 13.024 147.084 12.752C147.356 12.48 147.604 12.232 147.828 12.008C148.068 11.784 148.252 11.632 148.38 11.552C148.588 11.408 148.636 11.336 148.524 11.336C148.444 11.336 148.308 11.416 148.116 11.576C147.94 11.736 147.764 11.904 147.588 12.08C147.428 12.256 147.324 12.368 147.276 12.416L146.316 13.328C146.78 12.8 147.212 12.328 147.612 11.912C148.028 11.48 148.372 11.136 148.644 10.88C148.98 10.896 149.348 10.984 149.748 11.144C150.148 11.288 150.492 11.504 150.78 11.792C151.276 12.256 151.572 12.744 151.668 13.256C152.228 12.472 152.796 11.68 153.372 10.88C153.964 10.064 154.524 9.296 155.052 8.576C155.596 7.856 156.068 7.232 156.468 6.704C156.868 6.16 157.156 5.76 157.332 5.504C157.284 5.424 157.236 5.352 157.188 5.288C157.14 5.224 157.116 5.168 157.116 5.12C157.116 5.024 157.252 4.984 157.524 5C157.748 5.016 158.004 5.112 158.292 5.288C158.596 5.464 158.852 5.664 159.06 5.888C159.268 6.096 159.34 6.288 159.276 6.464C159.084 6.656 158.772 6.992 158.34 7.472C157.908 7.952 157.396 8.52 156.804 9.176C156.228 9.832 155.62 10.536 154.98 11.288C154.34 12.024 153.716 12.752 153.108 13.472C153.012 13.584 152.852 13.8 152.628 14.12C152.404 14.44 152.148 14.824 151.86 15.272C151.572 15.704 151.292 16.168 151.02 16.664C150.764 17.144 150.548 17.616 150.372 18.08C150.196 18.528 150.108 18.912 150.108 19.232C150.108 19.664 150.26 19.92 150.564 20C150.772 20.064 150.876 20.128 150.876 20.192C150.876 20.272 150.764 20.312 150.54 20.312C150.364 20.312 150.172 20.28 149.964 20.216C149.58 20.104 149.308 19.92 149.148 19.664C149.004 19.392 148.932 19.096 148.932 18.776C148.932 18.296 149.036 17.8 149.244 17.288C149.468 16.76 149.676 16.32 149.868 15.968C149.372 16.432 148.82 16.952 148.212 17.528C147.604 18.088 147.02 18.608 146.46 19.088C146.492 19.088 146.524 19.104 146.556 19.136C146.62 19.168 146.564 19.272 146.388 19.448C146.228 19.608 146.012 19.792 145.74 20C145.468 20.192 145.204 20.36 144.948 20.504C144.708 20.648 144.54 20.72 144.444 20.72ZM145.308 18.848C145.532 18.704 145.844 18.488 146.244 18.2C146.644 17.896 147.092 17.552 147.588 17.168C148.1 16.768 148.62 16.352 149.148 15.92C149.676 15.472 150.164 15.048 150.612 14.648C150.548 14.616 150.516 14.544 150.516 14.432C150.516 14.32 150.548 14.2 150.612 14.072C150.756 13.8 150.86 13.56 150.924 13.352C150.988 13.144 151.02 12.96 151.02 12.8C151.02 12.416 150.868 12.224 150.564 12.224C150.324 12.224 150.052 12.344 149.748 12.584C149.476 12.792 149.132 13.112 148.716 13.544C148.3 13.96 147.868 14.432 147.42 14.96C146.988 15.472 146.58 15.984 146.196 16.496C145.828 16.992 145.54 17.44 145.332 17.84C145.14 18.224 145.076 18.504 145.14 18.68L148.764 16.016C148.796 15.984 148.82 15.96 148.836 15.944C148.868 15.928 148.884 15.92 148.884 15.92C148.9 15.92 148.868 15.968 148.788 16.064C148.708 16.144 148.628 16.224 148.548 16.304C148.324 16.48 148.004 16.728 147.588 17.048C147.172 17.352 146.748 17.664 146.316 17.984C145.9 18.288 145.548 18.56 145.26 18.8C145.196 18.848 145.164 18.88 145.164 18.896C145.18 18.912 145.228 18.896 145.308 18.848Z" fill="#D95C19"/>
<path d="M77.92 57.224C76.3627 57.224 74.9547 56.9573 73.696 56.424C72.4587 55.8907 71.4773 55.1227 70.752 54.12C70.0267 53.1173 69.6533 51.9333 69.632 50.568H74.432C74.496 51.4853 74.816 52.2107 75.392 52.744C75.9893 53.2773 76.8 53.544 77.824 53.544C78.8693 53.544 79.6907 53.2987 80.288 52.808C80.8853 52.296 81.184 51.6347 81.184 50.824C81.184 50.1627 80.9813 49.6187 80.576 49.192C80.1707 48.7653 79.6587 48.4347 79.04 48.2C78.4427 47.944 77.6107 47.6667 76.544 47.368C75.0933 46.9413 73.9093 46.5253 72.992 46.12C72.096 45.6933 71.3173 45.064 70.656 44.232C70.016 43.3787 69.696 42.248 69.696 40.84C69.696 39.5173 70.0267 38.3653 70.688 37.384C71.3493 36.4027 72.2773 35.656 73.472 35.144C74.6667 34.6107 76.032 34.344 77.568 34.344C79.872 34.344 81.7387 34.9093 83.168 36.04C84.6187 37.1493 85.4187 38.7067 85.568 40.712H80.64C80.5973 39.944 80.2667 39.3147 79.648 38.824C79.0507 38.312 78.2507 38.056 77.248 38.056C76.3733 38.056 75.6693 38.28 75.136 38.728C74.624 39.176 74.368 39.8267 74.368 40.68C74.368 41.2773 74.56 41.7787 74.944 42.184C75.3493 42.568 75.84 42.888 76.416 43.144C77.0133 43.3787 77.8453 43.656 78.912 43.976C80.3627 44.4027 81.5467 44.8293 82.464 45.256C83.3813 45.6827 84.1707 46.3227 84.832 47.176C85.4933 48.0293 85.824 49.1493 85.824 50.536C85.824 51.7307 85.5147 52.84 84.896 53.864C84.2773 54.888 83.3707 55.7093 82.176 56.328C80.9813 56.9253 79.5627 57.224 77.92 57.224ZM99.052 39.016C100.396 39.016 101.591 39.3147 102.636 39.912C103.681 40.488 104.492 41.352 105.068 42.504C105.665 43.6347 105.964 45 105.964 46.6V57H101.484V47.208C101.484 45.8 101.132 44.7227 100.428 43.976C99.724 43.208 98.764 42.824 97.548 42.824C96.3107 42.824 95.3293 43.208 94.604 43.976C93.9 44.7227 93.548 45.8 93.548 47.208V57H89.068V33.32H93.548V41.48C94.124 40.712 94.892 40.1147 95.852 39.688C96.812 39.24 97.8787 39.016 99.052 39.016ZM117.456 57.288C115.75 57.288 114.214 56.9147 112.848 56.168C111.483 55.4 110.406 54.3227 109.616 52.936C108.848 51.5493 108.464 49.9493 108.464 48.136C108.464 46.3227 108.859 44.7227 109.648 43.336C110.459 41.9493 111.558 40.8827 112.944 40.136C114.331 39.368 115.878 38.984 117.584 38.984C119.291 38.984 120.838 39.368 122.224 40.136C123.611 40.8827 124.699 41.9493 125.488 43.336C126.299 44.7227 126.704 46.3227 126.704 48.136C126.704 49.9493 126.288 51.5493 125.456 52.936C124.646 54.3227 123.536 55.4 122.128 56.168C120.742 56.9147 119.184 57.288 117.456 57.288ZM117.456 53.384C118.267 53.384 119.024 53.192 119.728 52.808C120.454 52.4027 121.03 51.8053 121.456 51.016C121.883 50.2267 122.096 49.2667 122.096 48.136C122.096 46.4507 121.648 45.16 120.752 44.264C119.878 43.3467 118.8 42.888 117.52 42.888C116.24 42.888 115.163 43.3467 114.288 44.264C113.435 45.16 113.008 46.4507 113.008 48.136C113.008 49.8213 113.424 51.1227 114.256 52.04C115.11 52.936 116.176 53.384 117.456 53.384ZM133.831 41.832C134.407 41.0213 135.196 40.3493 136.199 39.816C137.223 39.2613 138.385 38.984 139.687 38.984C141.201 38.984 142.567 39.3573 143.783 40.104C145.02 40.8507 145.991 41.9173 146.695 43.304C147.42 44.6693 147.783 46.2587 147.783 48.072C147.783 49.8853 147.42 51.496 146.695 52.904C145.991 54.2907 145.02 55.368 143.783 56.136C142.567 56.904 141.201 57.288 139.687 57.288C138.385 57.288 137.233 57.0213 136.231 56.488C135.249 55.9547 134.449 55.2827 133.831 54.472V65.448H129.351V39.272H133.831V41.832ZM143.207 48.072C143.207 47.0053 142.983 46.088 142.535 45.32C142.108 44.5307 141.532 43.9333 140.807 43.528C140.103 43.1227 139.335 42.92 138.503 42.92C137.692 42.92 136.924 43.1333 136.199 43.56C135.495 43.9653 134.919 44.5627 134.471 45.352C134.044 46.1413 133.831 47.0693 133.831 48.136C133.831 49.2027 134.044 50.1307 134.471 50.92C134.919 51.7093 135.495 52.3173 136.199 52.744C136.924 53.1493 137.692 53.352 138.503 53.352C139.335 53.352 140.103 53.1387 140.807 52.712C141.532 52.2853 142.108 51.6773 142.535 50.888C142.983 50.0987 143.207 49.16 143.207 48.072Z" fill="#111827"/>
</svg>
