<svg width="452" height="227" viewBox="0 0 452 227" fill="none" xmlns="http://www.w3.org/2000/svg">
<path d="M452 226.065C452 196.386 446.154 166.998 434.797 139.579C423.439 112.159 406.792 87.2451 385.806 66.2591C364.82 45.2731 339.906 28.626 312.486 17.2685C285.067 5.91091 255.679 0.0652453 226 0.0652466C196.321 0.0652479 166.933 5.91091 139.514 17.2685C112.094 28.626 87.1799 45.2731 66.1939 66.2591C45.2078 87.2452 28.5608 112.159 17.2032 139.579C5.84566 166.998 -2.5946e-06 196.386 0 226.065L226 226.065H452Z" fill="#E69265"/>
<path d="M428 226.065C428 199.538 422.775 173.271 412.624 148.763C402.472 124.255 387.593 101.987 368.836 83.2297C350.078 64.4722 327.81 49.593 303.302 39.4416C278.794 29.2901 252.527 24.0652 226 24.0652C199.473 24.0652 173.206 29.2901 148.698 39.4416C124.19 49.593 101.922 64.4722 83.1644 83.2297C64.407 101.987 49.5278 124.255 39.3763 148.763C29.2249 173.271 24 199.538 24 226.065L226 226.065H428Z" fill="#E17D47"/>
<path d="M404 226.065C404 202.69 399.396 179.544 390.451 157.948C381.505 136.352 368.394 116.729 351.865 100.2C335.336 83.6714 315.714 70.56 294.118 61.6147C272.522 52.6694 249.375 48.0652 226 48.0652C202.625 48.0652 179.478 52.6694 157.882 61.6147C136.286 70.56 116.664 83.6714 100.135 100.2C83.6062 116.729 70.4948 136.352 61.5494 157.948C52.6041 179.544 48 202.69 48 226.065L226 226.065H404Z" fill="#D95C19"/>
<path d="M380 226.065C380 205.842 376.017 185.816 368.277 167.132C360.538 148.448 349.195 131.471 334.894 117.171C320.594 102.871 303.617 91.527 284.933 83.7878C266.249 76.0486 246.224 72.0652 226 72.0652C205.776 72.0652 185.751 76.0486 167.067 83.7878C148.383 91.527 131.406 102.871 117.106 117.171C102.805 131.471 91.4618 148.448 83.7225 167.132C75.9833 185.816 72 205.842 72 226.065L226 226.065H380Z" fill="#C55417"/>
</svg>
